<?xml version="1.0" encoding="UTF-8"?>
<svg width="142px" height="79px" viewBox="0 0 142 79" version="1.1" xmlns="http://www.w3.org/2000/svg" xmlns:xlink="http://www.w3.org/1999/xlink">
    <title>sf_logo-direct-impact</title>
    <g id="sf_logo-direct-impact" stroke="none" stroke-width="1" fill="none" fill-rule="evenodd">
        <path d="M100.706523,-1.77635684e-13 C101.631614,-1.77635684e-13 102.551314,0.256071202 103.357803,0.760862278 L103.596246,0.919753846 L139.419354,26.3092 C140.743538,27.2485231 141.529569,28.7716615 141.526318,30.3959077 C141.52321,31.9373923 140.810718,33.3876272 139.599959,34.3299546 L139.404677,34.4744615 L125.236554,44.4400923 C123.379297,55.9854235 113.459119,64.834067 101.435069,65.0190749 L101.050615,65.0220308 L37.4571385,65.0220308 C37.090759,65.0220308 36.7272786,65.0104342 36.3652479,64.9920729 L35.8231077,64.9600615 L35.8231077,78.1888615 L1.98951966e-13,52.7977846 L13.1472615,43.5496923 C13.0249538,42.5549231 12.9548308,41.5454769 12.9548308,40.5180923 C12.9548308,27.1212905 23.7067087,16.2354445 37.0519518,16.0190673 L37.4571385,16.0157846 L95.7098462,16.0157846 L95.7098462,4.99667692 C95.7098462,3.12618462 96.7519077,1.41550769 98.4120308,0.556092308 C99.1344615,0.184276923 99.9221231,-1.77635684e-13 100.706523,-1.77635684e-13 Z M81.3737538,46.3383077 C79.2755518,46.3383077 77.9621393,47.7021653 77.8769098,49.4885902 L77.8724923,49.6748615 L77.8724923,55.6940308 C77.8724923,57.5726769 79.2032,59.0322154 81.3737538,59.0322154 C83.4521411,59.0322154 84.577337,57.7749757 84.6524654,56.0457796 L84.6564923,55.8587385 L84.6564923,54.3812615 L82.6327077,54.3812615 L82.6327077,55.8408 C82.6327077,56.5518154 82.2315385,57.0443077 81.4112615,57.0443077 C80.6407231,57.0443077 80.2242081,56.6114531 80.1751536,56.0010494 L80.1702462,55.8766769 L80.1702462,49.4938462 C80.1702462,48.8187077 80.5893538,48.3262154 81.4112615,48.3262154 C82.1802712,48.3262154 82.5809244,48.75907 82.6280021,49.3990354 L82.6327077,49.5297231 L82.6327077,50.9892615 L84.6564923,50.9892615 L84.6564923,49.5117846 C84.6564923,47.6885846 83.5263692,46.3383077 81.3737538,46.3383077 Z M93.4463385,46.6122769 L86.6982154,46.6122769 L86.6982154,48.6181231 L88.9421538,48.6181231 L88.9421538,58.7598769 L91.2219692,58.7598769 L91.2219692,48.6181231 L93.4463385,48.6181231 L93.4463385,46.6122769 Z M73.4971385,46.6122769 L70.9612923,46.6122769 L68.5167692,58.7598769 L70.6335077,58.7598769 L71.0705538,56.3708 L73.2231692,56.3708 L73.6243385,58.7598769 L75.9220923,58.7598769 L73.4971385,46.6122769 Z M64.4512615,46.6122769 L60.7119077,46.6122769 L60.7119077,58.7598769 L62.9737846,58.7598769 L62.9737846,54.1072923 L64.4512615,54.1072923 C66.1017208,54.1072923 67.1276379,53.1954306 67.2013678,51.5799438 L67.2056308,51.3904308 L67.2056308,49.3470769 C67.2056308,47.5956308 66.1652,46.6122769 64.4512615,46.6122769 Z M51.4670769,46.6122769 L48.4208,46.6122769 L48.4208,58.7598769 L50.4445846,58.7598769 L50.4445846,49.9488308 L50.9191385,52.5939385 L52.1422154,58.7598769 L53.8561538,58.7598769 L55.1509846,52.5939385 L55.6434769,49.9488308 L55.6434769,58.7598769 L57.7781538,58.7598769 L57.7781538,46.6122769 L54.7498154,46.6122769 L53.5104308,52.7765846 L53.1092615,55.0205231 L52.7260308,52.7765846 L51.4670769,46.6122769 Z M45.4674769,46.6122769 L43.2056,46.6122769 L43.2056,58.7598769 L45.4674769,58.7598769 L45.4674769,46.6122769 Z M100.706523,4.99667692 L100.706523,21.0124615 L37.4571385,21.0124615 C26.937239,21.0124615 18.3531511,29.3860831 17.9803161,39.816838 L17.9710769,40.1576923 L35.8231077,27.5991385 L35.8231077,40.2979385 L100.706523,40.2979385 L100.706523,55.5831385 L136.529631,30.3861231 L100.706523,4.99667692 Z M72.2010031,49.8953415 L72.9315877,54.5821723 L71.3807262,54.5821723 L72.2010031,49.8953415 Z M64.2143108,48.4715169 C64.7801877,48.4715169 65.0166492,48.7813631 65.0166492,49.3847477 L65.0166492,49.3847477 L65.0166492,51.4444092 C65.0166492,52.0461631 64.7801877,52.35764 64.2143108,52.35764 L64.2143108,52.35764 L62.9732954,52.35764 L62.9732954,48.4715169 Z M80.7537354,25.0261108 C82.8321227,25.0261108 83.9588388,26.2848707 84.034072,28.0127038 L84.0381046,28.1995877 L84.0381046,29.6770646 L82.0126892,29.6770646 L82.0126892,28.2175262 C82.0126892,27.5065108 81.61152,27.0140185 80.7896123,27.0140185 C80.0206027,27.0140185 79.6041832,27.446873 79.5551347,28.0572768 L79.5502277,28.1816492 L79.5502277,34.5661108 C79.5502277,35.2412492 79.9693354,35.7321108 80.7896123,35.7321108 C81.5601508,35.7321108 81.9608996,35.3006895 82.0079833,34.6595595 L82.0126892,34.5286031 L82.0126892,33.0706954 L84.0381046,33.0706954 L84.0381046,34.5481723 C84.0381046,36.3713723 82.9063508,37.7200185 80.7537354,37.7200185 C78.6555333,37.7200185 77.3421209,36.3576847 77.2568914,34.5684153 L77.2524738,34.3818338 L77.2524738,28.3642954 C77.2524738,26.4856492 78.5831815,25.0261108 80.7537354,25.0261108 Z M62.7366708,25.3004062 C64.3353078,25.3004062 65.427355,26.1789993 65.5060545,27.7599853 L65.5106092,27.9455138 L65.5106092,29.6594523 C65.5106092,30.5710523 65.0898708,31.24456 64.1423938,31.5380985 C65.0306535,31.7765985 65.4874918,32.496685 65.5411268,33.2334336 L65.5464862,33.3808677 L65.5464862,35.6052369 C65.5464862,36.1082386 65.6766256,36.4656388 65.8968174,36.7438673 L65.9835323,36.8446215 L65.9835323,37.5213908 L64.6169477,37.5213908 C63.768776,37.5213908 63.4138466,36.865686 63.3788351,35.8967652 L63.3759323,35.7324369 L63.3759323,33.4526215 C63.3759323,32.9244697 63.1216483,32.4758705 62.5680004,32.4184046 L62.4447631,32.4121908 L61.2608246,32.4121908 L61.2608246,37.4480062 L58.9973169,37.4480062 L58.9973169,25.3004062 L62.7366708,25.3004062 Z M46.9999108,25.2992646 C49.0594036,25.2992646 50.2356362,26.5747472 50.3143068,28.3859314 L50.3185262,28.5820031 L50.3185262,34.2717569 C50.3185262,36.1407309 49.2133106,37.3620821 47.2171811,37.4440909 L46.9999108,37.4484954 L43.4970185,37.4484954 L43.4970185,25.2992646 L46.9999108,25.2992646 Z M55.7163723,25.3008954 L55.7163723,37.4484954 L53.4544954,37.4484954 L53.4544954,25.3008954 L55.7163723,25.3008954 Z M74.5003877,25.3004062 L74.5003877,27.2508062 L70.9616185,27.2508062 L70.9616185,30.2612062 L73.4061415,30.2612062 L73.4061415,32.0468985 L70.9616185,32.0468985 L70.9616185,35.4225908 L74.5003877,35.4225908 L74.5003877,37.4480062 L68.6997415,37.4480062 L68.6997415,25.3004062 L74.5003877,25.3004062 Z M93.1545938,25.3007323 L93.1545938,27.3065785 L90.9302246,27.3065785 L90.9302246,37.4483323 L88.6487785,37.4483323 L88.6487785,27.3065785 L86.4064708,27.3065785 L86.4064708,25.3007323 L93.1545938,25.3007323 Z M46.8352031,27.2512954 L45.7588954,27.2512954 L45.7588954,35.4948338 L46.8352031,35.4948338 C47.62103,35.4948338 47.9912019,35.0791788 48.0344037,34.3204292 L48.0387108,34.1641262 L48.0387108,28.6015723 C48.0387108,27.7258492 47.6734185,27.2512954 46.8352031,27.2512954 Z M62.5002092,27.1594831 L61.2608246,27.1594831 L61.2608246,30.73576 L62.4088862,30.73576 C62.9510004,30.73576 63.2568862,30.4671906 63.2978182,29.9039381 L63.3025477,29.7687138 L63.3025477,28.0368369 C63.3025477,27.4888985 63.0644554,27.1594831 62.5002092,27.1594831 Z" id="Combined-Shape" fill="#FFFFFF"></path>
    </g>
</svg>