<?xml version="1.0" encoding="UTF-8"?>
<svg width="60px" height="87px" viewBox="0 0 60 87" version="1.1" xmlns="http://www.w3.org/2000/svg" xmlns:xlink="http://www.w3.org/1999/xlink">
    <title>sf_logo-rsa</title>
    <g id="sf_logo-rsa" stroke="none" stroke-width="1" fill="none" fill-rule="evenodd">
        <path d="M50.4886154,81.3189315 C52.3754154,81.343393 53.2804923,82.7980392 53.2625538,84.0798238 C53.2364615,85.6535161 52.0655692,86.8260392 50.4723077,86.8244101 C48.8692615,86.8244101 47.7016308,85.6633007 47.7048855,84.0733007 C47.7097846,82.5045007 48.9132923,81.2961007 50.4886154,81.3189315 Z M20.1020031,81.3138761 C21.6773262,81.3008299 22.8840954,82.4929222 22.8857278,84.0649838 C22.8873569,85.6419376 21.7034185,86.819353 20.1150492,86.8242608 C18.5071108,86.8291376 17.3362185,85.674553 17.3345877,84.0878145 C17.3345877,82.5141222 18.5201569,81.3252915 20.1020031,81.3138761 Z M25.0401354,82.1860115 C26.2061354,80.9042268 28.3212431,81.1700422 29.0909662,82.1273038 C29.1023815,82.2920115 28.9637662,82.3686576 28.8773354,82.4762884 C28.7876431,82.5855499 28.6849046,82.6833961 28.5674892,82.8057038 C28.3929969,82.6882884 28.2331815,82.5643499 28.06032,82.464873 C27.3998585,82.0881653 26.72472,82.0457653 26.0903508,82.4958576 C25.41032,82.9753038 25.2081046,83.6749038 25.3532431,84.4690884 C25.4853354,85.199673 25.9077046,85.7068422 26.6382892,85.9057961 C27.1731815,86.0509345 27.6770892,85.9449345 28.1385969,85.6465038 C28.2837354,85.5519192 28.4190892,85.4393961 28.5935815,85.3105653 C28.8169969,85.4850576 28.9980123,85.6546576 29.1382585,85.8601345 C28.48432,86.9233961 26.4931508,87.1810576 25.3450892,86.2629345 C24.1269046,85.2877345 23.9752431,83.3585345 25.0401354,82.1860115 Z M12.9812492,81.4919561 C13.8015262,81.1592792 14.9936185,81.379433 15.6997415,81.9974945 C15.7046338,82.1524176 15.5823262,82.2453715 15.5073108,82.3611561 C15.4404492,82.4655253 15.37848,82.5780484 15.2692185,82.6465407 C15.1208185,82.6612176 15.0311262,82.5535868 14.9267569,82.4932484 C14.6495262,82.333433 14.3527262,82.2290638 14.0379877,82.1752484 C13.7803262,82.1312176 13.5275569,82.163833 13.2976185,82.2812484 C12.8589415,82.5062945 12.83448,83.0526022 13.2486954,83.3184176 C13.4639569,83.457033 13.7118338,83.5190022 13.9564492,83.584233 C14.3380492,83.6853407 14.7229108,83.7766638 15.0849415,83.944633 C15.9753415,84.3572176 16.0487262,85.1872792 15.8122646,85.8151253 C15.6361415,86.2782638 15.2757415,86.552233 14.8158646,86.6957407 C14.2059569,86.8881715 13.5944185,86.8474022 12.9926646,86.6549715 C12.5670338,86.5196176 12.17728,86.319033 11.8299262,85.9667868 C11.9897415,85.7172792 12.1462954,85.5248484 12.3550338,85.3340484 C12.4985415,85.4270022 12.6420492,85.5199561 12.7839262,85.6112792 C13.2258646,85.8966638 13.7053108,86.0189715 14.2304185,85.9716792 C14.4065415,85.9537407 14.57288,85.9064484 14.7163877,85.8020792 C15.0800492,85.5362638 15.0718954,85.0551868 14.6951877,84.8089407 C14.4685108,84.6589099 14.2043262,84.5936792 13.9434031,84.5284484 C13.6058338,84.4436484 13.2650031,84.3637407 12.9437415,84.2283868 C12.2849108,83.9478945 12.0142031,83.5532484 12.0207262,82.8830022 C12.0239877,82.2372176 12.3664492,81.7430945 12.9812492,81.4919561 Z M7.58992615,81.5231038 C8.16232615,81.267073 8.76408,81.3029499 9.35931077,81.4529807 C9.74417231,81.5508268 10.1045723,81.7106422 10.39648,82.0139653 C10.3442954,82.1036576 10.3018954,82.1884576 10.2497108,82.263473 C10.1583877,82.3939345 10.0621723,82.517873 9.98063385,82.6271345 C9.80777231,82.6825807 9.71971077,82.5651653 9.61697231,82.5048268 C9.34137231,82.3401192 9.04457231,82.2373807 8.73146462,82.178673 C8.47380308,82.1297499 8.22429538,82.1607345 7.98946462,82.2716268 C7.77420308,82.3727345 7.64048,82.539073 7.62906462,82.7885807 C7.61764923,83.0364576 7.73017231,83.2142115 7.94054154,83.3332576 C8.16232615,83.4588268 8.40857231,83.5240576 8.65155692,83.5892884 C9.03315692,83.6903961 9.42128,83.7751961 9.77678769,83.9578422 C10.5399877,84.3459653 10.8123262,85.1580884 10.4339877,85.9261807 C10.2317723,86.3354967 9.88931077,86.5801192 9.46368,86.7040576 C8.69721846,86.9258422 7.95684923,86.8231038 7.24583385,86.4871653 C6.97675692,86.3599653 6.71420308,86.2164576 6.50872615,85.9636884 C6.65223385,85.7174422 6.82346462,85.5184884 7.03546462,85.3325807 C7.18875692,85.4336884 7.33063385,85.5315345 7.47414154,85.6244884 C7.88835692,85.8870422 8.34008,86.0126115 8.82931077,85.973473 C8.95488,85.9636884 9.08208,85.9408576 9.19949538,85.8984576 C9.45389538,85.803873 9.62838769,85.6310115 9.64958769,85.3439961 C9.67241846,85.0488268 9.51097231,84.8694422 9.26472615,84.7487653 C9.04946462,84.6427653 8.82278769,84.5791653 8.59121846,84.5220884 C8.25201846,84.4389192 7.91444923,84.3557499 7.59318769,84.2187653 C7.01100308,83.9741499 6.68158769,83.5631961 6.68811077,82.9076268 C6.69300308,82.2471653 7.00121846,81.7856576 7.58992615,81.5231038 Z M58.7319908,81.436673 C58.9896523,81.3910115 59.2489446,81.3828576 59.5049754,81.4415653 C59.6028215,81.8035961 59.6191292,86.1626422 59.5245446,86.6991653 C59.4381138,86.7105807 59.3761446,86.7203653 59.3141754,86.7285192 C58.9537754,86.7774422 58.7026369,86.6583961 58.4743292,86.3485499 C57.7502677,85.3684576 56.9886985,84.4144576 56.2401754,83.450673 C56.1455908,83.3299961 56.0428523,83.2125807 55.9026062,83.0462422 C55.8080215,83.3316268 55.8520523,83.5664576 55.8455292,83.7947653 C55.8373754,84.0312268 55.8438985,84.2709499 55.8438985,84.5074115 L55.8438985,84.5074115 L55.8438985,85.2200576 C55.8438985,85.4581499 55.84716,85.6962422 55.8422677,85.9327038 C55.8373754,86.1691653 55.86836,86.4072576 55.8014985,86.6583961 C55.5536215,86.7904884 55.2894369,86.7187345 54.9828523,86.7056884 C54.9094677,86.2653807 54.9551292,85.8234422 54.9469754,85.3863961 C54.9388215,84.9444576 54.9453446,84.5008884 54.9453446,84.0573192 C54.9453446,83.6284268 54.9388215,83.2027961 54.9469754,82.7739038 C54.9534985,82.3352268 54.9159908,81.8949192 54.9714369,81.4725499 C55.1573446,81.3779653 55.3187908,81.4219961 55.4720831,81.4056884 C55.69876,81.3795961 55.8569446,81.4709192 55.9939292,81.6519345 C56.4309754,82.2357499 56.8843292,82.8065192 57.3295292,83.3838115 C57.6785138,83.8339038 58.0274985,84.2856268 58.3781138,84.7357192 L58.3781138,84.7357192 L58.4447797,84.8255811 C58.4798086,84.8695727 58.5212954,84.9079284 58.5868523,84.9216268 C58.7173138,84.8547653 58.6618677,84.7308268 58.6618677,84.6329807 C58.66676,83.7458422 58.6618677,82.8587038 58.66676,81.9715653 C58.6683908,81.8003345 58.6325138,81.6242115 58.7319908,81.436673 Z M35.5755569,81.4184084 C36.3925723,81.3254545 36.3925723,81.3254545 36.7040492,82.0413622 C37.3188492,83.4470853 37.93528,84.8560699 38.5484492,86.2634238 C38.6038954,86.3906238 38.6821723,86.5129315 38.6870646,86.6890545 C38.3870031,86.7591776 38.0950954,86.7347208 37.7722031,86.7053622 C37.5928185,86.3074545 37.4134338,85.9062853 37.2210031,85.477393 L37.2210031,85.477393 L34.7438646,85.477393 C34.4780492,85.8426853 34.4014031,86.2944084 34.1600492,86.685793 C33.8779262,86.7673315 33.5876492,86.7249315 33.2875877,86.7135161 C33.3100811,86.6023988 33.4749187,86.1799113 33.7071947,85.6179467 L33.892876,85.1730072 C34.5134957,83.6982276 35.4088811,81.6791065 35.5755569,81.4184084 Z M45.0831046,81.4392822 C45.3782738,81.3903592 45.6440892,81.3936207 45.9523046,81.440913 C46.02732,81.8746976 45.9800277,82.3150053 45.9865508,82.7520515 C45.9963354,83.1776822 45.9881815,83.6065745 45.9881815,84.0354668 L45.9881815,84.0354668 L45.9881815,86.6577438 C45.6832277,86.7702668 45.4059969,86.7311284 45.1418123,86.7066668 C45.1173508,86.6805745 45.1059354,86.6707899 45.0977815,86.6577438 C45.0879969,86.6446976 45.0765815,86.6332822 45.07332,86.6186053 C45.0635354,86.571313 45.05212,86.5256515 45.05212,86.4783592 C45.0504892,84.8769438 45.0504892,83.2771592 45.0504892,81.6773745 C45.0504892,81.6137745 45.0667969,81.5518053 45.0831046,81.4392822 Z M30.8251262,81.4521653 C31.0942031,81.3771499 31.3698031,81.3950884 31.6894338,81.4456422 C31.7399877,82.0343499 31.7073723,82.6181653 31.7138954,83.1987192 C31.7204185,83.7694884 31.7204185,84.3386268 31.7138954,84.9093961 C31.7073723,85.4915807 31.7432492,86.0770268 31.6845415,86.6934576 C31.3665415,86.7440115 31.1039877,86.7489038 30.8446954,86.6999807 C30.7566338,86.3249038 30.7403262,81.9691192 30.8251262,81.4521653 Z M2.28470769,81.4125376 C2.544,81.3636145 2.80981538,81.3782915 3.13270769,81.4092761 C3.90243077,83.1329992 4.66073846,84.8860761 5.44350769,86.6897068 C5.10104615,86.7516761 4.81076923,86.7369992 4.47809231,86.7043838 C4.35252308,86.4124761 4.20412308,86.1173068 4.09323077,85.8074607 C4.00027692,85.5416453 3.84209231,85.4470607 3.5616,85.4552145 C2.96147692,85.473153 2.35809231,85.4601068 1.75633846,85.4617376 C1.64544615,85.4617376 1.53455385,85.4552145 1.3992,85.5285992 C1.23775385,85.8922607 1.06652308,86.2820145 0.8904,86.6799222 C0.588707692,86.7598299 0.295169231,86.7435222 6.78568313e-13,86.6962299 C0.0750153846,86.3309376 1.99932308,81.8854607 2.28470769,81.4125376 Z M39.1782523,81.4697776 C39.5174523,81.3425776 39.8648062,81.4241161 40.2056369,81.4094392 C40.5692985,81.3947622 40.9345908,81.4061776 41.2982523,81.4061776 L41.2982523,81.4061776 L43.3986831,81.4061776 C43.4753292,81.7209161 43.4476062,81.9541161 43.4329292,82.2052545 C42.8947754,82.3585468 42.3484677,82.1905776 41.8364062,82.3128853 C41.7238831,82.4922699 41.7613908,82.6700238 41.7613908,82.8396238 C41.7581292,83.9485468 41.75976,85.0574699 41.7581292,86.166393 C41.7581292,86.335993 41.7760677,86.5121161 41.6994215,86.6947622 C41.4287138,86.7469468 41.1694215,86.7469468 40.8840369,86.6915007 C40.7976062,86.2055315 40.8497908,85.7326084 40.8416369,85.2629468 C40.8318523,84.7720853 40.8400062,84.2812238 40.8400062,83.7903622 L40.8400062,83.7903622 L40.8400062,82.3324545 C40.2855446,82.1922084 39.7424985,82.3357161 39.2059754,82.2329776 C39.1130215,81.9818392 39.1423754,81.735593 39.1782523,81.4697776 Z M20.5781877,82.2466761 C19.3926185,81.9351992 18.3163108,82.7864607 18.3048954,84.0437838 C18.3000031,84.8607992 18.7500954,85.5783376 19.4578492,85.8425222 C20.7151723,86.310553 22.0148954,85.3973222 21.9072646,83.914953 C21.8485569,83.088153 21.3087723,82.4391068 20.5781877,82.2466761 Z M50.9305538,82.2419468 C49.7384615,81.9467776 48.6768308,82.8045622 48.6768308,84.0635161 C48.6768308,85.0631776 49.3764308,85.8769315 50.3092308,85.9568392 C51.2876923,86.0432699 52.0884,85.4089007 52.2628923,84.4157622 C52.4341231,83.4389315 51.8372615,82.4653622 50.9305538,82.2419468 Z M35.9816185,82.5550545 C35.7484185,82.9219776 35.6277415,83.2644392 35.4956492,83.5987468 C35.3668185,83.9249007 35.1482954,84.2233315 35.1303569,84.6114545 L35.1303569,84.6114545 L36.8703877,84.6114545 C36.5719569,83.8955468 36.2963569,83.2465007 35.9816185,82.5550545 Z M2.62227692,82.6209376 C2.34504615,83.2667222 2.07433846,83.9027222 1.77590769,84.6023222 L1.77590769,84.6023222 L3.51593846,84.6023222 C3.41156923,84.0935222 2.85873846,82.8573992 2.62227692,82.6209376 Z M29.50192,72.9956484 C29.7791508,72.9255253 30.0514892,72.9271561 30.3140431,72.9907561 C30.4216738,73.1603561 30.3857969,73.3218022 30.3874277,73.4767253 C30.3906892,74.3002638 30.3890585,75.1238022 30.3890585,75.9473407 C30.3874277,76.2033715 30.4069969,76.4528792 30.4999508,76.694233 C30.71032,77.245433 31.1538892,77.5145099 31.8176123,77.4933099 C32.4144738,77.4704792 32.8123815,77.1736792 32.9868738,76.6273715 C33.0618892,76.397433 33.0749354,76.1609715 33.0749354,75.9245099 L33.0749354,75.9245099 L33.0749354,73.0038022 C33.4108738,72.920633 33.6734277,72.9467253 33.9017354,72.9662945 C34.0338277,73.0853407 34.0093662,73.2027561 34.0093662,73.3087561 C34.0109969,74.2122022 34.0077354,75.1156484 34.0109969,76.0174638 C34.0109969,76.2734945 33.9767508,76.5230022 33.9180431,76.7692484 C33.7190892,77.584633 33.2151815,78.1015868 32.3949046,78.2907561 C31.9578585,78.3918638 31.5110277,78.3918638 31.0739815,78.2989099 C30.1362892,78.0966945 29.5736738,77.4313407 29.4693046,76.4218945 C29.4513662,76.2506638 29.4497354,76.0745407 29.4497354,75.9000484 C29.4481046,75.0928176 29.4481046,74.2855868 29.4497354,73.4783561 C29.4497354,73.3218022 29.4301662,73.1619868 29.50192,72.9956484 Z M13.1893354,73.0825684 C14.0357046,72.668353 15.3680431,72.8966607 16.0236123,73.5734299 C15.9192431,73.7984761 15.7610585,73.9941684 15.6126585,74.1751838 C15.44632,74.215953 15.3566277,74.1017992 15.2522585,74.0414607 C14.9619815,73.8734915 14.6505046,73.7642299 14.3178277,73.7136761 C14.0585354,73.6745376 13.8106585,73.7120453 13.5823508,73.8392453 C13.1648738,74.0724453 13.1436738,74.5812453 13.5415815,74.8470607 C13.7405354,74.9824145 13.9721046,75.0443838 14.2004123,75.1079838 C14.4743815,75.1846299 14.7516123,75.2531222 15.0239508,75.3346607 C15.1446277,75.3705376 15.2604123,75.4259838 15.3761969,75.4781684 C15.9306585,75.7325684 16.2388738,76.1418915 16.2274585,76.7778915 C16.2144123,77.4138915 15.9322892,77.8639838 15.3696738,78.1444761 C14.9097969,78.371153 14.4189354,78.3858299 13.9280738,78.3303838 C13.2545662,78.2537376 12.6511815,78.0042299 12.1374892,77.5084761 C12.2907815,77.2671222 12.45712,77.0649068 12.6560738,76.8953068 C12.8517662,76.9393376 12.9691815,77.0812145 13.1159508,77.1692761 C13.5627815,77.4399838 14.0422277,77.5671838 14.5657046,77.5084761 C14.7271508,77.4905376 14.8771815,77.4448761 15.0109046,77.3551838 C15.3990277,77.0861068 15.3859815,76.5821992 14.9831815,76.3343222 C14.7516123,76.1924453 14.4890585,76.1255838 14.2265046,76.0619838 C13.8873046,75.9788145 13.5513662,75.8923838 13.2284738,75.7570299 C12.6674892,75.5221992 12.3315508,75.1242915 12.3233969,74.4931838 C12.3152431,73.8392453 12.6038892,73.367953 13.1893354,73.0825684 Z M44.4095804,72.9149909 L44.4974954,72.9178607 C44.6687262,72.9357992 44.8415877,72.9211222 44.99488,72.9211222 C45.2606954,73.3451222 47.2143569,77.8346299 47.3007877,78.2260145 C47.00888,78.3026607 46.7153415,78.2847222 46.4185415,78.2374299 C46.1722954,77.8607222 46.0826031,77.4155222 45.84288,77.0225068 L45.84288,77.0225068 L43.3755262,77.0225068 C43.1749415,77.2850607 43.0738338,77.5883838 42.9710954,77.883553 C42.8634646,78.1885068 42.6906031,78.3173376 42.3709723,78.2749376 C42.2339877,78.2569992 42.09048,78.2716761 41.9306646,78.2716761 C41.89968,78.0466299 41.9893723,77.925953 42.0464492,77.798753 C42.6824492,76.3343222 43.3249723,74.8682607 43.9642338,73.4038299 C43.9886954,73.3451222 44.0213108,73.2880453 44.0392492,73.2293376 C44.1110031,73.0042915 44.2496185,72.8933992 44.4974954,72.9178607 Z M1.74170231,72.9468068 L2.74197538,72.9512915 C3.07465231,72.954553 3.40732923,72.996953 3.71717538,73.1257838 C4.33197538,73.3834453 4.67117538,73.8416915 4.71357538,74.5103068 C4.75434462,75.1821838 4.52766769,75.7219684 3.92102154,76.0676915 C3.79871385,76.1394453 3.67151385,76.1997838 3.51006769,76.2845838 C3.89329846,76.9499376 4.40372923,77.5141838 4.81957538,78.2186761 C4.47874462,78.3051068 4.19662154,78.2675992 3.91612923,78.2643376 C3.74652923,78.2627068 3.67640615,78.1240915 3.59486769,78.0099376 C3.29154462,77.5843068 2.97843692,77.1635684 2.69631385,76.7232607 C2.54791385,76.4965838 2.36852923,76.4052607 2.10434462,76.4280915 C1.85646769,76.4476607 1.60206769,76.4085222 1.33788308,76.4655992 C1.23025231,77.046153 1.34440615,77.6169222 1.26449846,78.1991068 C0.99216,78.318153 0.71656,78.2790145 0.395298462,78.2268299 C0.336590769,77.788153 0.374098462,77.3445838 0.367575385,76.9075376 C0.361052308,76.4786453 0.365944615,76.049753 0.365944615,75.6224915 C0.365944615,75.1772915 0.359421538,74.7337222 0.367575385,74.2885222 C0.375729231,73.866153 0.323544615,73.4405222 0.401821538,73.0442453 C0.519236923,72.9300915 0.635021538,72.9496607 0.742652308,72.9496607 C1.40800615,72.9480299 2.07499077,72.9431376 2.74197538,72.9512915 Z M55.4645815,73.0230453 C55.8363969,72.9251992 59.2414431,72.9154145 59.6752277,73.0083684 C59.7616585,73.3524607 59.7616585,73.3524607 59.6899046,73.7715684 C59.19252,73.9118145 58.6641508,73.7552607 58.1586123,73.8645222 C58.0314123,74.0259684 58.0787046,74.2069838 58.0787046,74.3765838 C58.0738123,75.4855068 58.0787046,76.5927992 58.0738123,77.703353 C58.0738123,77.872953 58.1145815,78.0523376 58.0069508,78.2251992 C57.75092,78.3083684 57.4851046,78.2741222 57.2241815,78.2463992 C57.0757815,78.0947376 57.1279662,77.9104607 57.1279662,77.7424915 C57.1247046,76.6351992 57.1279662,75.5262761 57.1263354,74.417353 C57.1247046,74.2461222 57.1475354,74.0683684 57.0627354,73.8677838 C56.5196892,73.7731992 55.9929508,73.8840915 55.4776277,73.7895068 C55.4075046,73.5155376 55.4140277,73.2676607 55.4645815,73.0230453 Z M37.4220769,72.947133 L38.4201077,72.9516176 C38.7854,72.9565099 39.1458,73.0119561 39.4833692,73.1668792 C40.0574,73.4343253 40.3427846,73.895833 40.3868154,74.5138945 C40.4308462,75.1450022 40.2188462,75.6668484 39.6725385,76.0207253 C39.5274,76.1153099 39.3692154,76.185433 39.1718923,76.291433 C39.5844769,76.948633 40.0720769,77.5389715 40.5140154,78.2320484 C40.1601385,78.2956484 39.8796462,78.2679253 39.5991538,78.2646638 C39.4311846,78.263033 39.3545385,78.1342022 39.273,78.0200484 C38.9794615,77.6074638 38.6761385,77.1997715 38.4021692,76.7741407 C38.2390923,76.5197407 38.0548154,76.3876484 37.7449692,76.4267868 C37.5117692,76.4545099 37.2720462,76.4072176 36.9997077,76.4740792 C36.9279538,77.075833 37.0176462,77.648233 36.9377385,78.2222638 C36.6360462,78.2907561 36.3637077,78.2989099 36.0946308,78.2238945 C36.054444,78.0212132 36.0306376,76.7018502 36.0274741,75.4379301 L36.0273197,74.9380974 C36.0290922,74.0373459 36.0422714,73.2504561 36.0685385,73.0396792 C36.1680154,72.9304176 36.3001077,72.9499868 36.4240462,72.9499868 C37.0894,72.9483561 37.7547538,72.9434638 38.4201077,72.9516176 Z M52.8127877,72.9892884 C53.1112185,72.9322115 53.3721415,72.9224268 53.6249108,72.9892884 C53.7211262,73.3953499 53.7260185,77.7951653 53.6346954,78.2191653 C53.4438954,78.3088576 53.2367877,78.2680884 53.0329415,78.2631961 C52.9090031,78.2610217 52.8336253,78.1907174 52.7686361,78.1078502 L52.6741723,77.981073 C52.1099262,77.2570115 51.5489415,76.5296884 50.9863262,75.8039961 C50.7531262,75.5039345 50.5231877,75.2006115 50.2850954,74.9038115 C50.2214954,74.822273 50.1807262,74.7048576 49.99808,74.6967038 C49.9475262,74.9869807 49.9785108,75.2821499 49.9719877,75.5740576 C49.9670954,75.8757499 49.9719877,76.1758115 49.9719877,76.4775038 C49.9719877,76.7612576 49.9785108,77.0466422 49.9687262,77.3320268 C49.9589415,77.6288268 50.01928,77.9305192 49.9100185,78.2256884 C49.63768,78.3039653 49.3783877,78.2762422 49.1239877,78.2436268 C49.0792321,78.0386935 49.0552694,76.9132033 49.0524637,75.7532542 L49.0526723,75.218673 C49.0560994,74.1575231 49.0776014,73.1831687 49.1174646,72.9925499 C49.3229415,72.9126422 49.5447262,72.9550422 49.7632492,72.9534115 C49.9491569,72.9534115 50.0306954,73.1018115 50.1285415,73.2257499 C50.8265108,74.1275653 51.5228492,75.0310115 52.2257108,75.9295653 C52.3692185,76.1122115 52.4882646,76.3209499 52.7279877,76.5052268 C52.8095262,76.1904884 52.7654954,75.9116268 52.7720185,75.6392884 C52.7801723,75.3375961 52.77528,75.0375345 52.77528,74.7358422 C52.77528,74.4504576 52.7703877,74.1667038 52.77528,73.8813192 C52.7818031,73.5975653 52.7459262,73.3121807 52.8127877,72.9892884 Z M25.4929094,72.9218651 L25.7123385,72.9225899 C26.4934769,74.667513 27.2501538,76.4189592 28.0264,78.2062822 C27.7312308,78.313913 27.4670462,78.2666207 27.2093846,78.2600976 C27.0789231,78.2568361 27.0234769,78.1557284 26.9778154,78.0497284 C26.8604,77.7741284 26.7364615,77.5001592 26.6272,77.2212976 C26.5668615,77.0663745 26.4673846,77.0011438 26.3026769,77.0011438 C25.6210154,77.0060361 24.9409846,77.0076668 24.2609538,77.0011438 C24.0734154,76.999513 23.9723077,77.0810515 23.9054462,77.2473899 C23.7994462,77.5115745 23.6738769,77.7692361 23.5711385,78.0350515 C23.5026462,78.2062822 23.3868615,78.2812976 23.2074769,78.271513 C23.0052615,78.2584668 22.7965231,78.3073899 22.6008308,78.2274822 C22.6660615,77.8736053 24.5691692,73.4721592 24.8839077,72.9454207 C24.9458769,72.9388976 25.0241538,72.9242207 25.1008,72.9225899 C25.2899692,72.9193284 25.4807692,72.9225899 25.7123385,72.9225899 Z M17.6139385,73.0145653 C17.9678154,72.8857345 18.3347385,72.9640115 18.6918769,72.9509653 C18.8076615,72.946073 18.9236274,72.9440798 19.039714,72.9435966 L19.7372,72.9477038 C20.1024923,72.9477038 20.4661538,72.9395499 20.8314462,72.9509653 C21.1739077,72.9607499 21.5245231,72.8971499 21.8735077,73.0015192 C21.9403692,73.2624422 21.9371077,73.5086884 21.8767692,73.7712422 C21.3500308,73.9180115 20.8004615,73.7369961 20.2639385,73.8853961 C20.1775077,74.3681038 20.2329538,74.8410268 20.2231692,75.3123192 C20.2133846,75.8031807 20.2248,76.295673 20.2199077,76.7865345 C20.2150154,77.2578268 20.2443692,77.7323807 20.1987077,78.2216115 C19.8937538,78.2917345 19.6181538,78.2933653 19.3490769,78.2297653 C19.2349231,78.055273 19.2789538,77.8775192 19.2773231,77.7062884 C19.2740615,76.613673 19.2756923,75.5194268 19.2756923,74.4251807 L19.2756923,73.8984422 C18.7081846,73.7451499 18.1635077,73.8951807 17.6074154,73.7859192 C17.5666462,73.4989038 17.5568615,73.264073 17.6139385,73.0145653 Z M6.91201538,72.9516176 C8.05518462,72.9516176 9.19509231,72.9516176 10.335,72.9548792 C10.3822923,72.9548792 10.4295846,72.9711868 10.4882923,72.9826022 C10.6334308,73.2158022 10.5714615,73.4604176 10.5388462,73.7360176 C10.0447231,73.8257099 9.55549231,73.7653715 9.07278462,73.7767868 C8.59986154,73.7865715 8.12530769,73.7784176 7.60183077,73.7784176 C7.52192308,74.2627561 7.56432308,74.6834945 7.56921538,75.1515253 C8.44167692,75.2379561 9.29456923,75.1450022 10.1523538,75.2069715 C10.2762923,75.4581099 10.2338923,75.7010945 10.1849692,75.994633 C9.33533846,76.0549715 8.48081538,75.9799561 7.64586154,76.0354022 C7.5366,76.3990638 7.52355385,76.8540484 7.59693846,77.3791561 C7.74696923,77.499833 7.92798462,77.4541715 8.09758462,77.4558022 C8.76293846,77.4606945 9.42829231,77.4558022 10.0952769,77.4590638 C10.2485692,77.4606945 10.4116462,77.4264484 10.5372154,77.5128792 C10.6122308,77.5944176 10.6040769,77.6759561 10.6073385,77.7526022 C10.6106,77.8944792 10.6073385,78.0363561 10.6073385,78.135833 C10.4980769,78.2809715 10.3806615,78.2695561 10.2730308,78.2695561 C9.16247692,78.2711868 8.05518462,78.2711868 6.94463077,78.2695561 C6.85167692,78.2695561 6.75383077,78.2760792 6.67881538,78.2026945 C6.6395022,78.012244 6.61563348,76.7055797 6.61247438,75.4465526 L6.61232774,74.9482412 C6.61412959,74.0494436 6.62744615,73.2597165 6.65435385,73.0380484 C6.72121538,72.9532484 6.81906154,72.9516176 6.91201538,72.9516176 Z M44.5594646,74.1278915 C44.2626646,74.8225992 43.9935877,75.4537068 43.7196185,76.0962299 C44.18928,76.187553 45.0813108,76.1826607 45.4531262,76.0929684 C45.4172492,75.8565068 45.2867877,75.6526607 45.2003569,75.4357684 C45.1122954,75.2139838 45.0193415,74.9954607 44.9166031,74.7818299 C44.8220185,74.5796145 44.7747262,74.3464145 44.5594646,74.1278915 Z M25.2459385,74.2043745 C24.9214154,74.7262207 24.4811077,75.8204668 24.4696923,76.1433592 L24.4696923,76.1433592 L26.1069846,76.1433592 C25.9879385,75.5888976 25.4693538,74.4375745 25.2459385,74.2043745 Z M3.05997538,73.8579992 C2.49736,73.7471068 1.93148308,73.7960299 1.30200615,73.8253838 C1.29385231,74.438553 1.27102154,74.9864915 1.31994462,75.5735684 C1.90212923,75.5947684 2.45169846,75.6110761 3.00126769,75.562153 C3.04692923,75.5588915 3.09259077,75.5393222 3.13825231,75.5230145 C3.57366769,75.3746145 3.78892923,75.0647684 3.76609846,74.629353 C3.74163692,74.2167684 3.51169846,73.9427992 3.05997538,73.8579992 Z M37.8167231,73.7965599 L37.3193385,73.8012484 C37.2084462,73.8012484 37.0942923,73.7930945 36.9801385,73.9202945 C36.9736154,74.4339868 36.9426308,74.9819253 37.0062308,75.5836792 C37.5509077,75.5836792 38.0401385,75.591833 38.5293692,75.5787868 C38.6679846,75.5755253 38.8114923,75.528233 38.9386923,75.4711561 C39.2860462,75.3178638 39.4605385,75.0112792 39.4409692,74.6345715 C39.4197692,74.2611253 39.2045077,73.9822638 38.8294308,73.8778945 C38.6630923,73.832233 38.4886,73.8094022 38.3141077,73.8028792 C37.9830615,73.7914638 37.6503846,73.7979868 37.3193385,73.8012484 Z M9.28462154,64.574193 C9.61566769,64.4747161 9.87659077,64.4779776 10.1277292,64.5464699 C10.23536,64.6655161 10.2108985,64.7992392 10.2108985,64.9215468 C10.21416,65.8086853 10.2108985,66.6958238 10.21416,67.5829622 C10.2157908,67.838993 10.1750215,68.0885007 10.1146831,68.3347468 C9.91572923,69.1256699 9.42486769,69.6361007 8.62252923,69.8252699 C8.17080615,69.9312699 7.70766769,69.9312699 7.25431385,69.8350545 C6.34760615,69.6361007 5.78336,68.9691161 5.67736,67.987393 C5.65942154,67.8292084 5.65942154,67.669393 5.65942154,67.5128392 C5.65779077,66.6893007 5.65779077,65.8641315 5.65942154,65.0422238 C5.65942154,64.8856699 5.64148308,64.7274853 5.69692923,64.5856084 C6.09157538,64.4730853 6.15191385,64.4730853 6.53840615,64.574193 C6.63462154,64.7340084 6.59385231,64.9117622 6.59385231,65.082993 C6.59874462,65.9049007 6.59874462,66.7284392 6.59548308,67.5519776 C6.59385231,67.8096392 6.62809846,68.0591468 6.72757538,68.2939776 C6.94609846,68.8093007 7.39129846,69.0571776 8.04034462,69.0278238 C8.61926769,69.0033622 9.01065231,68.7179776 9.18514462,68.1961315 C9.27157538,67.9368392 9.28299077,67.6677622 9.28299077,67.3970545 C9.28299077,66.6387468 9.28299077,65.8788084 9.28462154,65.1172392 L9.28462154,65.1172392 Z M12.6392769,64.6609499 C13.1692769,64.3690422 13.7433077,64.3886115 14.3108154,64.4799345 C14.7690615,64.5549499 15.1865385,64.7457499 15.5518308,65.0653807 C15.4702923,65.3442422 15.2811231,65.5350422 15.0935846,65.769873 C14.6858923,65.5219961 14.3140769,65.3132576 13.8770308,65.2627038 C13.6487231,65.2366115 13.4302,65.2512884 13.2214615,65.3279345 C12.9817385,65.4127345 12.8170308,65.5774422 12.7942,65.8465192 C12.7681077,66.1155961 12.8985692,66.299873 13.1285077,66.4254422 C13.4106308,66.5771038 13.7188462,66.6488576 14.0270615,66.7255038 C14.3352769,66.8021499 14.6402308,66.8918422 14.9256154,67.0271961 C15.4621385,67.2815961 15.7622,67.6860268 15.7573077,68.2975653 C15.7524154,68.9091038 15.4931231,69.3640884 14.9566,69.6559961 C14.5032462,69.9006115 14.0123846,69.9120268 13.5182615,69.8728884 C12.8170308,69.8174422 12.2054923,69.5467345 11.6738615,69.0705499 C11.7945385,68.7998422 12.0000154,68.6286115 12.1614615,68.4427038 C12.3783538,68.4769499 12.4941385,68.6204576 12.6425385,68.7085192 C13.1056769,68.9824884 13.5965385,69.1276268 14.1412154,69.0428268 C14.3010308,69.0167345 14.4494308,68.9661807 14.5782615,68.8683345 C14.9125692,68.6074115 14.9027846,68.1361192 14.5505385,67.8980268 C14.3108154,67.7333192 14.0286923,67.6697192 13.7530923,67.6012268 C13.3975846,67.5131653 13.0437077,67.4251038 12.7094,67.2767038 C12.1875538,67.0435038 11.8744462,66.6651653 11.8532462,66.0731961 C11.8304154,65.4420884 12.0880769,64.9675345 12.6392769,64.6609499 Z M1.11120615,64.6219745 C1.83363692,64.3023438 2.56585231,64.3773592 3.28339077,64.6643745 C3.51496,64.7589592 3.74652923,64.873113 3.94222154,65.1014207 C3.80197538,65.3476668 3.66499077,65.5564053 3.48886769,65.7374207 C3.32416,65.7276361 3.22142154,65.6167438 3.10074462,65.5498822 C2.80394462,65.3884361 2.49083692,65.2824361 2.15326769,65.2530822 C1.92822154,65.2318822 1.70969846,65.2628668 1.50748308,65.3672361 C1.06554462,65.6036976 1.04108308,66.1434822 1.46834462,66.4044053 C1.75372923,66.5788976 2.08477538,66.6457592 2.40929846,66.7272976 C2.73219077,66.8088361 3.05182154,66.9001592 3.35025231,67.0501899 C3.84437538,67.3013284 4.12812923,67.6845592 4.13302154,68.2569592 C4.13954462,68.8424053 3.91939077,69.3006515 3.41059077,69.6121284 C3.23283692,69.7197592 3.03877538,69.7996668 2.83656,69.8322822 C1.83037538,69.9969899 0.913883077,69.8045592 0.12296,69.1310515 C0.10176,69.1114822 0.0903446154,69.0772361 0.0609907692,69.0348361 C0.18656,68.8032668 0.357790769,68.604313 0.566529231,68.4428668 C0.757329231,68.4885284 0.878006154,68.625513 1.02640615,68.7135745 C1.49117538,68.985913 1.98203692,69.1310515 2.52671385,69.0413592 C2.68652923,69.0152668 2.83329846,68.9630822 2.96212923,68.8636053 C3.29480615,68.5977899 3.27849846,68.1297592 2.92136,67.8949284 C2.68163692,67.7334822 2.39951385,67.6666207 2.12228308,67.5997592 C1.78308308,67.5165899 1.44714462,67.4317899 1.12425231,67.2931745 C0.563267692,67.0534515 0.233852308,66.6588053 0.232221538,66.017913 C0.230590769,65.3623438 0.517606154,64.8845284 1.11120615,64.6219745 Z M45.8477723,64.5003599 L46.8466185,64.504233 C47.1156954,64.5058638 47.3847723,64.5319561 47.6424338,64.6265407 C48.6404646,64.9869407 48.8834492,66.0974945 48.1251415,66.8378638 C48.0599108,66.9014638 47.9588031,66.9373407 47.9424954,67.0531253 C48.0289262,67.1689099 48.1724338,67.2080484 48.2898492,67.2798022 C49.0742492,67.7527253 48.9976031,68.9415561 48.3746492,69.4063253 C48.1137262,69.6003868 47.8218185,69.7292176 47.5054492,69.7650945 C46.5253569,69.8808792 45.5436338,69.8335868 44.5619108,69.8058638 C44.5325569,69.8058638 44.5064646,69.7781407 44.4787415,69.7634638 C44.4348273,69.5772066 44.4120048,68.5258326 44.4096213,67.4146231 L44.4099702,66.9004408 C44.4138602,65.7898803 44.4380888,64.7433737 44.4820031,64.5662022 C44.5945262,64.4862945 44.7249877,64.5026022 44.8489262,64.5026022 C45.51428,64.5009715 46.1812646,64.4977099 46.8466185,64.504233 Z M23.8632092,64.4843376 C24.1649015,64.4370453 24.4307169,64.4484607 24.7503477,64.4761838 C25.5102862,66.212953 26.2751169,67.9627684 27.0481015,69.732153 C26.7708708,69.8903376 26.5001631,69.8185838 26.2408708,69.816953 C26.11204,69.816953 26.0549631,69.7158453 26.0109323,69.6082145 C25.9261323,69.4027376 25.8397015,69.1988915 25.75164,68.9950453 C25.6864092,68.8515376 25.6505323,68.693353 25.5331169,68.5808299 C25.1335785,68.5253838 23.50444,68.523753 23.0315169,68.5824607 C22.9075785,68.862953 22.7575477,69.159753 22.6482862,69.4695992 C22.5488092,69.7598761 22.3677938,69.8675068 22.0758862,69.8299992 C21.9242246,69.8087992 21.7578862,69.8577222 21.5768708,69.7223684 C22.33844,67.9790761 23.10164,66.2292607 23.8632092,64.4843376 Z M40.0352069,64.4488716 L40.1227938,64.453353 C40.2940246,64.4729222 40.4685169,64.4337838 40.6854092,64.4990145 C41.4388246,66.2227376 42.2036554,67.972553 42.9782708,69.7468299 C42.6912554,69.8854453 42.4221785,69.8234761 42.1628862,69.8153222 C42.0095938,69.8104299 41.9639323,69.6767068 41.9133785,69.5592915 C41.7763938,69.2380299 41.6394092,68.9200299 41.5073169,68.6101838 C41.1501785,68.523753 39.58464,68.5041838 38.9812554,68.5759376 C38.7969785,68.8466453 38.6860862,69.1630145 38.5735631,69.4712299 C38.4691938,69.7615068 38.29144,69.8642453 38.0011631,69.8316299 C37.8609169,69.8153222 37.7157785,69.8495684 37.5853169,69.7729222 C37.5309579,69.6968197 37.5440041,69.627965 37.5708212,69.5615262 L37.6146708,69.4630761 C38.2979631,67.8959068 38.9845169,66.3303684 39.6612862,64.7615684 C39.7558708,64.5463068 39.8732862,64.4223684 40.1227938,64.453353 Z M50.4250154,64.5746822 C50.7152923,64.4654207 50.9892615,64.4866207 51.2616,64.5436976 C51.3806462,64.7116668 51.3382462,64.8910515 51.3382462,65.0606515 C51.3431385,66.166313 51.3398769,67.2752361 51.3415077,68.3825284 C51.3431385,68.5537592 51.3137846,68.731513 51.4148923,68.9744976 L51.4148923,68.9744976 L54.0583692,68.9744976 C54.2067692,69.2582515 54.1627385,69.5012361 54.1187077,69.7833592 C53.7142769,69.876313 53.3033231,69.8192361 52.8988923,69.8273899 C52.4879385,69.8371745 52.0769846,69.8355438 51.6644,69.8273899 C51.2583385,69.8224976 50.8490154,69.8648976 50.4250154,69.7882515 L50.4250154,69.7882515 Z M55.6814738,64.5549499 C56.0891662,64.4473192 56.5164277,64.5158115 56.9355354,64.5043961 C57.3627969,64.4913499 57.7916892,64.4946115 58.2189508,64.5027653 C58.64132,64.5109192 59.0685815,64.4619961 59.4762738,64.5386422 C59.5659662,64.9153499 59.5659662,64.9153499 59.4746431,65.3067345 C58.5451046,65.3311961 57.5992585,65.3018422 56.6664585,65.3230422 C56.5376277,65.6557192 56.5196892,66.0813499 56.6077508,66.6977807 C57.0154431,66.7581192 57.4394431,66.7189807 57.8618123,66.7255038 C58.2874431,66.7320268 58.7147046,66.7271345 59.1435969,66.7271345 C59.2789508,66.9929499 59.2365508,67.2375653 59.1892585,67.5196884 C58.7636277,67.5881807 58.3379969,67.5490422 57.9139969,67.5555653 C57.4883662,67.5620884 57.0627354,67.5571961 56.5979662,67.5571961 C56.5376277,68.0611038 56.5506738,68.4851038 56.5783969,68.886273 C56.7072277,69.0379345 56.8588892,68.9987961 56.9942431,68.9987961 C57.6922123,69.0036884 58.3901815,69.0004268 59.0881508,69.0020576 C59.2414431,69.0020576 59.4012585,68.9841192 59.5349815,69.0411961 C59.6360892,69.1716576 59.6051046,69.3021192 59.6083662,69.4244268 C59.6132585,69.5353192 59.6197815,69.6478422 59.5692277,69.7522115 C59.2235046,69.8500576 56.2196277,69.8696268 55.6977815,69.776673 C55.5999354,69.4325807 55.5803662,65.0996268 55.6814738,64.5549499 Z M28.5971692,64.5617992 C28.8841846,64.4753684 29.1402154,64.4818915 29.3929846,64.5471222 C29.4402769,64.7346607 29.4675923,65.9210453 29.4720769,67.1208838 L29.4725928,67.6330511 C29.4707956,68.6475417 29.4519253,69.5684937 29.4141846,69.7753684 C29.1565231,69.8601684 28.8956,69.8471222 28.5906462,69.7753684 C28.5368308,69.3383222 28.5710769,68.8980145 28.5645538,68.4593376 C28.5580308,68.0337068 28.5629231,67.6048145 28.5629231,67.177553 C28.5629231,66.7356145 28.5580308,66.2904145 28.5645538,65.8484761 C28.5694462,65.4261068 28.5368308,64.9988453 28.5971692,64.5617992 Z M19.7008338,64.5026022 C20.1721262,64.5123868 20.6450492,64.4569407 21.1065569,64.5417407 C21.19788,64.907033 21.19788,64.907033 21.1326492,65.3163561 C20.6173262,65.4549715 20.0710185,65.2821099 19.5035108,65.4305099 C19.4676338,66.8688484 19.5084031,68.3055561 19.48068,69.7471561 C19.1773569,69.8694638 18.9050185,69.8482638 18.6375723,69.7781407 C18.5380954,69.6003868 18.5739723,69.4242638 18.5739723,69.2514022 C18.5707108,68.1424792 18.5739723,67.0351868 18.56908,65.9262638 C18.56908,65.7566638 18.6082185,65.5772792 18.4859108,65.4060484 C17.9852646,65.3049407 17.4585262,65.4256176 16.9317877,65.331033 C16.8372031,65.076633 16.8632954,64.8320176 16.9122185,64.5498945 C17.3835108,64.4553099 17.8548031,64.5123868 18.3228338,64.5026022 C18.7827108,64.4928176 19.2425877,64.4928176 19.7008338,64.5026022 Z M31.4722154,64.5732145 C31.6135487,64.4938504 31.7664786,64.4905889 31.9213413,64.5001319 L32.1538769,64.5161376 C32.3169538,64.5193992 32.3952308,64.6531222 32.4816615,64.7656453 C32.7654154,65.1276761 33.0459077,65.4897068 33.3280308,65.8549992 C33.7928,66.4551222 34.2559385,67.0585068 34.7256,67.6569992 C34.8201846,67.7793068 34.8968308,67.9244453 35.1349231,68.0549068 C35.1398154,66.8546607 35.1447077,65.7229068 35.1496,64.5813684 C35.4447692,64.463953 35.7024308,64.4900453 35.9829231,64.5503838 C36.0856615,64.993953 36.0204308,65.4375222 36.0334769,65.8745684 C36.0448923,66.3034607 36.0351077,66.732353 36.0351077,67.1596145 C36.0351077,67.6031838 36.0416308,68.0483838 36.0334769,68.491953 C36.0253231,68.915953 36.0758769,69.3415838 35.9976,69.7704761 C35.7872308,69.8634299 35.5817538,69.8259222 35.3795385,69.8128761 C35.2708205,69.8041786 35.2019658,69.741847 35.1425333,69.6679188 L35.0566462,69.5535838 C34.5217538,68.8653992 33.9868615,68.1788453 33.4519692,67.4890299 C33.1616923,67.1123222 32.8730462,66.7356145 32.5778769,66.3621684 C32.5224308,66.2936761 32.4898154,66.1860453 32.3267385,66.1990915 L32.3267385,66.1990915 L32.3267385,69.7362299 C32.0168923,69.8927838 31.7445538,69.8161376 31.482,69.8014607 C31.4419556,69.5957422 31.4204357,68.4823205 31.4174403,67.3318217 L31.4173732,66.8013598 C31.4198697,65.7478516 31.4381504,64.7768795 31.4722154,64.5732145 Z M47.1646185,67.5619253 C46.6150492,67.4885407 46.0638492,67.514633 45.5126492,67.5325715 C45.4702492,67.5342022 45.4262185,67.5684484 45.3495723,67.6026945 C45.3381569,68.0413715 45.3055415,68.489833 45.3821877,68.9823253 C46.0410185,68.9953715 46.6819108,69.0540792 47.3195415,68.9399253 C47.4108646,68.9219868 47.5021877,68.8828484 47.5837262,68.8371868 C47.8087723,68.7116176 47.9180495,68.5159253 47.9180495,68.2550022 C47.9196646,67.9924484 47.7940954,67.8065407 47.5690492,67.6809715 C47.44348,67.6108484 47.3064954,67.5798638 47.1646185,67.5619253 Z M40.2271631,65.7351376 C39.9890708,66.043353 39.4672246,67.2533838 39.3987323,67.6561838 C39.94504,67.739353 40.7587938,67.7197838 41.0604862,67.6154145 C40.9218708,67.1343376 40.4293785,66.0270453 40.2271631,65.7351376 Z M24.2904708,65.7351376 C24.0360708,66.0955376 23.5272708,67.3137222 23.4881323,67.6741222 L23.4881323,67.6741222 L25.1286862,67.6741222 C25.0455169,67.2387068 24.5269323,66.0449838 24.2904708,65.7351376 Z M46.8107415,65.3277715 C46.3851108,65.3114638 45.95948,65.3228792 45.5338492,65.3245099 C45.4702492,65.3245099 45.4131723,65.352233 45.3495723,65.4435561 C45.3332646,65.8284176 45.3120646,66.2491561 45.3740338,66.730233 L45.3740338,66.730233 L46.3613136,66.7307162 L46.3613136,66.7307162 L46.8335723,66.7269715 C47.0080646,66.7237099 47.1760338,66.6633715 47.3228031,66.5687868 C47.7516954,66.2882945 47.7256031,65.6718638 47.2640954,65.4468176 C47.12548,65.3783253 46.9640338,65.3342945 46.8107415,65.3277715 Z M29.6804892,0.000391515927 C45.1515969,-0.0807516162 57.7052585,12.4614945 57.7428452,27.8575868 C57.7786431,42.9797099 45.6016892,55.7730945 29.8403046,55.8350638 C14.1196892,55.7845099 1.91990462,43.0482022 1.92153538,27.9211868 C1.92479692,12.5626022 14.3577815,0.0823253068 29.6804892,0.000391515927 Z M9.54212,36.0946022 C9.64975077,36.3441099 9.71008923,36.5039253 9.78347385,36.6555868 C10.1291969,37.3698638 10.4993815,38.0710945 10.9087046,38.7511253 C12.9504277,42.1496484 15.62652,44.9138022 19.1212585,46.8250638 C23.2487354,49.0820484 27.6730123,50.0197407 32.3696277,49.6185715 C34.26132,49.4554945 36.0861508,49.007033 37.8408585,48.2797099 C37.9990431,48.2144792 38.1719046,48.1704484 38.3268277,48.0236792 C38.2746431,47.9992176 38.2599662,47.9861715 38.24692,47.9878022 C38.18332,47.9959561 38.1213508,48.0024792 38.0610123,48.0187868 C36.2378123,48.5259561 34.3819969,48.8358022 32.4935662,48.9597407 C29.7489815,49.1391253 27.0435354,48.9206022 24.3870123,48.2095868 C21.0667662,47.3175561 18.1542123,45.6525407 15.5449815,43.4428484 C13.2325508,41.4859253 11.3636892,39.1588176 9.87316615,36.5267561 C9.80141231,36.3995561 9.75575077,36.2511561 9.54212,36.0946022 Z M48.7784277,25.7114945 C48.2647354,25.7245407 47.8211662,25.9055561 47.4623969,26.2773715 C46.8557508,26.9068484 46.7856277,28.0125099 47.29932,28.739833 C47.5162123,29.0480484 47.8064892,29.2649407 48.1603662,29.3872484 C48.5093508,29.5079253 48.8632277,29.5307561 49.2334123,29.4443253 C49.5938123,29.3611561 49.8449508,29.0904484 50.16132,28.9126945 C50.3178738,29.799833 49.7095969,30.3135253 48.9855354,30.2939561 C48.5827354,30.2858022 48.1995046,30.2287253 47.8325815,30.0607561 C47.7347354,30.0150945 47.6450431,29.9400792 47.4819662,29.9466022 C47.3792277,30.1276176 47.2487662,30.3167868 47.2096277,30.5353099 C47.2455046,30.584233 47.2601815,30.6201099 47.2846431,30.6315253 C48.1195969,31.0832484 49.0018431,31.1745715 49.90692,30.9152792 C50.5396585,30.7342638 50.9179969,30.287433 51.0500892,29.6416484 C51.1022738,29.3774638 51.1332585,29.1100176 51.1332585,28.8393099 C51.1283662,27.9994638 51.1332585,27.1596176 51.1283662,26.3197715 C51.1283662,26.1648484 51.1626123,26.0034022 51.0582431,25.8338022 C50.7940585,25.7734638 50.5184585,25.7816176 50.2281815,25.8338022 C50.20372,25.9691561 50.1841508,26.0914638 50.1482738,26.2920484 C49.7193815,25.9332792 49.2986431,25.6968176 48.7784277,25.7114945 Z M21.1238431,26.7943253 C20.7634431,25.9854638 19.9170738,25.5630945 19.0462431,25.7473715 C17.9927662,25.9691561 17.3127354,26.9786022 17.4741815,28.1185099 C17.5964892,28.9811868 18.0661508,29.5747868 18.9206738,29.8226638 C19.7572585,30.0672792 20.5922123,29.8128792 21.1091662,29.163833 C20.9966431,28.973033 20.8303046,28.8376792 20.6395046,28.7382022 C19.9350123,29.1263253 19.73932,29.185033 19.3414123,29.1344792 C18.8260892,29.0708792 18.4852585,28.7121099 18.4575354,28.1755868 C18.9271969,28.1103561 19.4017508,28.1576484 19.8730431,28.1429715 C20.3443354,28.1282945 20.8172585,28.1772176 21.3227969,28.1070945 C21.3880277,27.6031868 21.3015969,27.1889715 21.1238431,26.7943253 Z M39.9999969,25.7114924 C38.8127969,25.7114924 37.8604277,26.6312484 37.8392277,27.7956176 C37.8212892,28.9583561 38.7638738,29.8960484 39.9592277,29.9042022 C41.1692585,29.9123561 42.1102123,29.0219561 42.12652,27.849433 C42.1444585,26.6426638 41.2165508,25.7098638 39.9999969,25.7114924 Z M32.7854738,25.8011868 C32.1935046,25.6756176 31.6194738,25.7473715 31.0552277,25.9381715 C30.9573815,25.9724176 30.8350738,25.9919868 30.7763662,26.1485407 C30.8187662,26.3458638 30.8367046,26.5806945 31.0307662,26.7486638 C31.1807969,26.7062638 31.3177815,26.6671253 31.4531354,26.6279868 C31.78092,26.5382945 32.1135969,26.5252484 32.4430123,26.5806945 C32.8963662,26.6573407 33.0887969,26.9410945 33.0382431,27.467833 C32.8034123,27.4303253 32.6011969,27.3944484 32.3973508,27.3650945 C31.9978123,27.3047561 31.6064277,27.3471561 31.2280892,27.4759868 C30.6654738,27.6667868 30.3800892,28.0728484 30.3833231,28.655033 C30.3866123,29.227433 30.6883046,29.6334945 31.2541815,29.8128792 C31.8184277,29.9922638 32.3467969,29.9107253 32.8343969,29.5715253 C32.8979969,29.5274945 32.9550738,29.4687868 33.0431354,29.4850945 C33.1246738,29.566633 33.0757508,29.7085099 33.2045815,29.7933099 C33.4426738,29.8112484 33.7052277,29.8406022 34.0036585,29.757433 C34.0003969,28.8556176 34.0330123,27.9733715 33.98572,27.0911253 C33.9824585,27.043833 33.96452,26.9981715 33.9563662,26.9525099 C33.8242738,26.3050945 33.4214738,25.9332792 32.7854738,25.8011868 Z M24.1750123,25.7245407 C23.8015662,25.7163868 23.4542123,25.8028176 23.1443662,26.0213407 C22.5882738,26.4110945 22.4154123,27.4352176 23.2454738,27.8853099 C23.4264892,27.9798945 23.6254431,28.0418638 23.8178738,28.1119868 C24.0412892,28.1918945 24.2728585,28.2506022 24.4897508,28.3451868 C24.7588277,28.4577099 24.8419969,28.5995868 24.7995969,28.8083253 C24.76372,29.0023868 24.6104277,29.1165407 24.33972,29.1410022 C23.9825815,29.1768792 23.6499046,29.0920792 23.3286431,28.9387868 C23.1883969,28.8719253 23.0726123,28.7512484 22.8867046,28.7349407 C22.7219969,28.8735561 22.6241508,29.0692484 22.5246738,29.2616792 C22.8997508,29.6318638 23.4786738,29.8683253 24.0722738,29.8944176 C24.44572,29.9123561 24.7930738,29.8389715 25.12412,29.6595868 C25.7503354,29.3154945 25.95092,28.1804792 25.1257508,27.7303868 C24.8876585,27.5999253 24.63652,27.510233 24.3804892,27.425433 C24.2011046,27.3650945 24.0184585,27.3063868 23.8472277,27.2264792 C23.6009815,27.1106945 23.5178123,26.9786022 23.5487969,26.7975868 C23.5781508,26.6084176 23.7395969,26.4942638 24.0119354,26.4730638 C24.2712277,26.450233 24.5142123,26.5170945 24.7539354,26.6051561 C24.9007046,26.6589715 25.0295354,26.7617099 25.2105508,26.7633407 C25.3719969,26.6182022 25.46332,26.4225099 25.5367046,26.2219253 C25.1763046,25.9186022 24.67892,25.7343253 24.1750123,25.7245407 Z M9.81608923,24.7362945 C9.53722769,24.6743253 9.26488923,24.6449715 9.00559692,24.7574945 C8.88655077,25.0966945 9.03658154,25.4440484 8.89633538,25.7392176 C8.75608923,25.8321715 8.59138154,25.750633 8.45439692,25.8843561 C8.42830462,26.0914638 8.39405846,26.3214022 8.49027385,26.5497099 C8.62562769,26.5725407 8.75119692,26.5937407 8.88492,26.6165715 C8.98439692,26.8236792 8.95178154,27.001433 8.95504308,27.1726638 C8.96156615,27.743433 8.94525846,28.3142022 8.97461231,28.8817099 C9.00722769,29.503033 9.34316615,29.8275561 9.96122769,29.884633 C10.0704892,29.8944176 10.1830123,29.8993099 10.2922738,29.8797407 C10.9250123,29.7655868 10.98372,29.7329715 10.9005508,29.0822945 C10.8972892,29.057833 10.8630431,29.0350022 10.8418431,29.0056484 C10.75052,29.0170638 10.6559354,29.0333715 10.5629815,29.0415253 C10.0248277,29.0806638 9.87642769,28.9502022 9.86827385,28.4087868 C9.86175077,27.9179253 9.86664308,27.4286945 9.86827385,26.937833 C9.86990462,26.8285715 9.85033538,26.7127868 9.95796615,26.6149407 C10.2612892,26.5268792 10.60212,26.6491868 10.9347969,26.5285099 C10.9755662,26.2855253 11.0081815,26.0588484 10.9054431,25.835433 C10.5743969,25.7375868 10.2335662,25.8582638 9.90904308,25.7457407 C9.81119692,25.411433 9.92698154,25.0689715 9.81608923,24.7362945 Z M13.2928892,24.2992484 C13.0140277,24.2470638 12.7514738,24.2389099 12.4236892,24.3171868 C12.4236892,26.1077715 12.4236892,27.8624792 12.42532,29.6171868 C12.42532,29.6824176 12.4514123,29.7411253 12.5443662,29.8014638 C12.7710431,29.799833 13.0368585,29.8438638 13.3091969,29.7688484 C13.3727969,29.6074022 13.3564892,29.4475868 13.3564892,29.291033 C13.3597508,28.7365715 13.3564892,28.1821099 13.3597508,27.6292792 C13.3613815,27.4874022 13.3613815,27.3422638 13.3939969,27.2052792 C13.50652,26.7584484 13.8767046,26.5219868 14.3691969,26.5676484 C14.7801508,26.6051561 15.0361815,26.8693407 15.0851046,27.3178022 C15.1014123,27.4596792 15.0981508,27.6031868 15.0981508,27.7450638 C15.0997815,28.2995253 15.0981508,28.8539868 15.1014123,29.4068176 C15.1014123,29.5307561 15.0769508,29.6628484 15.1862123,29.7818945 C15.4503969,29.8112484 15.7276277,29.8536484 16.0195354,29.7411253 C16.0195354,28.8083253 16.0733508,27.8885715 16.0048585,26.9769715 C15.9216892,25.8598945 14.6904585,25.3380484 13.7641815,25.9756792 C13.6500277,26.0539561 13.5750123,26.1860484 13.3809508,26.2186638 C13.3336585,25.9006638 13.3727969,25.5908176 13.3564892,25.2809715 C13.33692,24.9564484 13.4184585,24.6221407 13.2928892,24.2992484 Z M29.4244585,25.7424792 C28.9521284,25.6944456 28.6359074,25.9389801 28.3444972,26.2268838 L28.1524585,26.4225099 C28.0334123,26.2137715 28.1491969,26.0001407 28.0154738,25.8403253 C27.5604892,25.771833 27.5246123,25.7734638 27.1919354,25.8794638 C27.1652218,26.0819898 27.1512882,26.6399865 27.1486919,27.2746852 L27.1488479,27.7607351 C27.1529485,28.6622217 27.1778021,29.5769612 27.2196585,29.7802638 C27.4740585,29.8291868 27.7366123,29.8177715 28.0350431,29.7835253 C28.0761385,29.6592607 28.0855317,29.5473247 28.0871755,29.4403201 L28.0872277,29.2306945 C28.0953815,28.8018022 28.0774431,28.3745407 28.1116892,27.9489099 C28.1671354,27.2656176 28.5063354,26.8905407 29.1700585,26.7225715 C29.2597508,26.6997407 29.3575969,26.6981099 29.4521815,26.6116792 C29.4978431,26.3360792 29.5223046,26.0441715 29.4244585,25.7424792 Z M36.5231969,28.7871253 C36.2247662,28.7479868 35.9426431,28.7479868 35.6115969,28.7903868 C35.5708277,29.1458945 35.5235354,29.4671561 35.6474738,29.7884176 C35.9605815,29.8161407 36.25412,29.8291868 36.5819046,29.7721099 C36.5704892,29.4263868 36.6650738,29.1051253 36.5231969,28.7871253 Z M45.8691354,25.7473715 C45.6603969,25.6919253 45.49732,25.7685715 45.3358738,25.8256484 C45.1727969,25.8859868 45.0358123,25.9968792 44.90372,26.1126638 C44.7846738,26.2186638 44.7357508,26.4029407 44.5612585,26.4649099 C44.4764585,26.2414945 44.5824585,26.0213407 44.4389508,25.8191253 C44.1845508,25.7897715 43.9252585,25.7702022 43.6154123,25.8452176 C43.6137815,26.2969407 43.61052,26.7372484 43.61052,27.1759253 C43.61052,27.6031868 43.6023662,28.0304484 43.6121508,28.4560792 C43.6235662,28.8931253 43.5632277,29.3350638 43.6578123,29.778633 C43.9301508,29.8242945 44.1780277,29.8177715 44.4878738,29.7802638 C44.5482123,29.375833 44.5172277,28.9974945 44.5204892,28.6224176 C44.52212,28.3207253 44.5204892,28.019033 44.5922431,27.7254945 C44.7178123,27.2069099 45.0178738,26.853033 45.5592892,26.7339868 C45.6767046,26.7078945 45.8136892,26.7193099 45.9196892,26.5904792 C45.9229508,26.3148792 45.9898123,26.0197099 45.8691354,25.7473715 Z M32.1020185,27.9418976 C32.3727262,27.910913 32.6385415,27.9663592 32.8978338,28.0266976 C33.1033108,28.0723592 33.1522338,28.1604207 33.1359262,28.3691592 C33.1065723,28.7116207 32.9369723,28.9611284 32.6222338,29.1062668 C32.4510031,29.1878053 32.2667262,29.2350976 32.0906031,29.2285745 C31.9470954,29.2302053 31.8231569,29.2171592 31.7041108,29.1698668 C31.4252492,29.0638668 31.2768492,28.8714361 31.2768492,28.6088822 C31.2768492,28.3463284 31.4236185,28.1294361 31.6878031,28.0315899 C31.8198954,27.9842976 31.9634031,27.9582053 32.1020185,27.9418976 Z M39.9962462,26.5314453 C40.7007385,26.5379684 41.2193231,27.0956915 41.2128,27.8344299 C41.2062769,28.5780607 40.6697538,29.1227376 39.9636308,29.0999068 C39.2672923,29.0787068 38.7633846,28.5128299 38.7780615,27.7659376 C38.7927385,27.0320915 39.2917538,26.5232915 39.9962462,26.5314453 Z M49.0386985,26.490006 C49.7007908,26.4932853 50.2046985,26.975993 50.2030716,27.6087315 C50.2014369,28.2382084 49.6910062,28.7160238 49.0256523,28.7078699 C48.3505138,28.7013468 47.8873754,28.2316853 47.9004215,27.5679622 C47.9134677,26.933593 48.38476,26.4867622 49.0386985,26.490006 Z M19.4359969,26.4750207 C19.99372,26.4848053 20.3622738,26.882713 20.3671662,27.5219745 C19.8811969,27.5219745 19.3952277,27.5252361 18.9108892,27.5219745 L18.9108892,27.5219745 L18.7228681,27.5259667 C18.6290923,27.5268668 18.5361385,27.5200176 18.44612,27.4779438 C18.4493815,26.882713 18.8603354,26.4668668 19.4359969,26.4750207 Z M41.6421815,9.59949454 C37.0727662,6.77826377 32.0972892,5.68238685 26.7581508,6.27761761 C24.9316892,6.48146377 23.1802431,6.967433 21.5021815,7.71106377 C21.35052,7.77955608 21.1776585,7.815433 21.0586123,7.97035608 C21.2216892,8.01112531 21.35052,7.93121761 21.4809815,7.89207915 C25.0947662,6.84512531 28.7656277,6.56626377 32.4968277,7.04407915 C34.8777508,7.349033 37.1412585,8.03232531 39.2840892,9.11352531 C43.7572892,11.3688792 47.2128892,14.6989099 49.7438431,19.0074022 C49.8319046,19.157433 49.8906123,19.3254022 50.0781508,19.4102022 C50.0422738,19.3237715 50.0112892,19.2357099 49.9688892,19.1541715 C49.6590431,18.5654638 49.3671354,17.9669715 49.0328277,17.3896792 C47.1867969,14.2096792 44.7863046,11.5368484 41.6421815,9.59949454 Z" id="Combined-Shape" fill="#FFFFFF"></path>
    </g>
</svg>