<?xml version="1.0" encoding="UTF-8"?>
<svg width="116px" height="67px" viewBox="0 0 116 67" version="1.1" xmlns="http://www.w3.org/2000/svg" xmlns:xlink="http://www.w3.org/1999/xlink">
    <title>sf_logo-profit-for-purpose</title>
    <g id="sf_logo-profit-for-purpose" stroke="none" stroke-width="1" fill="none" fill-rule="evenodd">
        <path d="M60.6235967,26.30309 C78.5764434,23.1108479 97.0518033,20.319189 115.165316,27.3608009 C111.616839,31.4901253 107.9073,36.1831625 104.127512,41.3234003 C103.939037,41.5769854 103.915049,41.9179545 104.064116,42.1989542 C107.777081,49.1468424 111.414656,56.2951999 114.89117,63.4726854 C95.6786744,56.3277547 76.2828435,59.8025555 57.5021277,63.1625577 L57.5021277,63.1625577 L56.1025791,63.4128859 L56.1025791,63.4128859 L54.7007934,63.6626326 C36.6972584,66.8597005 18.1643738,69.6657201 -3.7658765e-13,62.5560096 C3.11155733,57.9040943 6.3516206,52.7707101 9.64137284,47.2792226 C9.78529951,47.0410583 9.79729339,46.7446379 9.6756411,46.4927662 C6.47498631,39.9029813 3.33258756,33.1778367 0.322121574,26.4681129 C19.5620319,33.6490252 38.9887043,30.172511 57.7934079,26.809082 L57.7934079,26.809082 L59.2073684,26.5557695 L59.2073684,26.5557695 Z M22.277791,36.496717 L22.2143947,36.6851924 C22.1287241,36.9387774 22.0841753,37.1992162 22.0841753,37.4647951 C22.1595655,40.6106207 21.9402487,43.7393121 21.7277855,46.7669123 C21.6147003,48.3706665 21.4999016,50.0275365 21.4313651,51.6398578 C21.4262249,51.6706992 21.364542,51.7495162 21.3199933,51.811199 C21.1812069,51.9911073 20.9704571,52.2686802 20.9721705,52.6679053 C20.8899267,53.3258558 21.0098656,53.7182273 21.3148531,54.3144949 C21.2840116,55.2003292 21.2360361,55.8068773 21.1863471,56.3945778 C21.1075301,57.3660828 21.0389936,58.2056549 21.0869692,59.979037 C21.1332313,60.8597311 21.6918038,61.7421386 22.6650222,61.7421386 C22.6821563,61.7421386 22.7010039,61.7455654 22.7215648,61.7421386 C23.0248389,61.7421386 23.2116008,61.6119192 23.3178324,61.5022608 C23.6810759,61.116743 23.619393,60.4039633 23.5679907,59.8282567 C23.55257,59.6517752 23.5371492,59.4975681 23.5457163,59.3861962 L23.5457163,59.3861962 L23.8078684,54.2168304 C27.0787731,51.5524737 28.8127467,48.0828132 28.963527,43.8986595 C29.0817525,39.997219 26.1775181,38.6127816 24.8530501,38.3472026 C24.8136416,36.6971863 23.8781184,36.5429791 22.4765468,36.5035706 L22.4765468,36.5035706 L22.277791,36.496717 Z M47.1599691,34.2572867 C46.9680669,34.2350123 46.8258536,34.2572867 46.6682197,34.2881281 C46.2073117,34.358378 45.7995195,34.5725546 45.5836295,34.8809689 C45.3077701,35.4292609 45.2854957,36.7314545 45.2872091,37.0929846 C44.8468621,42.2160883 44.5315941,47.4539907 44.2266067,52.5205519 L44.2266067,52.5205519 L44.0192838,55.9576576 C43.8890644,57.910948 44.1083812,59.1634526 44.6686672,59.6774764 C44.8605694,59.8522445 45.0953069,59.9464822 45.37802,59.9464822 C45.4482699,59.9464822 45.5253735,59.9396285 45.6041904,59.9259212 C45.6298916,59.9224944 45.6624465,59.9156407 45.7121354,59.9087871 C46.2981226,59.821403 46.7470367,59.6809032 46.7470367,58.7882152 C46.7470367,58.3358743 46.6990611,57.9178016 46.6510856,57.5134362 C46.60311,57.1107843 46.5551345,56.6927116 46.5551345,56.2455109 C46.5551345,54.950171 46.6785002,53.1699352 46.7881586,51.5970224 L46.7881586,51.5970224 L46.8052927,51.3691386 C47.9532792,53.3190021 49.2417655,55.3339754 50.1755753,55.8103041 C50.5388188,56.0399014 51.349263,55.9131088 51.4435007,55.8959747 C51.9198294,55.8103041 52.192262,55.6526701 52.2727924,55.4145058 C52.3053472,55.3185547 52.3327618,55.1197988 52.142573,54.9056222 C51.3955251,53.9752392 50.2321179,52.1727291 49.9117098,51.5130652 C49.7900575,51.2491997 49.447375,50.6854869 49.0481498,50.0343901 C48.5786748,49.2667813 47.8093525,48.0091364 47.7134014,47.6681673 C47.7733708,47.5876369 47.9155841,47.4231493 48.0543705,47.2655153 C49.0772778,46.0884009 51.4726287,43.3366602 51.4726287,39.6099877 C51.4726287,36.9918932 49.6307101,35.3829988 47.907017,34.9872005 C47.8727488,34.9803468 47.7973586,34.839847 47.7613769,34.769597 C47.6551454,34.5725546 47.4975114,34.270994 47.1599691,34.2572867 Z M40.3834222,35.9946871 C40.1486846,35.8147788 39.8865325,35.7445288 39.6295206,35.7942178 L39.6295206,35.7942178 L39.6192401,35.7976446 C39.2080211,35.8918823 38.9784238,35.9981139 38.6340279,36.2568392 L38.6340279,36.2568392 L38.5175158,36.3459367 L38.5260829,36.4898633 C38.7950887,40.4752611 37.7396265,53.7473553 36.2044088,57.292406 C36.0604821,57.6230946 35.993659,57.6008203 35.9576774,57.6299483 C35.9268359,57.6230946 35.8822872,57.6128142 35.8257446,57.6128142 C35.042715,57.1621867 34.8096909,48.908678 35.6766777,38.8972081 L35.6766777,38.8972081 L35.7229398,38.7292936 C35.7914763,38.4842756 35.8377385,38.3146478 35.8360251,38.1844284 C35.8171775,37.8982885 35.719513,37.6823985 35.5447449,37.5316182 C35.3425622,37.3568501 35.0512821,37.2797465 34.6640508,37.3242953 C34.5149839,37.3362892 34.3676304,37.3602769 34.2254172,37.3842647 C34.1089051,37.4031123 33.9975333,37.4236732 33.8724542,37.4339537 C33.091138,37.564173 32.7193275,38.3300685 32.8769615,39.4917622 C32.347517,44.3081651 32.0219686,51.0847121 32.6884861,55.7057859 C33.0277418,58.3958437 34.1585941,59.8556713 35.9011347,59.8556713 C36.0056529,59.8556713 36.1135979,59.8488177 36.2232563,59.8385372 C37.0079993,59.7185983 37.837291,58.9715504 38.1851138,58.3255938 C39.838557,55.4247863 40.3423003,49.6951344 40.6421475,46.271736 C40.6969767,45.6497672 40.7449522,45.1014752 40.7929278,44.6559879 C40.9865434,42.4508258 41.2178541,39.270732 40.9865434,37.1323931 C40.9539886,36.7040399 40.7123974,36.2499856 40.3834222,35.9946871 Z M57.9441882,33.1195807 C57.536396,32.7683311 56.9041467,32.7991725 55.9549161,32.9705138 L55.9549161,32.9705138 L55.7955687,32.996215 L55.7458798,33.1538489 C55.6602091,33.427995 55.6190872,33.6884337 55.6190872,33.9540126 C55.6944774,37.0758504 55.4734472,40.2542309 55.260984,43.3263797 C55.1496122,44.9541217 55.0331001,46.6366929 54.9645636,48.2695751 C54.9611368,48.3072702 54.8926003,48.410075 54.8429113,48.4871785 C54.6989847,48.7047819 54.5036556,49.0063426 54.505369,49.3935738 C54.4231252,50.0703718 54.5499178,50.4558896 54.8463381,50.9733402 C54.8172101,51.8574612 54.7675212,52.4725763 54.7195456,53.0688439 C54.6407286,54.0591964 54.5721921,54.9159027 54.6201677,56.6824311 C54.6475823,57.2118756 54.8720393,57.6864909 55.2215755,57.948643 C55.4357521,58.1114172 55.6859103,58.1919476 55.9549161,58.1919476 C56.0611477,58.1919476 56.1708061,58.1782403 56.2804645,58.155966 C57.2673902,57.9811979 57.162872,56.8177907 57.1011892,56.1204318 C57.0857685,55.9473771 57.0703477,55.7965968 57.0789148,55.685225 L57.0789148,55.685225 L57.3410669,50.4421823 C60.6616606,47.0993143 62.349372,43.448032 62.4967255,39.2775857 C62.5447011,37.6909656 62.0735126,36.3836317 61.1328491,35.496084 C60.2949903,34.702774 59.2035465,34.358378 58.3845352,34.3446707 C58.3656877,33.7466897 58.2269013,33.3611719 57.9441882,33.1195807 Z M70.9507034,30.1125415 C70.6063075,29.8640967 70.2293567,29.7578651 69.8678266,29.8178346 C69.2561383,29.906932 68.7575353,30.4637911 68.5330782,31.2999365 C67.5838476,34.9940541 66.6157695,38.9263361 66.1068859,42.8654717 C65.7145144,45.9067791 65.3735453,49.1091473 65.8755752,51.8369002 C66.0126482,53.0585634 66.5249586,54.1534341 67.2497321,54.771976 C67.6403902,55.3014205 68.3086211,55.4145058 68.9837057,55.4145058 C69.0985044,55.4145058 69.213303,55.411079 69.3281017,55.4076521 C70.7776487,55.224317 71.5641051,54.0163611 72.037007,53.1048256 C73.4111639,50.0069755 73.7384258,46.0781204 74.0022913,42.9185875 L74.0022913,42.9185875 L74.0194254,42.721545 C74.2010472,40.3964441 74.2404557,37.0861309 73.3940298,34.5262925 C73.0102254,33.0973063 72.2220556,32.5781423 71.0723557,32.0486978 C71.0946301,31.995582 71.1169044,31.9493199 71.1374654,31.8996309 C71.1837275,31.7882591 71.2299897,31.6786007 71.3070932,31.5141131 C71.6412087,30.7516444 71.4081846,30.5031996 70.9507034,30.1125415 Z M83.3923824,29.305952 L83.2135976,29.308951 C80.3778997,29.5762434 77.1275559,34.7336154 77.1669644,37.2197771 C77.2714826,39.9338227 78.469158,41.4193514 79.528047,42.7352523 C80.4601435,43.8935193 81.342551,44.9866765 81.3939534,46.7909 C81.4316484,48.3997945 80.7085883,51.6604187 78.8649563,51.9174306 C78.5308409,51.9516989 78.2858229,51.9174306 78.1196218,51.6792663 L78.1196218,51.6792663 L78.0168171,51.5301994 L77.8386222,51.5696078 C77.3588666,51.6775528 77.0418853,52.2361254 76.8465563,52.6507712 L76.8465563,52.6507712 L76.8071478,52.7347284 L76.8277087,52.8238259 C77.0316048,53.7387882 77.8780307,54.3744643 78.8238344,54.3744643 C78.9232124,54.3744643 79.0243037,54.3676107 79.1253951,54.3504765 C82.0330563,53.9426843 83.8955358,49.5083725 83.8544139,46.7514915 C83.7413287,43.7016171 82.3534644,42.0121922 81.2380328,40.6568828 C80.3898936,39.6219816 79.6582664,38.7327205 79.627425,37.4939231 C79.5520348,35.359011 81.6184104,32.1857708 83.7755969,31.9253321 C83.9417979,31.9887284 84.1062856,32.0127161 84.253639,32.0092893 C84.8361993,31.9750211 85.274833,31.5278204 85.274833,30.9589674 C85.2559854,30.5408947 85.0555162,30.1416695 84.7128336,29.8366821 C84.3050414,29.4700118 83.7481823,29.2746828 83.2135976,29.308951 Z M70.3311334,34.7152819 C71.1981202,35.4948846 71.5802112,38.5104908 71.3540407,42.979071 C71.1312971,46.7914141 70.3037188,51.7500302 69.2054213,53.4326014 L69.2054213,53.4326014 L69.1814335,53.4822904 C69.1642994,53.5234123 69.1283177,53.5576805 69.0734885,53.5799549 C68.1379653,52.7163949 67.9734776,49.0342712 68.622861,43.4142778 C69.0614947,40.1982023 69.5909392,37.4995774 70.3311334,34.7152819 Z M90.4990281,29.6841884 C90.0860956,29.6841884 89.4418525,30.0542855 89.3835964,30.5734495 C89.2585173,31.5980703 89.128298,32.6209776 88.9980786,33.6455984 C88.3743964,38.5408182 87.7301533,43.6022391 87.7301533,48.6790807 C87.7301533,50.0532377 87.9186287,51.8780221 88.8096032,52.7672833 C89.1642796,53.1219597 89.6011998,53.3035814 90.1117968,53.3035814 L90.1117968,53.3035814 C90.7029242,53.2898741 91.9502886,52.791271 93.156531,52.3098021 C93.7647925,52.0647841 94.3404992,51.8334734 94.6831817,51.7306686 C94.8699437,51.7272418 95.0515654,51.6467114 95.2091994,51.4959311 C95.4953393,51.2217851 95.6461196,50.7900051 95.6461196,50.5055786 C95.6461196,49.5889028 94.6780415,49.5409273 94.3199382,49.5255066 C93.9601216,49.5015188 93.2010798,49.6985613 92.0959286,50.0104024 C91.5219354,50.1714631 90.8828325,50.3513715 90.5367231,50.4044873 C90.461333,50.1371949 90.3945099,49.3970006 90.4184977,47.5139602 L90.4184977,47.5139602 L90.4202111,47.2329605 C90.4202111,45.7662793 90.5641377,43.9226473 90.6498084,42.9631362 C90.6618023,42.8620449 90.8297167,42.8055023 91.1038627,42.721545 L91.1038627,42.721545 L91.1998138,42.6907036 C91.7909412,42.4902343 92.3992027,42.3668686 92.9886166,42.2469297 C93.5694635,42.1287043 94.1708713,42.0087654 94.7808462,41.8048693 C95.1646506,41.6575158 95.3377053,41.2257358 95.3377053,40.8881935 C95.3377053,40.034914 95.0944007,39.8875606 94.3079443,39.8464387 C93.5985915,39.8293045 92.9235069,39.8909874 92.2706967,39.9509568 C91.8029351,39.9937921 91.3557344,40.034914 90.9119605,40.0469079 C91.2186614,37.1186858 91.5459232,34.6599386 91.9125935,32.543874 C92.0428128,32.5507277 92.176459,32.5610082 92.3066784,32.5712886 C92.4917269,32.584996 92.6699219,32.5987033 92.8361229,32.6055569 C93.4495246,32.6175508 95.5364612,32.5952764 96.2800823,31.8653626 C96.4702711,31.6786007 96.5679356,31.4609973 96.5679356,31.2125524 C96.5679356,30.6265653 96.2560945,30.014877 95.6615403,29.9737551 C95.1423763,29.9412003 94.6317793,29.9514807 94.1383165,29.9583344 C93.745945,29.965188 93.3570003,29.9737551 92.9629154,29.9583344 C92.5328489,29.9446271 92.1096359,29.877804 91.6984169,29.8144077 C91.2786308,29.7475846 90.8811191,29.6841884 90.4990281,29.6841884 L90.4990281,29.6841884 Z M24.582845,41.2440693 C26.0049774,41.5165019 26.3459466,42.7330249 26.3733612,43.7370847 C26.4076294,46.3363317 25.4566854,49.0795053 23.9129006,50.9419848 C23.9474862,50.2708982 23.9867725,49.5821251 24.0288443,48.8929451 L24.0805451,48.0668396 C24.2565209,45.3198761 24.4648099,42.67699 24.582845,41.2440693 Z M58.1482556,37.2583289 C58.6160173,37.2583289 58.9946815,37.3851214 59.2739677,37.6335663 C59.7674306,38.0756267 59.8907963,38.8363819 59.906217,39.4000947 C59.9387718,41.9650734 58.992968,44.874448 57.4508967,47.041915 C57.6393721,43.383779 57.9649205,39.1876315 58.1191276,37.2600423 C58.1294081,37.2600423 58.1396886,37.2583289 58.1482556,37.2583289 Z M47.6930118,37.9644262 C48.4503402,38.2848344 48.8444251,39.3334429 48.8444251,40.3032345 C48.8444251,41.6242756 48.1779076,43.606694 47.1395795,44.8643389 C47.1995489,44.1121507 47.2526647,43.3599626 47.3057805,42.606061 C47.4137255,41.0931177 47.5233839,39.5304854 47.6930118,37.9644262 Z M45.9062651,7.10542736e-14 C49.4410353,7.10542736e-14 51.2092772,1.76652842 51.2092772,7.06440026 L51.2092772,7.06440026 L51.2092772,17.8708937 C51.2092772,23.1704789 49.4410353,24.9352939 45.9062651,24.9352939 C42.3714948,24.9352939 40.6049664,23.2047472 40.6049664,17.8708937 L40.6049664,17.8708937 L40.6049664,7.06440026 C40.6049664,1.73054675 42.3714948,7.10542736e-14 45.9062651,7.10542736e-14 Z M61.6662344,0.10314744 C62.1973923,0.10314744 62.3738738,0.281342353 62.3738738,0.812500267 L62.3738738,0.812500267 L62.3738738,2.72124193 C62.3738738,3.24897302 62.1973923,3.42716793 61.6662344,3.42716793 L61.6662344,3.42716793 L57.6248437,3.42731162 C57.0348801,3.42961058 57.0348801,3.46869299 57.0348801,4.13309394 L57.0348801,4.13309394 L57.0348801,9.43096577 C57.0348801,10.1368918 57.0348801,10.1368918 57.7425195,10.1368918 L60.5713638,10.1368918 C61.1008083,10.1368918 61.2772898,10.3133733 61.2772898,10.8428178 L61.2772898,10.8428178 L61.2772898,12.749846 C61.2772898,13.2792905 61.1008083,13.455772 60.5713638,13.455772 L60.5713638,13.455772 L57.6248437,13.4559157 C57.0348801,13.4582147 57.0348801,13.4972971 57.0348801,14.161698 L57.0348801,14.161698 L57.0348801,24.1251925 C57.0348801,24.8311185 56.6819171,24.8311185 56.3289541,24.8311185 L56.3289541,24.8311185 L54.2077493,24.8311185 L54.2077493,24.8311185 L54.0674007,24.8294451 C53.7669377,24.8185687 53.5018233,24.736995 53.5018233,24.1251925 L53.5018233,24.1251925 L53.5018233,0.812500267 C53.5018233,0.281342353 53.6783048,0.10314744 54.2077493,0.10314744 L54.2077493,0.10314744 Z M20.1130654,0.103832805 C23.6478357,0.103832805 25.4160775,1.87036122 25.4160775,7.16823306 L25.4160775,7.16823306 L25.4160775,9.57043756 C25.4160775,14.8357546 23.6478357,16.602283 20.1130654,16.602283 L20.1130654,16.602283 L18.9350721,16.6024267 C18.346537,16.6047256 18.346537,16.643808 18.346537,17.308209 L18.346537,24.1241644 C18.346537,24.6536089 18.1340739,24.8318038 17.6388976,24.8318038 L17.6388976,24.8318038 L15.5194062,24.8318038 C14.95398,24.8318038 14.8117668,24.6536089 14.8117668,24.1241644 L14.8117668,24.1241644 L14.8117668,0.813185632 C14.8117668,0.280314306 14.9882483,0.103832805 15.5194062,0.103832805 L15.5194062,0.103832805 Z M33.0106076,0.103832805 C36.5453779,0.103832805 38.3119063,1.87036122 38.3119063,7.16823306 L38.3119063,7.16823306 L38.3119063,8.54753022 C38.3119063,11.7636057 37.6402486,13.6672072 36.3688964,14.6952547 L36.3688964,14.6952547 L38.2056747,24.0881827 C38.3119063,24.6536089 38.0651749,24.8318038 37.7824618,24.8318038 L37.7824618,24.8318038 L35.4533733,24.8315613 C35.0637728,24.8286507 34.875196,24.7908137 34.7771361,24.2989325 L34.7771361,24.2989325 L33.0808576,15.6119305 L31.9500052,15.6119305 C31.2423658,15.6119305 31.2423658,15.6119305 31.2423658,16.3178565 L31.2423658,24.1241644 C31.2423658,24.8318038 30.8894028,24.8318038 30.5364398,24.8318038 L28.3447251,24.8315941 C28.0165581,24.8286588 27.7075956,24.7846279 27.7075956,24.1241644 L27.7075956,24.1241644 L27.7075956,0.813185632 C27.7075956,0.280314306 27.8857905,0.103832805 28.415235,0.103832805 L28.415235,0.103832805 Z M67.4952642,0.103832805 C68.0247087,0.103832805 68.2011902,0.280314306 68.2011902,0.813185632 L68.2011902,0.813185632 L68.2011902,23.337708 C67.0223623,23.5278968 65.8435344,23.719799 64.6664199,23.9202683 L64.6664199,23.9202683 L64.6664199,0.813185632 C64.6664199,0.280314306 64.8446148,0.103832805 65.3740593,0.103832805 L65.3740593,0.103832805 Z M79.8642186,0.10451817 C80.3936631,0.10451817 80.5701446,0.280999671 80.5701446,0.813870997 L80.5701446,0.813870997 L80.5701446,2.72089925 C80.5701446,3.24863034 80.3936631,3.42682525 79.8642186,3.42682525 L79.8642186,3.42682525 L77.6253379,3.42696894 C77.0353743,3.4292679 77.0353743,3.46835031 77.0353743,4.13275125 L77.0353743,22.1235838 C75.8565464,22.25723 74.6777186,22.4045835 73.5006041,22.5639309 L73.5006041,22.5639309 L73.5004674,4.01536034 C73.49828,3.42682525 73.4610948,3.42682525 72.8289463,3.42682525 L70.6734733,3.42682525 C69.9658338,3.42682525 69.9658338,3.07214884 69.9658338,2.72089925 L69.9658338,2.72089925 L69.9658338,0.813870997 C69.9658338,0.459194584 69.9658338,0.10451817 70.6734733,0.10451817 L70.6734733,0.10451817 Z M45.9062651,3.24863034 C44.310691,3.24863034 44.1562806,4.7485029 44.1413377,6.33797191 L44.139796,6.67942984 L44.139796,6.67942984 L44.139796,18.2561694 L44.139796,18.2561694 L44.1413377,18.5980886 C44.1562806,20.1892711 44.310691,21.6849502 45.9062651,21.6849502 C47.5604268,21.6849502 47.6671469,20.1090189 47.6740321,18.4328173 L47.6740321,6.50216597 C47.6671469,4.82456166 47.5604268,3.24863034 45.9062651,3.24863034 Z M91.1184267,0.660006543 C91.2812009,0.61888464 92.024822,1.00097566 92.0659439,1.20144493 C92.0659439,1.28197533 92.0659439,1.38135326 92.0847914,1.50643238 C92.2064437,3.03479644 90.5153055,6.84028588 89.4889713,7.887181 C89.4084409,7.90774195 89.367319,7.90774195 89.3073496,7.90774195 C89.4272885,7.7244068 89.5283798,7.38172427 89.6294712,7.16240746 C89.9721537,6.23545123 91.3600179,2.91485756 91.2812009,2.00846228 C90.857988,2.45052274 88.2604545,9.07286254 88.3221373,9.57831926 C88.3221373,9.67769719 88.4215153,9.7188191 88.4626372,9.79934949 C88.4626372,9.79934949 88.5020456,9.81819703 88.5020456,9.83875798 C88.8036063,9.83875798 89.1668497,9.77878854 89.4889713,9.7188191 C90.2737143,9.65884965 91.1184267,9.43781942 91.9254441,9.23563674 C92.1670353,9.19622824 92.406913,9.01289309 92.7290346,8.9323627 L92.7290346,8.9323627 L92.7701565,8.99233214 L92.6896261,9.05230158 L92.7701565,9.07286254 L92.7907175,9.17566729 L92.7290346,9.29731959 L92.7907175,9.29731959 L92.8112784,9.33672808 C92.7701565,9.41725847 92.7290346,9.45666696 92.6690652,9.47722792 C92.6090957,9.55775831 92.427474,9.57831926 92.3675045,9.67769719 C91.7832308,10.1403186 90.0920926,10.6252144 89.0657584,10.6252144 L89.0657584,10.6252144 L89.3073496,11.1872137 C89.6705931,11.9942311 89.8916233,13.1610651 90.0920926,14.024625 C90.3148362,15.2325809 90.2343058,17.5285538 89.5900627,18.6765403 C89.1856973,19.339631 88.8036063,20.3265567 87.6573332,20.6486782 C87.5956504,20.6486782 87.5750894,20.6486782 87.5356809,20.6675258 C86.0056035,20.6675258 85.4418907,18.95754 85.3219518,17.6896146 C85.1403301,15.5975378 85.7246038,12.7566997 86.4493773,10.4641536 C86.4682249,10.3407879 86.6498466,9.69825814 86.6909685,9.65884965 C86.6498466,9.61772775 86.4493773,9.53719736 86.4493773,9.47722792 L86.4493773,9.47722792 L86.4493773,9.45666696 C86.5299077,9.41725847 86.6292856,9.43781942 86.730377,9.35728903 C86.8109074,9.29731959 86.8708768,8.97177119 86.9514072,8.87239326 C87.6162113,6.66037756 88.8635757,3.57794824 90.0920926,1.60581031 C90.2343058,1.36250572 90.5153055,1.04038415 90.6163968,0.800506379 C90.6763663,0.738823524 90.878549,0.660006543 91.0378963,0.660006543 L91.0378963,0.660006543 Z M87.9177719,10.6646229 C87.5956504,11.5093353 86.9514072,14.1651249 86.7509379,16.6221586 C86.7509379,16.6615671 86.7714989,16.7232499 86.7714989,16.7420974 C86.8109074,17.1070543 86.7115295,17.5097063 86.7509379,17.8900839 C86.8109074,18.2961627 86.9514072,19.7439964 87.6162113,19.7439964 L87.6162113,19.7439964 L87.6778942,19.7439964 C87.9383329,19.7251488 88.1405156,19.2591006 88.2193326,19.0380704 C88.7847587,17.8095535 89.005789,16.0807202 88.8841367,14.751112 C88.7641978,13.3426868 88.4626372,11.9531092 87.9177719,10.6646229 Z M98.8351232,7.40194254 C98.9362145,7.40194254 99.0355924,7.42250349 99.1161228,7.44306445 C99.4793663,7.50303389 99.6798356,7.68294221 99.6798356,7.84742983 C99.6798356,8.51052051 99.1366838,10.2205063 98.9139402,11.1063406 C99.0355924,10.8664629 99.1572447,10.746524 99.3183055,10.4638109 C99.8614573,9.61738507 100.84667,8.20895989 101.955248,8.20895989 C102.035778,8.20895989 102.095747,8.24836838 102.196839,8.26892933 L102.196839,8.26892933 L102.316778,8.26892933 L102.43843,8.32889877 C102.498399,8.39058163 102.558369,8.57048995 102.539521,8.6304594 C102.57893,8.73155074 102.51896,8.81208113 102.558369,8.87205058 L102.558369,8.87205058 L102.558369,8.93202002 C102.558369,8.97142851 102.51896,9.29697691 102.51896,9.29697691 L102.51896,9.29697691 L102.51896,9.3363854 C102.43843,9.23700747 102.256808,8.85148962 102.2174,8.85148962 C102.075186,8.85148962 101.814748,8.97142851 101.693095,9.07251985 C100.264109,10.020037 99.4982139,11.7728582 98.9550621,13.3029356 C98.7940013,13.7844046 98.7134709,14.2453126 98.4718797,14.6513914 C98.4119103,14.7507693 98.2919714,14.8912691 98.1497581,14.9118301 L98.1497581,14.9118301 L98.0897887,14.8912691 L98.0298192,14.9118301 C97.9886973,14.9118301 97.9698498,14.8518606 97.9081669,14.8518606 C97.3444542,14.4509221 97.1439849,14.4303611 97.1439849,13.7038742 C97.1439849,12.1343882 97.9492888,9.71847641 98.4324712,8.20895989 L98.4324712,8.20895989 L98.6740624,7.44306445 C98.7134709,7.42250349 98.7734403,7.40194254 98.8351232,7.40194254 Z M94.0805745,8.14881911 C94.402696,8.14881911 94.7659395,8.39041029 94.9270003,8.65084901 C94.8464699,8.95240963 94.825909,8.7313794 94.7042567,8.93184868 C95.187439,8.77078789 95.7717127,8.65084901 96.2154866,8.6097271 C96.3354255,8.6097271 96.5975776,8.59087956 96.8391688,8.59087956 C97.1818513,8.59087956 97.5228204,8.63028805 97.6033508,8.81190979 L97.6033508,8.81190979 L97.4028816,8.97125717 L97.4234425,8.99181812 L97.3634731,9.01237907 L97.3823206,9.09290946 C97.3634731,9.09290946 97.3634731,9.111757 97.3634731,9.13574478 C97.3634731,9.13574478 97.4028816,9.21627517 97.4234425,9.21627517 L97.4234425,9.21627517 L97.3823206,9.23683612 C97.2212598,9.21627517 97.060199,9.21627517 96.8991382,9.21627517 C96.275456,9.25568366 95.7323042,9.37733596 95.208,9.49727484 C95.3090913,9.73886602 95.3484998,10.0387132 95.3690608,10.3008654 C95.4101827,10.9862304 95.0469392,12.2541558 94.805348,12.877838 C94.5637568,13.4621117 93.8389833,14.5107202 93.1347707,14.5312811 C92.4099972,14.5312811 91.7451931,14.044672 91.7246321,13.2822033 C91.6046932,11.4282909 93.5579836,8.28931894 93.7995748,8.20878855 C93.8801052,8.16938006 93.9794831,8.14881911 94.0805745,8.14881911 Z M94.2827572,9.69774412 C93.8595442,10.3813958 93.5168617,11.308352 93.4363313,11.4282909 C93.1553317,12.2353082 92.8931795,13.3216118 92.9137405,13.7037028 C92.9343014,13.7636723 92.9343014,13.8236417 92.953149,13.9041721 C93.0336794,13.9041721 93.0542403,13.8442027 93.0748013,13.7842332 C93.7790139,13.0406122 94.443818,10.926261 94.3632876,9.95989625 C94.3632876,9.85880491 94.3221657,9.79883547 94.2827572,9.69774412 Z M20.1130654,3.24965839 L18.9350721,3.24980207 C18.346537,3.25210104 18.346537,3.29118344 18.346537,3.95558439 L18.3466807,12.9264901 C18.3489797,13.4564574 18.3880621,13.4564574 19.052463,13.4564574 L20.1130654,13.4564574 C21.8813073,13.4564574 21.8813073,11.6556607 21.8813073,9.85486406 L21.8812479,6.67548864 C21.8794673,4.9361485 21.8242672,3.24965839 20.1130654,3.24965839 L20.1130654,3.24965839 Z M33.0106076,3.24965839 L31.8323294,3.24980207 C31.2423658,3.25210104 31.2423658,3.29118344 31.2423658,3.95558439 L31.2425099,11.8809966 C31.2448144,12.4695317 31.2839917,12.4695317 31.9500052,12.4695317 L33.0106076,12.4695317 C34.7771361,12.4695317 34.7771361,10.6653082 34.7771361,8.86451156 L34.7770768,6.67548864 C34.7752978,4.9361485 34.7201513,3.24965839 33.0106076,3.24965839 L33.0106076,3.24965839 Z" id="Combined-Shape" fill="#FFFFFF"></path>
    </g>
</svg>