<?xml version="1.0" encoding="UTF-8"?>
<svg width="79px" height="78px" viewBox="0 0 79 78" version="1.1" xmlns="http://www.w3.org/2000/svg" xmlns:xlink="http://www.w3.org/1999/xlink">
    <title>sf_logo-soilasc</title>
    <g id="sf_logo-soilasc" stroke="none" stroke-width="1" fill="none" fill-rule="evenodd">
        <path d="M41.8030831,68.4025216 L44.1171447,77.0325524 L44.1171447,77.0325524 C44.25576,77.5527678 44.1693293,77.678337 43.6442216,77.6930139 C43.3099139,77.7027985 42.9739754,77.7044293 42.6396677,77.7011678 C42.1585908,77.6979062 42.1455447,77.6864909 42.0248677,77.2347678 C41.8715754,76.6737832 41.7248062,76.1111678 41.5698831,75.5518139 C41.5225908,75.3838447 41.5242216,75.1963062 41.3709293,75.0691062 C40.624037,75.0691062 39.9195447,75.0609524 39.2166831,75.0723678 C38.7812677,75.0805216 38.7176677,75.1392293 38.6263447,75.5844293 C38.4975139,76.2236909 38.3800985,76.8645832 38.2692062,77.5071062 C38.2333293,77.7239985 38.1599447,77.8887062 37.9185908,77.8919678 C37.4424062,77.9017524 36.9678524,77.8984909 36.4916677,77.890337 C36.4313293,77.8887062 36.3709908,77.8316293 36.299237,77.7957524 C36.2764062,77.4304601 36.36936,77.0896293 36.4345908,76.7471678 C36.9596985,73.9781216 37.4848062,71.2090755 38.0131754,68.4400293 C38.1240677,67.8594755 38.12896,67.8643678 38.7356062,67.8464293 C39.4939139,67.8252293 40.2505908,67.8513216 41.0088985,67.7958755 C41.5812985,67.7551062 41.6514216,67.8399062 41.8030831,68.4025216 Z M32.3870216,66.9354816 C32.85016,67.0545278 33.2904677,67.2355432 33.7046831,67.4703739 C34.391237,67.8617585 34.8772062,68.5483124 35.0402831,69.3914201 C34.603237,69.7420355 34.0504062,69.9312047 33.628037,70.2475739 C33.3491754,70.1725585 33.3573293,69.9638201 33.2904677,69.8121585 C32.8208062,68.7684662 31.3971447,68.3200047 30.51816,68.9136047 C30.1023139,69.1957278 29.7810524,69.5626509 29.5690524,70.0257893 C29.1450524,70.9488047 28.8759754,71.9272662 28.8776062,72.9350816 C28.879237,74.1206509 29.2640985,75.0126816 30.6975447,75.257297 C30.9894524,75.3062201 31.2780985,75.4105893 31.6254524,75.3029585 C31.8309293,74.8267739 31.9401908,74.3489585 32.0249908,73.8417893 C31.5977293,73.5384662 31.0236985,73.6575124 30.5687139,73.3378816 C30.7480985,72.8258201 30.8964985,72.310497 31.1394831,71.7984355 C31.9369293,71.9240047 32.6870831,72.1066509 33.4323447,72.3023432 C34.2346831,72.5110816 34.3504677,72.3561585 34.0764985,73.4438816 C33.7943754,74.5723739 33.4714831,75.6910816 33.2627447,76.8358816 C33.2268677,77.0348355 33.1306524,77.165297 32.9219139,77.1750816 C31.592837,77.2452047 30.2735447,77.2125893 29.0243754,76.6858509 C27.5811447,76.0775739 26.8163139,74.9311432 26.7217293,73.4096355 C26.61736,71.7250509 26.9810216,70.1040662 27.8926216,68.6624662 C28.8988062,67.0675739 30.554037,66.459297 32.3870216,66.9354816 Z M51.9467939,65.0904293 C53.0508247,68.1758447 54.01624,71.2791985 55.069717,74.371137 C54.7239939,74.6940293 54.2755324,74.7543678 53.8857785,74.9386447 C53.4503631,75.1457524 53.119317,75.0479062 52.74424,74.7445832 C51.1591324,73.4546447 49.5479324,72.1989524 47.9481477,70.9285832 C47.7867016,70.8013832 47.6317785,70.6692909 47.4116247,70.5730755 C47.4311939,70.9563062 47.59264,71.2531062 47.6970093,71.5645832 C48.1943939,73.035537 48.6917785,74.5048601 49.1924247,75.9725524 C49.26744,76.1894447 49.3212554,76.4177524 49.0635939,76.5155985 C48.5596862,76.7063985 48.0623016,76.936337 47.4458708,76.9607985 C47.1523324,76.1046447 46.87184,75.2908909 46.5978708,74.4738755 C46.0646093,72.887137 45.5346093,71.3003985 45.0046093,69.7136601 C44.8138093,69.1445216 44.6262708,68.5753832 44.4354708,68.0095062 C44.3539324,67.7632601 44.4256862,67.5969216 44.6784554,67.5153832 C45.0812554,67.3849216 45.4824247,67.2544601 45.8835939,67.120737 C46.1640862,67.0277832 46.3614093,67.1924909 46.55384,67.3441524 C47.3023631,67.9295985 48.0443631,68.5231985 48.7896247,69.113537 C49.8496247,69.9533832 50.9112554,70.7915985 52.0267016,71.6004601 C51.8081785,70.5893832 51.359717,69.6614755 51.084117,68.6830139 C50.8101477,67.7012909 50.4008247,66.7652293 50.130117,65.7574139 C50.7074093,65.4443062 51.2895939,65.2730755 51.9467939,65.0904293 Z M22.1276893,62.7393493 C23.2447662,63.2546724 24.4156585,63.6917185 25.3696585,64.4973185 C26.6530739,65.5817801 27.0183662,67.1179647 26.1768893,68.6182724 C25.5800277,69.6847955 24.7206124,70.260457 23.4991662,70.2963339 C23.4323047,70.2979647 23.3670739,70.3289493 23.2268277,70.3680878 C23.2268277,71.0627955 23.2300893,71.7607647 23.225197,72.4619955 C23.2219354,73.1615955 23.2088893,73.8611955 23.2007354,74.5135032 C22.991997,74.6667955 22.864797,74.5738416 22.7457508,74.5118724 C22.3266431,74.288457 21.9140585,74.0487339 21.4916893,73.8302109 C21.2731662,73.7176878 21.1851047,73.5562416 21.1932585,73.3197801 C21.2128277,72.6332262 21.1622739,71.9466724 21.2519662,71.2617493 C21.2927354,70.9290724 21.2568585,70.5898724 21.28132,70.2571955 C21.3106739,69.8870109 21.1655354,69.6472878 20.8198124,69.5217185 C20.6583662,69.4613801 20.5164893,69.3341801 20.2735047,69.370057 C19.6538124,70.2099032 19.28852,71.2389185 18.6296893,72.1651955 C18.0051047,71.9189493 17.4066124,71.6351955 16.8472585,71.193257 C18.4486739,68.2937493 20.03052,65.4333801 21.5830124,62.6300878 C21.8504585,62.5746416 21.9874431,62.6741185 22.1276893,62.7393493 Z M39.9815139,69.6239678 C39.7841908,69.6255985 39.7059139,69.664737 39.6896062,69.728337 C39.4140062,70.8829216 39.2721293,72.0635985 39.0372985,73.2801524 C39.7156985,73.205137 40.3402831,73.2931985 40.9942216,73.1529524 C40.6321908,71.954337 40.4055139,70.7540909 39.9815139,69.6239678 Z M55.7166431,63.1568262 C56.1683662,63.8711032 56.6168277,64.5902724 57.0685508,65.3061801 C58.2035662,67.1147032 59.3369508,68.9215955 60.4719662,70.726857 C60.5567662,70.8622109 60.6676585,70.9845185 60.6529816,71.1557493 C60.3431354,71.4786416 59.4217508,72.0510416 58.9439354,72.1880262 C58.5215662,71.5422416 58.099197,70.917657 57.696397,70.2783955 C56.4684277,68.3231032 55.2469816,66.3612878 54.0222739,64.4027339 C53.986397,64.3407647 53.9472585,64.282057 53.9113816,64.2217185 C53.7727662,63.9885185 53.7858124,63.7993493 54.0483662,63.6493185 C54.3989816,63.4454724 54.73492,63.2155339 55.0839047,63.0084262 C55.4443047,62.7964262 55.4964893,62.8111032 55.7166431,63.1568262 Z M22.6609508,64.9800262 C22.1521508,65.9079339 21.6645508,66.7967032 21.1704277,67.7001493 C21.719997,68.1208878 22.2744585,68.3703955 22.8974124,68.4421493 C23.8905508,68.5546724 24.8298739,67.0853493 24.4303354,66.3417185 C24.0340585,65.6078724 23.4078431,65.2751955 22.6609508,64.9800262 Z M17.6153508,58.6325832 C18.2578739,59.1022447 18.7634124,59.7235678 19.09772,60.4655678 C19.56412,61.5092601 19.4711662,62.5447985 18.9558431,63.5232601 C18.0409816,65.2567678 16.7151662,66.5825832 14.8903354,67.3653524 C14.43372,67.5626755 13.9510124,67.6556293 13.4503662,67.6556293 C12.4670124,67.6164909 11.6646739,67.1598755 10.9455047,66.5369216 C10.4318124,66.0933524 10.0404277,65.5486755 9.78602774,64.9175678 C9.33267389,63.8021216 9.52999697,62.7241832 10.0779354,61.7082139 C10.5231354,60.887937 11.1020585,60.1606139 11.8212277,59.5376601 C12.3153508,59.1103985 12.80132,58.683137 13.3786124,58.3683985 C15.0371047,57.4584293 16.2177816,57.6100909 17.6153508,58.6325832 Z M62.9093139,57.5681801 C63.4507293,57.6399339 63.5502062,57.731257 63.488237,58.2563647 C63.4409447,58.6542724 63.5175908,59.0652262 63.3920216,59.4761801 L62.5489139,59.4761801 C62.0874062,59.4761801 61.69276,59.6278416 61.3519293,59.9491032 C60.6360216,60.6209801 60.4468524,61.6434724 60.9670677,62.4898416 C61.5704524,63.4748262 62.3352831,64.324457 63.3333139,64.9359955 C64.3982062,65.5899339 65.5103908,65.405657 66.1936831,64.4695955 C66.5002677,64.0472262 66.8133754,63.6215955 67.1150677,63.1649801 C67.5961447,63.2970724 67.9858985,63.540057 68.385437,63.752057 C68.60396,63.8694724 68.5664524,64.070057 68.4800216,64.2641185 C68.300637,64.6685493 68.0788524,65.0534109 67.8065139,65.4007647 C66.9894985,66.4428262 66.0159293,67.2402724 64.6281447,67.3870416 C63.8991908,67.462057 63.1963293,67.3234416 62.5798985,66.9940262 C61.071437,66.1867955 59.8679293,65.0338416 59.1030985,63.4829801 C58.1849754,61.6157493 58.6627908,59.7843955 60.2315908,58.4439032 C61.007837,57.7801801 61.8705139,57.4311955 62.9093139,57.5681801 Z M14.681597,60.0937524 C14.5723354,60.1491985 14.4598124,60.2046447 14.3587047,60.2747678 C13.5416893,60.8390139 12.82252,61.5011062 12.2370739,62.3132293 C11.99572,62.6459062 11.8375354,63.007937 11.6744585,63.3797524 C11.2635047,64.3190755 12.2354431,65.6546755 13.3574124,65.6122755 C13.5889816,65.6236909 13.81892,65.5454139 14.045597,65.4394139 C15.3632585,64.8083062 16.3449816,63.8037524 17.0592585,62.562737 C17.5191354,61.7603985 17.4408585,61.0086139 16.87172,60.4623062 C16.0856893,59.7039985 15.5638431,59.6469216 14.681597,60.0937524 Z M63.35908,38.123377 C63.6330493,52.0354693 52.33508,63.0790385 38.9660339,62.9947236 C25.5399108,62.9877155 14.7849877,52.1773462 14.6431108,38.9615924 C14.4947108,25.1310385 25.49588,14.3907924 38.7426185,14.2701155 C52.48348,14.1445462 63.1014185,25.1016847 63.35908,38.123377 Z M38.85188,52.5507924 C38.2566493,52.8932539 37.6353262,53.1884232 37.0319416,53.5194693 C35.9344339,54.1228539 34.8189877,54.6871001 33.65788,55.1551309 C31.5916954,55.9884539 29.46028,56.4793155 27.2147108,56.4255001 C26.6537262,56.4108232 26.1025262,56.3162385 25.5154493,56.2559001 C33.566557,62.6077462 45.6375108,62.4756539 53.5760954,55.2904847 C53.5124954,55.3133155 53.4472647,55.3328847 53.3852954,55.3606078 C52.1883108,55.8971309 50.9228339,56.0667309 49.6247416,56.100977 C48.7392339,56.1254385 47.8667724,56.0129155 46.9943108,55.8857155 C45.29668,55.6394693 43.7180954,55.0295616 42.216157,54.235377 C41.3306493,53.7673462 40.4647108,53.2455001 39.6672647,52.6274385 C39.3998185,52.4187001 39.1649877,52.3714078 38.85188,52.5507924 Z M36.6291416,17.2071309 C34.7064647,17.5528539 33.1262493,18.4628232 31.9031724,19.9745462 C30.7485877,21.4031001 30.1223724,23.0811616 29.6836954,24.8440232 C29.2857877,26.4487001 29.26948,28.0925155 29.1536954,29.7249155 C29.0949877,30.5663924 29.0966185,31.4143924 29.0705262,32.2591309 C29.0052954,34.3905462 28.9547416,36.5219616 28.7264339,38.6435924 C28.5959724,39.8552539 28.393757,41.0555001 28.0529262,42.2247616 C27.4446493,44.3023616 26.2835416,46.0081462 24.5320954,47.302977 C23.1345262,48.3385155 21.6358493,48.7168539 19.956157,48.0841155 C19.8322185,48.0384539 19.6936031,47.9732232 19.5272647,48.0678078 C19.6202185,48.9679924 19.8974493,49.8306693 20.4258185,50.5612539 C21.4711416,52.009377 22.8475108,53.0742693 24.5369877,53.6792847 C26.6374185,54.4310693 28.7623108,54.298977 30.8904647,53.7559309 C32.633757,53.3107309 34.2188647,52.5018693 35.7974493,51.6767001 C38.0479108,50.5025462 40.2380339,49.2093462 42.5374185,48.1265155 C44.2627724,47.3143924 46.0191108,46.5854385 47.9222185,46.2755924 C50.1139724,45.9168232 52.1720031,46.242977 54.0865262,47.3812539 C55.2019724,48.0433462 55.932557,48.9924539 56.186957,50.292177 C56.2407724,50.5596232 56.2097877,50.843377 56.3174185,51.1679001 C57.31708,50.3671924 58.1928031,49.5469155 58.5776647,48.3271001 C58.7961877,47.6356539 58.9657877,46.9393155 59.0310185,46.2119924 C59.1304954,45.0900232 59.0326493,43.995777 58.7130185,42.9211001 C58.1993262,41.1908539 57.1996647,39.755777 55.9553877,38.4739924 C54.7681877,37.2492847 53.3869262,36.2773462 51.9567416,35.367377 C49.7552031,33.968177 47.5031108,32.6456232 45.3423416,31.1795616 C43.657757,30.0396539 42.0351416,28.8361462 40.7664031,27.2184232 C39.3215416,25.3756539 38.5420339,23.3208847 38.760557,20.9432232 C38.8502493,19.9500847 39.25468,19.1200232 39.9428647,18.4090078 C40.2624954,18.0795924 40.647357,17.8382385 41.0110185,17.601777 C40.9996031,17.5006693 40.9572031,17.4680539 40.9066493,17.4484847 C40.774557,17.4028232 40.6424647,17.3539001 40.50548,17.3196539 C39.2220647,17.0163309 37.9370185,16.9723001 36.6291416,17.2071309 Z M47.940157,48.5162693 C45.6636031,49.0169155 43.5892647,50.0328847 41.5540647,51.1320232 C41.5426493,51.1385462 41.537757,51.161377 41.5132954,51.2103001 C42.0759108,51.5886385 42.6434185,51.966977 43.2516954,52.2817155 C44.7650493,53.0595924 46.3403724,53.6319924 48.0592031,53.7918078 C49.2806493,53.9059616 50.484157,53.9092232 51.6827724,53.6271001 C52.222557,53.4999001 52.7085262,53.2585462 53.1635108,52.9487001 C53.9707416,52.3942385 54.4387724,50.7275924 53.5173877,49.740977 C53.1896031,49.3903616 52.7704954,49.1522693 52.33508,48.956577 C50.9195724,48.320577 49.4420954,48.1852232 47.940157,48.5162693 Z M68.1711539,43.6689709 C71.2321077,44.5854632 74.3436154,45.5198939 77.4371847,46.4461709 C77.4437077,47.2615555 77.3442308,47.4262632 76.6821385,47.6382632 C75.6743231,47.9611555 74.6583539,48.2595862 73.647277,48.5775862 C71.9154,49.1190016 70.1835231,49.6653093 68.453277,50.211617 C68.3717385,50.2377093 68.2804154,50.2556478 68.1890924,50.3958939 C68.5282924,50.5100478 68.8495539,50.6307247 69.1773385,50.7285709 C71.1228462,51.3009709 73.0667231,51.8701093 75.0106,52.4408785 C75.0954,52.4653401 75.1818308,52.4881709 75.2633693,52.5191555 C75.618877,52.6594016 75.7167231,53.2513709 75.428077,53.5171862 C75.3041385,53.6313401 75.1671539,53.5873093 75.0301693,53.5465401 C74.1153077,53.2839862 73.1874,53.0589401 72.2872154,52.7507247 C70.9679231,52.3022632 69.6127539,51.9761093 68.283677,51.5570016 C67.6118,51.3450016 66.9350308,51.1460478 66.2615231,50.9405709 C66.142477,50.9030632 66.0234308,50.8720785 65.9288462,50.7187862 C65.9011231,50.5247247 65.9973385,50.3665401 66.0348462,50.1969401 C66.0951847,49.9229709 66.2729385,49.8022939 66.5338616,49.7191247 C69.2866,48.8287247 72.0426,47.9595247 74.8100154,47.1213093 C74.9730924,47.0723862 75.1541077,47.0560785 75.3074,46.9060478 C74.1120462,46.5456478 72.9411539,46.162417 71.7523231,45.844417 C70.5259847,45.5133709 69.3273693,45.0942632 68.1042924,44.7518016 C67.8042308,44.6686324 67.7422616,44.5381709 67.8238,44.2348478 C67.8727231,44.0505709 67.9330616,43.8614016 68.1711539,43.6689709 Z M10.6040216,45.9437309 C11.59716,46.931977 11.9657139,48.1795155 12.1891293,49.497177 C12.23316,49.7581001 12.2722985,50.0206539 12.2869754,50.2848385 C12.3081754,50.6697001 12.2462062,50.7381924 11.866237,50.8132078 C11.7292524,50.8393001 11.5890062,50.853977 11.4503908,50.8653924 C11.4226677,50.8670232 11.3916831,50.8311462 11.3313447,50.7969001 C11.2856831,50.1005616 11.21556,49.3879155 11.0361754,48.6883155 C10.848637,47.9528385 10.5126985,47.3070539 10.000637,46.7558539 C9.2570062,45.9584078 8.00946774,46.1296385 7.43543697,47.0950539 C7.26094466,47.3885924 7.16636005,47.7114847 7.13374466,48.0457924 C7.07992928,48.5888385 7.00654466,49.1318847 7.00817543,49.6781924 C7.01143697,50.1380693 6.93642158,50.5914232 6.78639081,51.0301001 C6.45697543,51.9873616 5.73617543,52.4619155 4.77891389,52.6037924 C3.71891389,52.7603462 2.88559081,52.3575462 2.26752928,51.489977 C1.79134466,50.8229924 1.59402158,50.0663155 1.50432928,49.2656078 C1.42442158,48.543177 1.52226774,48.4257616 2.30503697,48.4192385 C2.50888312,48.5937309 2.43223697,48.8416078 2.45343697,49.0601309 C2.51703697,49.7205924 2.70294466,50.3386539 3.07965235,50.8898539 C3.41396005,51.3790847 3.89666774,51.6563155 4.47396005,51.5878232 C5.12463697,51.5095462 5.62854466,51.1540385 5.80466774,50.4691155 C5.97426774,49.8168078 6.0134062,49.1481924 6.02482158,48.4779462 C6.03297543,47.9642539 6.10962158,47.4636078 6.23682158,46.9645924 C6.51079081,45.8964385 7.53002158,45.2800078 8.49869851,45.1772693 C9.31897543,45.0892078 10.00716,45.3501309 10.6040216,45.9437309 Z M26.7140647,34.9939309 C26.4482493,35.1325462 26.2476647,35.2369155 26.04708,35.3396539 C23.7346493,36.5187001 21.84948,38.1641462 20.5040954,40.3999309 C19.9186493,41.3735001 19.468557,42.3911001 19.36908,43.550577 C19.2826493,44.5730693 19.6626185,45.3379001 20.5057262,45.8744232 C21.2575108,46.3522385 22.0239724,46.2543924 22.7529262,45.818977 C23.8047724,45.1927616 24.6234185,44.334977 25.2186493,43.2635616 C25.828557,42.1693155 26.1139416,40.9804847 26.3210493,39.755777 C26.5836031,38.208177 26.7075416,36.6540539 26.7140647,34.9939309 Z M5.17470158,35.0045309 C6.26894774,35.0453001 7.34525543,35.1349924 8.3644862,35.6177001 C9.30707081,36.0645309 9.89251697,36.7869616 10.1942093,37.7540078 C10.4877477,38.6900693 10.4600247,39.6342847 10.1094093,40.5540385 C9.60876312,41.8668078 8.56180928,42.5403155 7.25882466,42.8273309 C5.92485543,43.1208693 4.57131697,43.1681616 3.22267081,42.8550539 C2.47414774,42.6805616 1.77780928,42.3968078 1.19562466,41.8798539 C0.125840045,40.932377 -0.123667647,39.7044078 0.0508246607,38.3639155 C0.270978507,36.6956385 1.31956312,35.7514232 2.8736862,35.3013309 C3.62384005,35.0828078 4.39193235,34.9914847 5.17470158,35.0045309 Z M30.4892954,18.1497155 C20.8074185,22.0358385 15.1992031,32.5999616 17.1756954,42.7058385 C17.3143108,42.5052539 17.3289877,42.3470693 17.3664954,42.193777 C17.5214185,41.5594078 17.687757,40.9299309 17.9959724,40.3477462 C18.4199724,39.5551924 18.83908,38.7659001 19.3968031,38.0483616 C20.2774185,36.9166078 21.2477262,35.8843309 22.3908954,35.0102385 C23.5748339,34.1051616 24.8664031,33.3827309 26.2183108,32.7777155 C26.6961262,32.5624539 26.8820339,32.2477155 26.8901877,31.7666385 C26.909757,30.8322078 26.9423724,29.9010385 26.9831416,28.9682385 C27.0451108,27.5543616 27.17068,26.1535309 27.44628,24.7706385 C27.8800647,22.6033462 28.6612031,20.5763001 29.9919108,18.7857155 C30.1435724,18.5835001 30.3637262,18.4302078 30.4892954,18.1497155 Z M45.33908,17.3098693 C45.3504954,17.5365462 45.4858493,17.5724232 45.57228,17.6523309 C46.4724647,18.4677155 47.3987416,19.2472232 48.0820339,20.2811309 C49.55788,22.5120232 50.3471724,24.958177 50.5510185,27.6130693 C50.590157,28.1071924 50.5281877,28.5996847 50.568957,29.0905462 C50.6292954,29.8325462 50.5559108,30.5712847 50.4890493,31.3035001 C50.4548031,31.6834693 50.5363416,31.8628539 50.8543416,32.0650693 C52.6237262,33.1903001 54.4501877,34.2242078 56.0728031,35.5744847 C57.8014185,37.0160847 59.2560647,38.6599001 60.2312647,40.7065155 C60.4742493,41.2169462 60.681357,41.7436847 60.872157,42.3715309 C61.7853877,37.5248847 61.0287108,31.1387924 56.9876647,25.5925462 C54.0392339,21.5466078 50.1351724,18.8330078 45.33908,17.3098693 Z M2.67962466,36.5765924 C1.51851697,37.0429924 0.993409276,37.921977 1.00156312,39.0260078 C1.0080862,40.1871155 1.60331697,41.1297001 2.71060928,41.5080385 C4.13916312,41.992377 5.58076312,41.9956385 7.04193235,41.6874232 C8.2796862,41.4248693 9.46851697,40.6127462 9.34131697,38.8156385 C9.26630158,37.7621616 8.78359389,37.0299462 7.80676312,36.6026847 C6.97833235,36.2390232 6.11076312,36.1460693 5.18122466,36.183577 C4.34464005,36.1248693 3.49664005,36.2488078 2.67962466,36.5765924 Z M75.55968,33.4182816 C77.1186954,33.8047739 78.1053108,35.0294816 78.2015262,36.6455739 C78.2439262,37.3565893 78.2422954,38.0561893 77.9634339,38.7166509 C77.4807262,39.8630816 76.5446647,40.4876662 75.3982339,40.8170816 C74.5486031,41.0568047 73.6794031,41.2068355 72.8428185,41.1611739 C71.8105416,41.1856355 70.8581724,41.0682201 69.9547262,40.658897 C68.9550647,40.2071739 68.33048,39.4423432 68.0597724,38.3921278 C67.836357,37.5229278 67.8330954,36.6602509 68.1298954,35.7926816 C68.4609416,34.8256355 69.1018339,34.1782201 70.0215877,33.7803124 C70.889157,33.4068662 71.8040185,33.2731432 72.7384493,33.175297 C73.7038647,33.0758201 74.6317724,33.1883432 75.55968,33.4182816 Z M71.2185724,34.5614509 C70.8728493,34.6364662 70.5385416,34.7457278 70.2270647,34.9185893 C69.2437108,35.4681585 68.8066647,36.3471432 68.9045108,37.4283432 C69.0039877,38.5372662 69.5372493,39.3934201 70.6722647,39.7619739 C71.3718647,39.9902816 72.0894031,40.0163739 72.8150954,39.9723432 L73.5557063,39.982007 C73.6788595,39.9810406 73.8017108,39.9766919 73.9240185,39.9658201 C74.79648,39.8891739 75.6281724,39.6657585 76.3294031,39.1161893 C77.1969724,38.4377893 77.3372185,37.4968355 77.1871877,36.4890201 C77.037157,35.5024047 76.4093108,34.8827124 75.4944493,34.5761278 C74.0773108,34.1015739 72.6454954,34.2467124 71.2185724,34.5614509 Z M1.88120005,29.4667647 C2.82052312,29.6934416 3.76473851,29.9119647 4.70569235,30.1402724 L7.62721543,30.8588301 C8.60160005,31.0959032 9.57761543,31.3258416 10.5585231,31.5345801 C10.7118154,31.5671955 10.8748924,31.5851339 11.0004616,31.7547339 C10.9221847,32.0613185 11.0102462,32.4331339 10.7134462,32.715257 C9.45938466,32.4200878 8.2118462,32.1281801 6.96430774,31.8346416 C5.26830774,31.4334724 3.58861543,30.9703339 1.87793851,30.6343955 C1.84369235,30.6295032 1.8094462,30.616457 1.77683081,30.6083032 C1.19301543,30.4647955 1.04950774,30.0505801 1.4066462,29.5646109 C1.54036928,29.3835955 1.7034462,29.4227339 1.88120005,29.4667647 Z M76.1131631,27.2825124 C76.354517,27.4031893 76.3659324,27.5515893 76.4050708,27.6853124 C76.5681477,28.2593432 76.5502093,28.3180509 75.9973785,28.4860201 C73.1647324,29.3421739 70.3304554,30.1885432 67.4978093,31.0414355 C67.3624554,31.0805739 67.2287324,31.1360201 67.05424,31.0153432 C67.0085785,30.747897 66.793317,30.4853432 66.8748554,30.0841739 C69.9700554,29.1464816 73.0799324,28.203897 76.1131631,27.2825124 Z M42.1639724,19.5358693 C41.7301877,19.7348232 41.4024031,20.0104232 41.1789877,20.4458385 C40.7712954,21.2449155 40.9180647,22.0570385 41.0729877,22.8740539 C41.3567416,24.3874078 42.1704954,25.6121155 43.233757,26.675377 C44.5595724,28.0011924 46.10228,29.0563001 47.67108,30.0706385 C47.8423108,30.1831616 48.003757,30.3364539 48.2467416,30.3772232 C48.4196031,30.2141462 48.3837262,30.0282385 48.39188,29.8570078 C48.4864647,27.8087616 48.215757,25.8159616 47.4770185,23.8932847 C46.9209262,22.4435309 46.1609877,21.1275001 44.9737877,20.0919616 C44.145357,19.3679001 43.2419108,19.0368539 42.1639724,19.5358693 Z M13.7094954,23.6379062 C14.1514339,23.8580601 14.1742647,23.9216601 13.967157,24.3733832 C13.3654031,25.6894139 12.7620185,27.0021832 12.1537416,28.3149524 C12.0754647,28.4861832 12.0346954,28.6883985 11.7754031,28.8253832 C8.85306466,27.4930447 5.89158774,26.1443985 2.93826466,24.7973832 C2.93989543,24.3701216 3.16983389,24.1206139 3.35737235,23.766737 C6.03183389,24.9849216 8.6867262,26.1933216 11.3954339,27.4261832 C12.1423262,26.119937 12.5924185,24.7778139 13.2414647,23.5563678 C13.4387877,23.4568909 13.5725108,23.5694139 13.7094954,23.6379062 Z M71.7298185,17.5768262 C71.9555362,17.7763557 73.6631998,20.867301 74.5520291,22.6192892 L74.7415608,22.9979002 C74.9144625,23.3488916 75.0343325,23.611248 75.0728954,23.7329801 C74.8984031,24.0134724 74.6048647,24.0558724 74.270557,24.1178416 C73.6736954,23.3562724 73.3785262,22.4104262 72.7832954,21.5607955 C70.1773262,22.9453185 67.613757,24.3086416 65.0534493,25.6687032 C64.6848954,25.486057 64.6327108,25.1484878 64.5087724,24.7668878 C65.7677262,23.9922724 67.1033262,23.3644262 68.3883724,22.6485185 C69.6587416,21.9375032 70.9519416,21.2688878 72.2435108,20.5758109 C71.9825877,19.8403339 71.5765262,19.2597801 71.2552647,18.6351955 C70.8655108,17.8834109 70.899757,17.7937185 71.7298185,17.5768262 Z M67.4095847,12.1797955 C67.8580462,12.6739185 68.326077,13.1517339 68.7826924,13.751857 C66.9252462,16.5877647 65.0857385,19.3959493 63.2690616,22.1715185 C62.9347539,22.1421647 62.8369077,21.9317955 62.6852462,21.7915493 C62.4683539,21.5925955 62.4683539,21.3822262 62.6346924,21.1359801 C63.0456462,20.5211801 63.4451847,19.8982262 63.8447231,19.2752724 C63.9474616,19.1138262 64.0877077,18.9703185 64.1317385,18.7469032 C63.8920154,18.373457 63.5234616,18.0913339 63.2429693,17.7325647 C62.8744154,17.2629032 62.4520462,16.8323801 62.0427231,16.3969647 C61.6660154,15.9941647 61.6578616,15.9974262 61.1441693,16.2632416 C60.5505693,16.5730878 59.9634924,16.8943493 59.3682616,17.2025647 C58.7697693,17.5091493 58.7550924,17.5009955 58.3425077,16.9449032 C58.2886924,16.8747801 58.2234616,16.8128109 58.2446616,16.6758262 C58.3751231,16.4589339 58.6572462,16.4034878 58.8822924,16.2860724 C61.4540154,14.9292724 64.0322616,13.5871493 66.608877,12.2401339 C66.7181385,12.183057 66.8306616,12.1292416 66.9415539,12.0754262 C67.1242,11.9841032 67.2709693,12.0248724 67.4095847,12.1797955 Z M13.9495447,9.30931547 C14.4713908,9.47891547 22.1555754,14.5881155 22.4540062,14.9615616 C22.2583139,15.2029155 22.0234831,15.4067616 21.7299447,15.6236539 C20.7955139,15.1197462 19.975237,14.4168847 19.0032985,13.9097155 C18.0802831,14.7381462 17.18336,15.5470078 16.2570831,16.3803309 C16.6990216,17.2234385 17.1001908,18.0062078 17.516037,18.7840847 C17.7378216,19.1983001 17.7312985,19.3026693 17.3774216,19.5864232 C17.26816,19.6728539 17.1442216,19.7413462 17.0414831,19.8098385 C16.8196985,19.7609155 16.7414216,19.5978385 16.6615139,19.4429155 C16.0988985,18.3470385 15.544437,17.2462693 14.9752985,16.1536539 C14.2039447,14.6680232 13.4276985,13.1840232 12.640037,11.7065462 C12.1866831,10.8552847 12.173637,10.8585462 12.8895447,10.2209155 C13.2417908,9.90454624 13.6054524,9.6044847 13.9495447,9.30931547 Z M66.9252462,13.2169647 C65.5227847,14.006257 64.029,14.6553032 62.6053385,15.5228724 C63.3326616,16.3284724 64.0126924,17.0786262 64.7775231,17.9249955 C65.7201077,16.4719801 66.6056154,15.1070262 67.4764462,13.7649032 C67.3247847,13.497457 67.1829077,13.3311185 66.9252462,13.2169647 Z M61.2154339,7.00666932 C61.6149724,7.04580778 61.7910954,7.36380778 62.1498647,7.61005393 C60.2565416,10.3350693 58.3697416,12.9948539 56.4552185,15.6546385 C56.0899262,15.4556847 55.8110647,15.3154385 55.6023262,14.9534078 C57.4287877,12.2952539 59.3612493,9.68276163 61.2154339,7.00666932 Z M14.0865293,10.5943616 C13.8027754,10.6775309 13.6396985,10.8275616 13.4831447,11.0787001 C14.2756985,12.513777 14.9443139,13.9928847 15.7645908,15.4312232 C16.6207447,14.7267309 17.3660062,14.0222385 18.173237,13.2671924 C16.7577293,12.3409155 15.4090831,11.4586693 14.0865293,10.5943616 Z M24.0268831,4.07095855 C23.9062062,4.25197393 23.6974677,4.25523547 23.5148216,4.29763547 C22.9946062,4.42157393 22.51516,4.63357393 22.0650677,4.92385086 C21.2806677,5.42938932 21.0295293,6.22357393 21.3899293,7.02265086 C21.6084524,7.51025086 21.9835293,7.77117393 22.5021139,7.78585086 C23.1707293,7.80215855 23.8393447,7.82498932 24.50796,7.71572778 C25.031437,7.62929701 25.5695908,7.62929701 26.0930677,7.7043124 C27.13676,7.85434316 27.8053754,8.49197393 28.1559908,9.46065086 C28.4968216,10.4016047 28.3109139,11.2822201 27.681437,12.0405278 C27.0503293,12.8004662 26.24636,13.3467739 25.3233447,13.7006509 L24.775067,13.9168256 C24.4998062,14.0230865 24.2199662,14.1187801 23.9225139,14.1686816 C23.2375908,14.2812047 23.0484216,14.1001893 23.1642062,13.3337278 C24.04156,13.1902201 24.8748831,12.8624355 25.6706985,12.4384355 C26.16156,12.1775124 26.5627293,11.8220047 26.9166062,11.3931124 C27.5134677,10.6690509 27.3030985,9.32366624 26.0408831,8.87846624 C25.6478677,8.74148163 25.2401754,8.7431124 24.8357447,8.7692047 C24.3611908,8.80018932 23.8850062,8.83443547 23.4169754,8.91597393 C22.8021754,9.02034316 22.2297754,8.90292778 21.6508524,8.71538932 C20.4033139,8.31095855 19.6971908,6.44372778 20.4701754,5.16194316 C20.8892831,4.4656047 21.4991908,4.01388163 22.23956,3.7187124 C22.5494062,3.59314316 22.8657754,3.4855124 23.1951908,3.41049701 C23.8670677,3.26046624 23.9649139,3.33385086 24.0268831,4.07095855 Z M55.6225477,3.47018316 C56.4281477,3.87461393 57.0788247,4.39319855 57.3739939,5.27381393 C57.45064,5.50538316 57.5647939,5.73206009 57.4914093,6.00113701 C57.2402708,6.17726009 56.9695631,6.27510624 56.6841785,6.28162932 C56.5145785,6.1658447 56.4933785,6.00439855 56.4656554,5.84947547 C56.3596554,5.24609086 55.9927324,4.84002932 55.4823016,4.54486009 C55.3746708,4.48289086 55.2572554,4.43886009 55.1528862,4.37689086 C53.6868247,3.51421393 52.2647939,4.23012163 51.4396247,5.32110624 C50.6340247,6.38926009 50.1627324,7.59602932 49.9572554,8.89901393 C49.748517,10.2166755 50.320917,11.3125524 51.550517,11.8751678 C52.0788862,12.1148909 52.6203016,12.3317832 53.2171631,12.3578755 C53.3900247,12.3660293 53.5579939,12.4328909 53.7634708,12.4785524 C53.7879324,12.594337 53.8140247,12.6611985 53.8123939,12.7280601 C53.8107631,13.209137 53.7031324,13.3265524 53.2220554,13.3118755 C52.1327016,13.2808909 51.1379324,12.9319062 50.26384,12.2959062 C49.4859631,11.7267678 48.9755324,10.9651985 48.8255016,9.97858316 C48.71624,9.26430624 48.7863631,8.56796778 48.9771631,7.89119855 C49.3277785,6.64692163 49.81864,5.45972163 50.6699016,4.45516778 C51.2308862,3.7914447 51.9239631,3.2826447 52.7540247,3.07390624 C53.734117,2.82766009 54.7011631,3.00867547 55.6225477,3.47018316 Z M32.8919077,0.477232396 C33.420277,0.501693934 33.4985539,0.579970857 33.4789847,1.10997086 C33.4773539,1.1980324 33.4692,1.28609393 33.3892924,1.38067855 C33.2033847,1.50950932 32.9685539,1.43775547 32.7451385,1.44101701 C32.0993539,1.45080163 31.4861847,1.57310932 30.9121539,1.87317086 C30.3984616,2.14224778 30.1212308,2.54994009 30.0935077,3.13701701 C30.0641539,3.7681247 30.3413847,4.21984778 30.876277,4.52806316 C31.5073847,4.89335547 32.2216616,4.9292324 32.9163693,5.0189247 C33.4447385,5.08578624 33.9633231,5.18526316 34.4574462,5.3793247 C36.070277,6.0104324 36.5725539,8.25110932 35.4196,9.53941701 C34.7852308,10.2455401 33.971477,10.5896324 33.0957539,10.8260939 C32.3456,11.0266785 31.5742462,11.1180016 30.7931077,11.0837555 C30.0788308,11.0527709 29.9907693,10.9418785 30.1603693,10.1900939 C30.3397539,10.0824632 30.5044616,10.111817 30.6593847,10.1199709 C31.3883385,10.1558478 32.0993539,10.0531093 32.8103693,9.90470932 C33.3762462,9.7889247 33.8801539,9.54430932 34.3302462,9.19206316 C35.2581539,8.45821701 35.116277,7.04107855 34.0693231,6.4980324 C33.5132308,6.20938624 32.9098462,6.0789247 32.296677,6.00880163 C31.7846154,5.94846316 31.2807077,5.86855547 30.7947385,5.70874009 C29.7804,5.37280163 29.1770154,4.66015547 29.0367693,3.60015547 C28.8883693,2.48144778 29.3580308,1.64649393 30.3006154,1.06430932 C31.0948,0.575078549 31.9737847,0.436463165 32.8919077,0.477232396 Z M45.1305047,0.833066242 C45.86272,1.39568163 46.22312,2.19965086 46.407397,3.08678932 C46.5117662,3.58906624 46.5509047,4.09786624 46.5215508,4.53165086 C46.5427508,5.77266624 46.3307508,6.88485086 45.9116431,7.9693124 C45.2593354,9.66368163 43.6595508,10.607897 41.8673354,10.311097 C41.5020431,10.2507585 41.1465354,10.1610662 40.7942893,10.035497 C39.4847816,9.56909701 38.8406277,8.55638932 38.5878585,7.28112778 C38.3122585,5.89497393 38.4394585,4.50555855 38.7982277,3.14223547 C39.029797,2.25672778 39.4456431,1.47069701 40.1240431,0.833066242 C40.3605047,0.612912396 40.6149047,0.418850857 40.9149662,0.317743165 C42.3973354,-0.176379912 43.8356739,-0.158441451 45.1305047,0.833066242 Z M41.0209662,1.50494316 C40.5301047,1.8849124 40.2577662,2.4198047 40.0490277,2.98894316 C39.7228739,3.87608163 39.5891508,4.7942047 39.6185047,5.62263547 C39.6250277,6.26678932 39.5956739,6.79352778 39.7440739,7.3121124 C40.0979508,8.5466047 40.958997,9.27718932 42.2717662,9.34242009 C43.27632,9.39297393 44.2710893,8.99832778 44.7684739,7.76057393 C45.3849047,6.22765086 45.6572431,4.64417393 45.22672,3.00688163 C44.73912,1.14943547 42.5098585,0.353620088 41.0209662,1.50494316 Z" id="Combined-Shape" fill="#FFFFFF"></path>
    </g>
</svg>