<?xml version="1.0" encoding="UTF-8"?>
<svg width="77px" height="65px" viewBox="0 0 77 65" version="1.1" xmlns="http://www.w3.org/2000/svg" xmlns:xlink="http://www.w3.org/1999/xlink">
    <title>sf_quotemarks</title>
    <g id="sf_quotemarks" stroke="none" stroke-width="1" fill="none" fill-rule="evenodd">
        <g id="Group-2" fill-rule="nonzero">
            <path d="M19.7812124,8.08330405 L28.1650952,0 L42.0650163,13.5784471 C43.5225934,12.0197774 45.0910399,10.4250766 46.7702755,8.78787735 L47.4967308,8.08359975 L55.8796409,0.00160506164 L76.7020528,20.3381765 L69.0514806,28.8981136 L68.6565204,29.3458278 L68.2187518,29.8550299 L68.4316929,30.1593818 C70.665246,33.4166222 71.9694881,37.0502501 72.133815,41.4867783 L72.1473718,41.9830516 L72.1515036,42.4523169 C72.1515036,54.6465534 62.076027,64.7220299 49.8817905,64.7220299 C44.7820374,64.7220299 39.9085928,62.9949608 36.0203888,59.8197847 C32.2046966,62.8809138 27.3791666,64.7220299 22.1664705,64.7220299 C16.2708149,64.7220299 10.6770969,62.4138235 6.55892526,58.2283364 C2.20435582,53.8039689 1.46371804e-12,47.8580023 1.46371804e-12,41.4184303 C1.46371804e-12,33.401206 3.84721996,25.604531 11.5257217,16.7149084 L12.3337157,15.7913397 C12.8814887,15.1729563 13.4474816,14.5491591 14.0316892,13.9195173 L14.921661,12.9706173 C15.2228715,12.6528202 15.5286349,12.3335082 15.8389508,12.0126272 L16.7835548,11.045224 C16.9432647,10.8831878 17.1041126,10.7207459 17.2660983,10.5578915 L18.2516662,9.57576268 C18.4182029,9.41123177 18.5858774,9.24627498 18.7546895,9.08088558 L19.7812124,8.08330405 Z M60.1042652,20.9014058 L55.8255428,16.7225169 L54.88475,17.6368958 L53.9734298,18.5376153 L53.0914727,19.424842 C52.9469207,19.5715979 52.8035877,19.7177987 52.6614713,19.8634476 L51.8233543,20.7307476 L51.0143275,21.5849715 C50.7494881,21.8675519 50.4894789,22.1479808 50.2342816,22.4262859 L49.4831075,23.2548574 L48.7606959,24.0708527 L48.0669375,24.8744385 L47.4017232,25.6657814 C46.642248,26.5819379 45.9408273,27.4734387 45.2966805,28.3414747 L44.7585628,29.0797868 C41.3517314,33.8418247 39.715807,37.8860567 39.715807,41.4184303 C39.715807,44.8405316 40.791575,47.7425242 42.8272067,49.8107845 L43.0772879,50.0560216 C44.8182442,51.7031116 47.0917543,52.6384681 49.5460292,52.7166898 L49.8817905,52.7220299 L50.1593938,52.7181286 C55.6040668,52.5650268 60.1515036,47.9263561 60.1515036,42.4523169 C60.1515036,39.0561047 58.6316864,36.7589338 56.8037921,34.859694 L56.3930146,34.4439061 L55.9750497,34.0395089 C54.159052,32.3988288 53.7709184,29.3171357 55.1340124,27.2707901 C56.3625635,25.4277422 57.9650127,23.350052 59.609868,21.4617806 L60.1042652,20.9014058 Z M28.1102228,16.7220299 L27.6361352,17.1809581 L26.71009,18.0885264 L25.8134604,18.9825162 C25.6664673,19.1303922 25.5206954,19.2777094 25.3761423,19.4244713 L24.5234316,20.2984061 C24.3837447,20.4429604 24.2452721,20.5869664 24.1080116,20.7304274 L23.2989743,21.5846822 C23.1665527,21.7259775 23.0353386,21.8667347 22.9053297,22.0069574 L22.1397204,22.8419074 C22.0145232,22.980006 21.8905266,23.117577 21.7677285,23.254624 L21.0453017,24.0706443 C14.9085866,31.0887969 12,36.7085988 12,41.4184303 C12,44.8405316 13.075768,47.7425242 15.1113997,49.8107845 C16.8815998,51.60992 19.2564899,52.6344084 21.829738,52.7166589 L22.1664705,52.7220299 L22.4440738,52.7181286 C27.8887468,52.5650268 32.4361836,47.9263561 32.4361836,42.4523169 C32.4361836,38.9311988 30.8020999,36.5912455 28.8846407,34.6508836 L28.4699114,34.2409231 L28.2602167,34.0399959 C26.443245,32.3988288 26.0546244,29.3166487 27.4182054,27.2712771 C28.6458711,25.4291146 30.2486422,23.3511024 31.8939293,21.4620334 L32.3884583,20.9014058 L28.1102228,16.7220299 Z" id="Combined-Shape" fill="#FFFFFF"></path>
            <path d="M55.8255428,16.7225169 L60.1042652,20.9014058 L59.609868,21.4617806 C57.9650127,23.350052 56.3625635,25.4277422 55.1340124,27.2707901 C53.7709184,29.3171357 54.159052,32.3988288 55.9750497,34.0395089 L55.9750497,34.0395089 L56.3930146,34.4439061 L56.8037921,34.859694 C58.6316864,36.7589338 60.1515036,39.0561047 60.1515036,42.4523169 C60.1515036,47.9263561 55.6040668,52.5650268 50.1593938,52.7181286 L50.1593938,52.7181286 L49.8817905,52.7220299 L49.5460292,52.7166898 C47.0917543,52.6384681 44.8182442,51.7031116 43.0772879,50.0560216 L43.0772879,50.0560216 L42.8272067,49.8107845 C40.791575,47.7425242 39.715807,44.8405316 39.715807,41.4184303 C39.715807,37.8860567 41.3517314,33.8418247 44.7585628,29.0797868 L44.7585628,29.0797868 L45.2966805,28.3414747 C45.9408273,27.4734387 46.642248,26.5819379 47.4017232,25.6657814 L47.4017232,25.6657814 L48.0669375,24.8744385 L48.7606959,24.0708527 L49.4831075,23.2548574 L50.2342816,22.4262859 C50.4894789,22.1479808 50.7494881,21.8675519 51.0143275,21.5849715 L51.0143275,21.5849715 L51.8233543,20.7307476 L52.6614713,19.8634476 C52.8035877,19.7177987 52.9469207,19.5715979 53.0914727,19.424842 L53.0914727,19.424842 L53.9734298,18.5376153 L54.88475,17.6368958 L55.8255428,16.7225169 Z M28.1102228,16.7220299 L32.3884583,20.9014058 L31.8939293,21.4620334 C30.2486422,23.3511024 28.6458711,25.4291146 27.4182054,27.2712771 C26.0546244,29.3166487 26.443245,32.3988288 28.2602167,34.0399959 L28.2602167,34.0399959 L28.4699114,34.2409231 L28.8846407,34.6508836 C30.8020999,36.5912455 32.4361836,38.9311988 32.4361836,42.4523169 C32.4361836,47.9263561 27.8887468,52.5650268 22.4440738,52.7181286 L22.4440738,52.7181286 L22.1664705,52.7220299 L21.829738,52.7166589 C19.2564899,52.6344084 16.8815998,51.60992 15.1113997,49.8107845 C13.075768,47.7425242 12,44.8405316 12,41.4184303 C12,36.7085988 14.9085866,31.0887969 21.0453017,24.0706443 L21.0453017,24.0706443 L21.7677285,23.254624 C21.8905266,23.117577 22.0145232,22.980006 22.1397204,22.8419074 L22.1397204,22.8419074 L22.9053297,22.0069574 C23.0353386,21.8667347 23.1665527,21.7259775 23.2989743,21.5846822 L23.2989743,21.5846822 L24.1080116,20.7304274 C24.2452721,20.5869664 24.3837447,20.4429604 24.5234316,20.2984061 L24.5234316,20.2984061 L25.3761423,19.4244713 C25.5206954,19.2777094 25.6664673,19.1303922 25.8134604,18.9825162 L25.8134604,18.9825162 L26.71009,18.0885264 L27.6361352,17.1809581 L28.1102228,16.7220299 Z" id="Combined-Shape" fill="#1D1D1B"></path>
        </g>
    </g>
</svg>