<?xml version="1.0" encoding="UTF-8"?>
<svg xmlns="http://www.w3.org/2000/svg" width="10" height="10" viewBox="0 0 10 10">
    <g id="sf_close" fill="none" fill-rule="evenodd">
        <path id="Combined-Shape" fill="#1D1D1B" fill-rule="nonzero" d="M5,0 C5.51283584,0 5.93550716,0.38604019 5.99327227,0.883378875 L6,1 L6,3.999 L9,4 C9.55228475,4 10,4.44771525 10,5 C10,5.51283584 9.61395981,5.93550716 9.11662113,5.99327227 L9,6 L6,5.999 L6,9 C6,9.55228475 5.55228475,10 5,10 C4.48716416,10 4.06449284,9.61395981 4.00672773,9.11662113 L4,9 L4,5.999 L1,6 C0.44771525,6 0,5.55228475 0,5 C0,4.48716416 0.38604019,4.06449284 0.883378875,4.00672773 L1,4 L4,3.999 L4,1 C4,0.44771525 4.44771525,0 5,0 Z" transform="rotate(-45 5 5)"/>
    </g>
</svg>
