<?xml version="1.0" encoding="UTF-8"?>
<svg xmlns="http://www.w3.org/2000/svg" width="52" height="71" viewBox="0 0 52 71">
    <g id="sf_filter-coffee-process" fill="none" fill-rule="evenodd">
        <path id="Combined-Shape" fill="#1D1D1B" d="M25.3287208,5.37969746 C29.3886265,6.12823547 33.5194279,7.29370915 36.8960205,10.0475805 C40.0372999,12.6090776 42.7132326,16.07406 44.9834009,19.7336624 C47.1796568,23.2742472 48.7936636,27.2624577 49.9264851,31.2663875 C51.0970171,35.4028086 51.4680878,39.6380366 51.2380541,43.6666682 C50.9914279,47.9984577 50.4008824,52.3504577 48.2114144,55.8206799 C46.089071,59.1838612 39.3600205,62.8793934 38.23097,63.3704343 C33.9711989,65.2238144 29.9293942,65.5786214 26.001475,64.8577793 C21.9377983,64.1114869 18.1961686,62.2745746 14.8173134,59.5236975 C11.6730171,56.9629489 8.62299691,53.9298729 6.35056593,50.269522 C4.15280162,46.7281887 2.51466021,42.7354869 1.38183866,38.73006 C0.212060882,34.5913934 -0.167306121,30.3359548 0.0649901749,26.3058261 C0.315387481,21.9740366 1.70011475,18.0778963 3.89561644,14.6069255 C6.0202225,11.2452413 8.9586198,8.59616529 13.215374,6.74428225 C17.4728824,4.89165067 21.40231,4.6558612 25.3287208,5.37969746 Z M14.0075195,13.8875805 C13.6537956,16.0703173 13.2314387,17.9903173 13.6281525,20.2336858 C14.0263747,22.4748086 14.8001929,24.896329 16.00391,26.9128904 C17.1970683,28.9376858 18.8465228,30.8696624 20.5367047,32.4221302 C22.2366912,33.9701068 24.4035329,34.9342238 26.1902535,36.1693115 C29.7629403,38.6454752 32.8461457,41.092446 35.28224,44.1412413 C36.5100919,45.6540366 38.0283141,47.0178729 38.7478292,48.9438612 C39.4779033,50.8683524 39.7652568,53.558598 40.1627249,55.7301068 C40.7517619,53.6005162 40.8528259,50.8167033 40.6424016,48.5291711 C40.4312232,46.2468787 39.5646373,44.0843524 38.3760043,42.0131477 C37.1941592,39.9359548 36.3162602,37.4859899 34.6026979,35.962715 C32.8793309,34.4401887 30.4794387,33.8316273 28.7108191,32.6025279 C25.1652838,30.1480717 21.7260919,27.8687735 19.1927047,24.7982706 C17.9165834,23.2764928 16.7249336,21.537639 15.8387383,19.6632998 C14.9442467,17.7897092 14.6470885,16.0029489 14.0075195,13.8875805 Z"/>
    </g>
</svg>
