<?xml version="1.0" encoding="UTF-8"?>
<svg xmlns="http://www.w3.org/2000/svg" width="56" height="71" viewBox="0 0 56 71">
    <g id="sf_filter-coffee-milk" fill="none" fill-rule="evenodd">
        <path id="Combined-Shape" fill="#1D1D1B" d="M55.3642708,42.7964658 C54.2983969,46.5397698 51.8646262,49.4371805 48.9896723,50.8663189 C47.0949554,61.8441187 36.9408631,70.2360736 24.6664923,70.2360736 C11.7483154,70.2360736 1.15304,60.9523183 0.0886953846,49.1293776 C0.0626984615,48.8449046 0.0420538462,46.6097592 0.0282907692,44.1812023 L0.0259969231,43.7958843 C0.0183507692,42.509735 0.0129984615,41.1957405 0.00917538462,40.1097759 C0.00764615385,40.0751575 0,40.0397865 0,40.0036629 C0,39.9705497 0.00764615385,39.9389416 0.00841076923,39.9065809 C0.00458769231,39.0012341 0.00229384615,38.2704846 0.000764615385,37.8874243 L0.000764615385,37.7715279 L0.000764615385,37.7248683 L0,37.6217656 C0,33.2733919 11.0425754,29.7483343 24.6664923,29.7483343 C25.6176738,29.7483343 26.5558569,29.7671487 27.4802769,29.800262 C27.6370231,29.4548304 27.7983569,29.1078937 27.9635138,28.760957 L28.1286708,28.4155254 C29.6257877,25.3096517 31.28118,22.4205194 31.28118,22.4205194 C31.28118,22.4205194 33.0642631,25.5346714 34.60114,28.771493 L34.7678262,29.1252029 C34.8228785,29.2426045 34.8779308,29.3607586 34.9322185,29.4789128 L35.0927877,29.8311175 C35.1990692,30.0659207 35.3030569,30.2999712 35.4032215,30.5310115 C37.2413569,30.8162371 38.9495077,31.1722047 40.4993831,31.5861205 C42.9889708,29.1929346 46.2523492,28.0791248 49.3444538,28.9317913 C54.4482615,30.3413628 57.1435308,36.5485948 55.3642708,42.7964658 M14.5009308,16.3299364 L14.6821446,15.9513916 C16.1708508,12.8703528 17.8040692,10.0188492 17.8040692,10.0188492 C17.8040692,10.0188492 23.3154169,19.6382526 23.3154169,22.6334979 C23.3154169,25.6287432 20.8472385,28.0580527 17.8040692,28.0580527 C14.7609,28.0580527 12.2927215,25.6287432 12.2927215,22.6334979 C12.2927215,21.3345548 13.3272462,18.7931118 14.5009308,16.3299364 M4.49762062,42.7356763 C6.08649138,43.5830749 7.71359292,44.2859792 9.38657138,44.8406263 C9.51349754,44.8827705 9.63965908,44.9301827 9.76734985,44.9715742 C10.0005575,60.7274676 22.5654822,65.1699131 22.5654822,65.1699131 C11.9541498,63.9025782 4.20477292,55.8071375 4.49762062,43.1924888 L4.49762062,43.1924888 Z M43.8954223,32.7161937 C45.1448038,32.1893918 46.4928208,32.049413 47.79649,32.4083909 C51.3909469,33.4010362 53.2910162,37.7727398 52.0378115,42.1745462 C51.5109915,44.0213633 50.5124038,45.5724187 49.2660808,46.6869811 C49.2913131,44.6896492 49.3081346,42.0917631 49.3188392,40.1809772 C49.3218977,40.1290496 49.3310731,40.0778745 49.3310731,40.0266995 L49.3310731,40.0266995 L49.3211331,39.8927413 C49.3264854,38.8278488 49.3295438,38.0158212 49.3310731,37.7215647 L49.3310731,37.7215647 L49.3310731,37.6448021 C49.3310731,35.7791707 47.2941377,34.0663118 43.8954223,32.7161937 Z M24.6661865,33.332638 C25.0492588,33.332638 25.4239203,33.343174 25.8031695,33.3491946 C25.7917003,33.4635859 25.7702911,33.5892658 25.7702911,33.6916159 C25.7702911,36.6876138 28.2369403,39.1161707 31.2808742,39.1161707 C34.0824249,39.1161707 36.3930926,37.0541174 36.7409926,34.3884996 C38.3841511,34.7015705 39.9279095,35.071837 41.3095695,35.5128454 C43.4703726,36.2037086 44.8053911,36.9036026 45.6143542,37.4702909 C44.8053911,38.039237 43.4703726,38.7383785 41.3095695,39.4277364 C36.9007972,40.8342976 30.9903203,41.6102016 24.6661865,41.6102016 C18.341288,41.6102016 12.4300465,40.8342976 8.02127415,39.4277364 C5.86047108,38.7383785 4.52621723,38.039237 3.71801877,37.4702909 C4.52621723,36.9036026 5.86047108,36.2037086 8.02127415,35.5128454 C12.4300465,34.1070368 18.341288,33.332638 24.6661865,33.332638 Z M31.28118,1 C31.28118,1 32.9143985,3.85150363 34.4031046,6.9325424 L34.5843185,7.31108722 C35.7564738,9.77426257 36.7917631,12.3157056 36.7917631,13.6146487 C36.7917631,16.6106466 34.3243492,19.0392035 31.28118,19.0392035 C28.2372462,19.0392035 25.7698323,16.6106466 25.7698323,13.6146487 C25.7698323,10.6186508 31.28118,1 31.28118,1 Z"/>
    </g>
</svg>
