<?xml version="1.0" encoding="UTF-8"?>
<svg xmlns="http://www.w3.org/2000/svg" width="53" height="71" viewBox="0 0 53 71">
    <g id="sf_filter-coffee-flavours" fill="none" fill-rule="evenodd">
        <path id="Combined-Shape" fill="#1D1D1B" d="M36.9413493,12.6975658 C40.5669997,9.10110741 46.4486104,9.10110741 50.0742608,12.6975658 C53.7021493,16.2962442 53.7021493,22.1282789 50.0742608,25.7269573 C46.8492224,28.9260293 41.8404535,29.2723549 38.2215172,26.7792544 L38.2215172,26.7792544 L28.736,36.185 L38.1879464,45.5605373 C38.1879464,45.5605373 48.3510961,51.6835613 49.9968283,53.1860814 L50.0742608,53.2596223 C51.8602294,55.0289911 51.8602294,57.8994977 50.0742608,59.6710864 C48.2882923,61.4426752 45.3944861,61.4426752 43.6085176,59.6710864 C43.003939,59.072354 41.4357994,56.7223939 39.8707462,54.280933 L39.3306053,53.434707 C37.5404462,50.6187692 35.9028914,47.9359759 35.9028914,47.9359759 L35.9028914,47.9359759 L26.396,38.506 L16.9443206,47.880697 C16.9443206,47.880697 10.7715968,57.9620178 9.25900706,59.5944993 L9.18498107,59.6713084 C7.40125058,61.4428972 4.50520636,61.4428972 2.71923782,59.6713084 C0.933269275,57.8997197 0.933269275,55.0292131 2.71923782,53.2576243 C3.97490093,52.0120712 12.8441175,46.6435572 14.3383565,45.7425849 L14.4732719,45.6612983 C14.5247932,45.6302839 14.5518389,45.6140402 14.5518389,45.6140402 L14.5518389,45.6140402 L24.057,36.185 L14.5742195,26.7790324 C11.0335157,29.2167307 6.16834266,28.9419198 2.93699079,25.9359221 L2.71923782,25.7267353 C-0.906412605,22.1280569 -0.906412605,16.2960222 2.71923782,12.6973438 C6.34712629,9.1008854 12.2264989,9.1008854 15.8521493,12.6973438 C19.0794258,15.8986358 19.4285625,20.8648564 16.9129878,24.4568747 L16.9129878,24.4568747 L26.396,33.864 L35.8805108,24.4570967 C33.4208378,20.944901 33.6999703,16.1189001 36.7304613,12.9135655 Z"/>
    </g>
</svg>
