<?xml version="1.0" encoding="UTF-8"?>
<svg xmlns="http://www.w3.org/2000/svg" width="51" height="71" viewBox="0 0 51 71">
    <g id="sf_filter-coffee-roast" fill="none" fill-rule="evenodd">
        <path id="Fill-1" fill="#1D1D1B" d="M26.3874235,71 C2.63072524,71 -13.5423637,34.5193542 15.8669215,14.9832748 C14.3643253,17.5010549 12.8252508,20.1236131 12.5303197,23.0403262 C12.2353886,25.9578155 14.8618275,32.0233059 20.5105337,32.0233059 C32.2976871,32.0233059 34.7720036,13.5381126 24.0931702,0 C31.4804175,1.95508259 37.8610185,7.40665071 40.9438244,14.3988456 C44.0274065,21.3918167 43.7479981,29.7802774 40.208049,36.5512741 C38.9235465,39.0069633 37.2331258,41.2732758 36.3607507,43.9028192 C35.4891518,46.5323626 35.6327366,49.7634102 37.6483577,51.6633872 C39.9767609,53.8582953 44.018869,53.3095683 46.3294211,51.096033 C48.6407494,48.8824976 49.4681087,45.4977754 49.4479292,42.2977733 C54.834302,53.9941189 45.831919,71 26.3874235,71"/>
    </g>
</svg>
