<?xml version="1.0" encoding="UTF-8"?>
<svg xmlns="http://www.w3.org/2000/svg" width="61" height="71" viewBox="0 0 61 71">
    <g id="sf_filter-coffee-geography" fill="none" fill-rule="evenodd">
        <path id="Combined-Shape" fill="#1D1D1B" d="M31.8432693,48.8188731 L31.9371029,48.820308 C35.4536069,48.9687084 38.8828527,49.5795155 42.2488363,50.5817554 C42.5629657,50.6763875 42.5978689,50.7774718 42.4757075,51.0656695 C40.5625723,55.4854183 37.9273758,59.4341574 34.5548478,62.9054346 C33.9353148,63.5420505 33.2852415,64.1442547 32.6417126,64.7507604 C32.528277,64.8604476 32.4126599,64.9722855 32.2795912,65.0518625 C32.0810789,65.1658512 31.8345746,65.2239209 31.6295179,65.1486453 C31.4266427,65.0733698 31.529171,64.8324881 31.529171,64.666882 C31.5248081,62.1053633 31.5248081,59.5438446 31.5248081,56.9844767 C31.5248081,54.3993 31.5313525,51.816274 31.5182637,49.2332481 C31.5182637,48.9149401 31.5640743,48.8031022 31.9371029,48.820308 Z M28.1463902,48.817297 C28.4452494,48.8043926 28.5019672,48.8861204 28.5019672,49.1571123 C28.4932414,51.7637962 28.4954228,54.3704802 28.4954228,56.9750135 C28.4954228,59.5257785 28.4997857,62.0765435 28.4910599,64.6273085 C28.4910599,64.8036683 28.6044955,65.0746602 28.3972574,65.1413329 C28.1529346,65.2209098 27.8606197,65.1757445 27.6402928,64.9757267 C27.088385,64.4638531 26.5233884,63.9691854 25.9911136,63.4401059 C23.4497196,60.9108482 21.2769913,58.0998449 19.5078321,54.9941917 C18.7726821,53.7037541 18.1117015,52.3724527 17.5248904,51.011041 C17.4245435,50.7830637 17.446358,50.6862808 17.7037696,50.6088546 C20.0401069,49.9055661 22.4157104,49.3872403 24.8414873,49.0968918 C25.9409401,48.9635466 27.040393,48.8667638 28.1463902,48.817297 Z M14.1510535,51.8704724 C14.4477312,51.7478808 14.5633483,51.7908954 14.6898727,52.0941483 C16.5004795,56.3762504 18.9764299,60.2518647 22.0915463,63.7317448 C22.2115263,63.8650901 22.3249619,64.0027367 22.4427604,64.1382327 C22.4558491,64.1532878 22.4558491,64.1790965 22.4820266,64.2672764 C21.6268966,64.0608064 20.8350287,63.8199247 20.0475238,63.5467821 C15.31595,61.8907205 11.251901,59.2281176 7.8444698,55.5933849 C7.55651786,55.2858306 7.55433641,55.2879814 7.90336906,55.0707577 C9.89285516,53.8276361 11.9805067,52.771628 14.1510535,51.8704724 Z M45.3336305,52.0864056 C45.4645177,51.7767006 45.5866791,51.7530426 45.8768125,51.8734834 C48.0582666,52.774639 50.150281,53.847853 52.1572188,55.0823716 C52.3688198,55.2135661 52.4582594,55.3060445 52.2466584,55.5297234 C48.2720491,59.7623587 43.4837574,62.6808985 37.8316099,64.1971627 C37.7443518,64.2208207 37.6614565,64.2724382 37.5283878,64.2014641 C38.0257594,63.6229179 38.5122236,63.0680298 38.9855991,62.5023879 C41.6207957,59.338665 43.7389876,55.8652371 45.3336305,52.0864056 Z M49.0741698,37.0742747 C50.8367846,37.0872191 52.5972181,37.0807669 54.3620144,37.0807669 L54.3620144,37.0807669 L59.5515934,37.0809358 C60.0156259,37.0833 60.0096536,37.1187631 59.9770772,37.6507102 C59.8614601,39.56701 59.5320605,41.4488982 59.0281447,43.3049777 C58.1119339,46.6751706 56.6198194,49.7765223 54.59543,52.6348416 C54.4383653,52.8585175 54.3162039,52.8929292 54.0806068,52.7402274 C51.8009873,51.2841836 49.3992064,50.0496649 46.879627,49.0409729 C46.6287598,48.9398886 46.5633161,48.8388043 46.6505743,48.5721139 C47.4926156,45.9998416 48.0597936,43.3694996 48.3891932,40.6896908 C48.5200804,39.6186276 48.5964313,38.5411121 48.6444233,37.4635967 C48.657512,37.1560424 48.7687662,37.072164 49.0741698,37.0742747 Z M10.9556596,37.075122 C11.2348857,37.0730243 11.3592286,37.1353954 11.3766802,37.4364975 C11.4355795,38.6129465 11.5250191,39.7893955 11.6711765,40.961543 C11.9940317,43.5338153 12.5568469,46.0501686 13.3530776,48.5149045 C13.4490616,48.8117051 13.4054325,48.9385982 13.1065733,49.059039 C10.6066269,50.0569774 8.22447909,51.2828932 5.96231123,52.7281833 C5.72235128,52.8808851 5.59364549,52.8744329 5.42131062,52.6314005 C2.65958978,48.725676 0.923152341,44.4220665 0.251264489,39.7012156 C0.140010332,38.9291037 0.0941997968,38.1526904 0.0047601802,37.3784279 C-0.0301430848,37.0816272 0.131284516,37.0794765 0.345067014,37.0794765 C2.12077062,37.0816272 3.89429278,37.0816272 5.66781493,37.0816272 C7.43042982,37.0816272 9.19522615,37.0859287 10.9556596,37.075122 Z M45.1663129,37.0713037 C45.5197085,37.0713037 45.6113296,37.1766894 45.5938779,37.5122032 C45.4608092,39.9726376 45.1292282,42.4029618 44.5533244,44.801025 C44.3329975,45.7236879 44.071223,46.6334464 43.7919969,47.5389035 C43.7134645,47.796991 43.6174806,47.8658144 43.3426173,47.7797852 C40.9364735,47.0270299 38.4823377,46.4893476 35.9867542,46.1538338 C34.6429785,45.9753232 33.2948399,45.8484302 31.9423384,45.8075664 C31.6238461,45.7989634 31.5169549,45.7172357 31.5191037,45.3903249 C31.532225,42.7513799 31.5300436,40.1145857 31.5213178,37.4734901 C31.5191037,37.1702373 31.6020316,37.0713037 31.916161,37.0713037 C34.1325183,37.0842081 36.3466942,37.0799066 38.5586886,37.0799066 C40.7619572,37.0799066 42.9652258,37.0863588 45.1663129,37.0713037 Z M28.0866183,37.072164 C28.4160179,37.072164 28.5032761,37.1732483 28.5032761,37.4894055 C28.4901874,40.1283504 28.4901874,42.7694461 28.5032761,45.4062403 C28.5032761,45.7202467 28.4007477,45.7933715 28.0997071,45.8062759 C24.3716021,45.9611284 20.719848,46.5676341 17.1488077,47.6365466 C16.3263995,47.8838805 16.3307624,47.8903327 16.0864395,47.0730555 C15.3120233,44.5072354 14.78193,41.8940992 14.5616032,39.2228934 C14.5136112,38.6594023 14.4656192,38.0937604 14.4394417,37.5281186 C14.4154457,37.0829176 14.4307159,37.0807669 14.8713696,37.0807669 L14.8713696,37.0807669 L21.478994,37.0807669 C23.6800811,37.0807669 25.8833497,37.0872191 28.0866183,37.072164 Z M54.0125455,18.474162 C54.2895901,18.2999529 54.4270217,18.2935007 54.629897,18.5816985 C57.0120448,21.9518914 58.6219579,25.6468444 59.4639992,29.6687083 C59.7519511,31.0451751 59.9068343,32.436697 60.02027,33.8346711 C60.0394668,34.070391 59.9204466,34.0955115 59.7793676,34.096131 L59.6712373,34.0949093 L54.3201305,34.0949093 C52.5553342,34.0949093 50.7927193,34.0884572 49.0322858,34.1013913 C48.715975,34.1035123 48.6221725,33.9895236 48.6090838,33.6948737 C48.4585634,29.9590568 47.7583167,26.317872 46.602146,22.7627163 C46.4189039,22.1970745 46.4363555,22.3196661 46.9053681,22.1282512 C49.3878629,21.1217098 51.7591034,19.9086985 54.0125455,18.474162 Z M5.42327393,18.5399743 C5.57815717,18.3205999 5.69813714,18.2775853 5.94027854,18.4302871 C8.25698276,19.9121397 10.6980299,21.1595627 13.2612384,22.1790084 C13.5055612,22.2779419 13.5535532,22.3768755 13.470658,22.6220586 C12.5740804,25.2911138 11.9698176,28.0289923 11.6338737,30.820639 C11.520438,31.7691106 11.4091839,32.719733 11.4091839,33.681109 C11.4113653,33.990814 11.3001112,34.102652 10.9707116,34.1005316 C9.20809673,34.0854461 7.4476633,34.094049 5.68504842,34.094049 C3.91152626,34.094049 2.13800411,34.0897476 0.366663409,34.0983505 C0.0656227486,34.1005316 -0.0085466896,34.0273764 0.013267851,33.7155207 C0.155062365,31.7346989 0.46919175,29.7839874 0.992740726,27.8655368 C1.90895143,24.4974946 3.40106601,21.3961429 5.42327393,18.5399743 Z M16.3124382,23.6952726 C16.4084222,23.4027734 16.5284021,23.342553 16.820717,23.4328836 C18.8603765,24.065198 20.9349393,24.5448107 23.0465869,24.8674201 C24.4187215,25.0803423 25.7930375,25.2502499 27.1826238,25.3147718 C27.5185677,25.3298269 27.8566931,25.36854 28.1948185,25.3706908 C28.4391413,25.3706908 28.5045849,25.4739258 28.500222,25.6954509 C28.4914962,26.3428204 28.4958591,26.9858885 28.4958591,27.6332581 L28.4958591,27.6332581 L28.4956596,33.7417719 C28.4932646,34.0922165 28.4621305,34.094049 28.0573869,34.094049 L28.0573869,34.094049 L21.4475811,34.094049 C19.2464939,34.094049 17.0432253,34.0875969 14.8399567,34.1005328 C14.5040128,34.102652 14.4145731,33.9951155 14.4342062,33.6789583 C14.6523516,30.2765044 15.2522515,26.9450247 16.3124382,23.6952726 Z M42.9063265,23.5296664 C43.6807427,23.3016891 43.5542184,23.2371672 43.7919969,23.9813196 C44.6536712,26.6869371 45.2230308,29.4506244 45.4608092,32.2788335 C45.5000754,32.743391 45.5306158,33.2100993 45.5851521,33.6746568 C45.6178739,33.9843619 45.5284343,34.102652 45.185946,34.1005354 C42.9739516,34.0854461 40.7575943,34.094049 38.5434184,34.094049 C36.3423313,34.094049 34.1390627,34.0875969 31.935794,34.1005354 C31.6085759,34.102652 31.5169549,34.0037184 31.5190985,33.6854105 C31.5300436,31.0464655 31.5278621,28.4075206 31.5213178,25.766425 C31.5213178,25.4911316 31.5780356,25.3792937 31.8899835,25.3663893 C35.639903,25.2158383 39.3134717,24.5985789 42.9063265,23.5296664 Z M31.6142477,6.02143901 C31.7713124,5.94616349 31.884748,6.0859609 31.9938207,6.18059299 C36.5094306,10.0841668 39.960491,14.7512495 42.3666348,20.1775397 C42.4866148,20.4506823 42.4189897,20.5367115 42.1506708,20.6162884 C39.8754143,21.2959189 37.563073,21.7905867 35.2027397,22.074483 C34.0923795,22.2056774 32.9820194,22.3110632 31.8629335,22.3540778 C31.5880703,22.3648314 31.5204452,22.2917066 31.5204452,22.0271669 C31.529171,19.4097293 31.5248081,16.7922916 31.5248081,14.1727033 C31.5248081,11.5767729 31.5248081,8.98084261 31.529171,6.38491228 C31.529171,6.26016997 31.4615459,6.09026235 31.6142477,6.02143901 Z M28.3317814,6.00138644 L28.3979118,6.01713756 C28.5724282,6.08811162 28.4938958,6.27307435 28.4938958,6.40641957 C28.4982587,9.00234991 28.4960773,11.5982802 28.4960773,14.1942106 C28.4960773,16.7901409 28.4917144,19.3860713 28.5048031,21.9820016 C28.5048031,22.2938573 28.4175449,22.3648314 28.105597,22.351927 C24.6327221,22.2056774 21.2405611,21.6185283 17.920388,20.6248914 C17.5190004,20.5044505 17.5190004,20.4979983 17.6847909,20.1323743 C19.5128494,15.9857681 21.9909813,12.2585542 25.1213678,8.95288313 C26.03976,7.98290419 27.0126885,7.07099494 28.0183388,6.1891959 C28.1274115,6.09456381 28.2364842,5.95261568 28.3979118,6.01713756 Z M22.8205882,6.81484308 C22.8489471,6.80624016 22.8838504,6.81269235 22.9623828,6.81269235 C22.6700679,7.13530175 22.4017491,7.42565021 22.1356117,7.72245086 C19.0510356,11.1507135 16.5968998,14.9725595 14.7775671,19.1901398 C14.685946,19.4073635 14.5921435,19.4804883 14.3500021,19.379404 C12.0791084,18.4524396 9.90201727,17.3534169 7.82309155,16.0586779 C7.57876869,15.9081268 7.61367196,15.8177962 7.78164392,15.6371349 C11.4224908,11.7486162 15.781036,8.96557243 20.8965458,7.34607323 C21.5291674,7.14820613 22.1770593,6.98905215 22.8205882,6.81484308 Z M37.0270897,6.77978619 C38.0850949,7.01851715 39.0449347,7.30026269 39.9873229,7.62932428 C44.7123524,9.28108443 48.7589496,11.9393859 52.162018,15.5633649 C52.4717845,15.8924265 52.4739659,15.8902758 52.0834856,16.1311574 C50.0590963,17.3785805 47.9452673,18.4539451 45.7376358,19.3572515 C45.4387766,19.4798431 45.3340668,19.4045675 45.2162682,19.1335756 C43.4209315,14.9805172 41.0060619,11.2124394 37.9803851,7.82504066 C37.6837074,7.49597906 37.3826667,7.1690682 37.0270897,6.77978619 Z"/>
    </g>
</svg>
