<?xml version="1.0" encoding="UTF-8"?>
<svg xmlns="http://www.w3.org/2000/svg" width="19" height="14" viewBox="0 0 19 14">
    <g id="sf_list-arrow-white" fill="none" fill-rule="evenodd">
        <path id="Fill-1" fill="#FFF" d="M8,1.82167316 L8,5 L8,5 L1,5 C0.44771525,5 -6.76353751e-17,5.44771525 0,6 L0,8 C6.76353751e-17,8.55228475 0.44771525,9 1,9 L8,9 L8,9 L8,12.1783268 C8,12.7306116 8.44771525,13.1783268 9,13.1783268 C9.19018402,13.1783268 9.37642456,13.1240935 9.53687549,13.0219883 L17.6742462,7.84366149 C18.1401876,7.54715334 18.2775404,6.92906588 17.9810322,6.46312451 C17.9024535,6.33964371 17.797727,6.2349172 17.6742462,6.15633851 L9.53687549,0.978011677 C9.07093412,0.68150353 8.45284666,0.818856299 8.15633851,1.28479767 C8.05423337,1.44524861 8,1.63148914 8,1.82167316 Z"/>
    </g>
</svg>
