<?xml version="1.0" encoding="UTF-8"?>
<svg xmlns="http://www.w3.org/2000/svg" width="148" height="75" viewBox="0 0 148 75">
    <g id="Symbols" fill="none" fill-rule="evenodd">
        <g id="Modules/Navigation" fill="#1D1D1B" transform="translate(-100 -77)">
            <g id="Navigation-Module" transform="translate(0 49)">
                <path id="Extract-Logo" d="M135.257686,34.7911179 L136.572386,53.4787674 L126.553167,54.1837217 C126.553167,54.1837217 125.956482,45.7070837 121.485469,45.4403628 C121.235247,45.4255831 120.998429,45.4145843 120.767798,45.4053041 C120.711429,45.4032418 120.655747,45.4008358 120.600753,45.3987736 C120.150146,45.3829628 119.737004,45.3771197 119.359607,45.3795257 C119.314237,45.3798694 119.268867,45.3802131 119.224528,45.3805568 C118.85435,45.3850251 118.518543,45.3967113 118.216076,45.4145843 C118.180673,45.4166466 118.145959,45.4187089 118.111587,45.4207712 C117.815307,45.4396754 117.550992,45.4637352 117.316924,45.4912322 L117.316924,45.4912322 L117.238214,45.5008562 C117.010676,45.5286969 116.812354,45.559631 116.641185,45.5909089 C116.621594,45.5946897 116.602346,45.5981268 116.583098,45.6019077 C116.418459,45.6331855 116.279943,45.664807 116.165487,45.6943663 C116.152082,45.6978035 116.138677,45.7015843 116.125616,45.7046777 C116.073028,45.7191136 116.023534,45.7328621 115.981257,45.7459232 C115.980226,45.7462669 115.979539,45.7462669 115.978507,45.7466106 C115.935543,45.7600154 115.899454,45.7720454 115.867145,45.7830442 L115.855716,45.7871257 L115.855716,45.7871257 L115.844803,45.7909495 C115.816275,45.8012609 115.790497,45.8108849 115.771592,45.8184465 C115.770905,45.8187903 115.770561,45.8187903 115.769874,45.819134 C115.749939,45.8270394 115.735846,45.8332262 115.725191,45.8380382 C115.722442,45.839413 115.719004,45.8407879 115.716598,45.841819 C115.711786,45.844225 115.705943,45.8473184 115.705943,45.8473184 L115.705943,45.8473184 L116.980086,63.9578745 C116.980086,63.9578745 116.990053,63.9585619 116.995896,63.9589057 C117.000365,63.9589057 117.006552,63.9592494 117.012738,63.9595931 C117.029237,63.9602805 117.052265,63.9609679 117.081137,63.9619991 C117.085949,63.9623428 117.09248,63.9623428 117.097979,63.9626865 C117.125476,63.9637176 117.158129,63.9644051 117.193875,63.9654362 C117.202811,63.9657799 117.21106,63.9661236 117.220684,63.9661236 C117.262274,63.9674985 117.309362,63.9685296 117.359888,63.9695607 C117.372949,63.9695607 117.386698,63.9699045 117.400446,63.9702482 C117.452003,63.9709356 117.50631,63.971623 117.564741,63.9723104 L117.564741,63.9723104 L117.588113,63.9723104 C117.646888,63.9726542 117.709787,63.9729979 117.774405,63.9729979 L117.831118,63.9726542 C117.89986,63.9723104 117.970665,63.971623 118.04422,63.9709356 C118.059687,63.9705919 118.075497,63.9702482 118.090965,63.9699045 C118.155926,63.9688733 118.222606,63.9671548 118.290318,63.9650925 C118.308535,63.9644051 118.326751,63.9640613 118.345312,63.9637176 C118.422647,63.9613116 118.501014,63.9578745 118.580411,63.9540937 C118.602065,63.9530625 118.624063,63.9520314 118.645717,63.9510003 L118.645717,63.9510003 L118.881847,63.9369081 C118.888034,63.9365643 118.893533,63.9362206 118.899376,63.9358769 C119.027237,63.9269404 119.154411,63.9149105 119.280554,63.9015057 C119.310457,63.8984123 119.34036,63.8949751 119.370262,63.891538 C119.622204,63.8623224 119.862115,63.8224518 120.074186,63.7702075 C120.099964,63.7636769 120.125399,63.7571464 120.150146,63.7506159 C120.25326,63.7227752 120.351218,63.6925285 120.436115,63.6574698 C121.447317,63.2395154 123.327081,61.6343779 123.340829,60.5936164 L123.340829,60.5936164 L123.354234,59.5528549 L131.803375,58.958576 L132.415871,67.6661888 L132.432713,67.9047253 L133.045209,76.6130256 L124.596411,77.2076483 L124.437272,76.1792604 C124.27779,75.1501851 122.192142,73.8248297 121.132477,73.5526094 C121.043455,73.5299243 120.942747,73.5137699 120.836884,73.5007088 C120.810762,73.4972717 120.784296,73.4941782 120.757142,73.4914285 C120.650592,73.4804297 120.539916,73.4725244 120.42271,73.4690872 L120.42271,73.4690872 C120.299317,73.4656501 120.173862,73.4666812 120.046689,73.4697747 C120.015067,73.4704621 119.983446,73.4714932 119.95148,73.4725244 C119.826713,73.4769926 119.70057,73.4828357 119.574771,73.4917723 L119.574771,73.4917723 C119.482656,73.4983028 119.397072,73.5055208 119.312175,73.5130824 C119.294646,73.514801 119.27746,73.5161758 119.260274,73.5178944 C119.17744,73.5254561 119.095636,73.5337052 119.015551,73.5426417 C119.001803,73.5440166 118.988054,73.5457351 118.974306,73.54711 C118.901095,73.5553591 118.829259,73.5639519 118.759485,73.5725447 C118.747455,73.5739196 118.735082,73.5752944 118.723396,73.577013 C118.647779,73.5862932 118.575255,73.5959172 118.505138,73.6055411 C118.488984,73.6079471 118.472829,73.6100094 118.457018,73.6124154 C118.387932,73.6220393 118.320908,73.6316633 118.258696,73.6409435 L118.258696,73.6409435 C118.194078,73.6505674 118.136335,73.659504 118.081684,73.6684405 C118.068623,73.6705028 118.055218,73.672565 118.042845,73.6746273 C117.992663,73.6825327 117.945918,73.6904381 117.904672,73.6973123 C117.895392,73.6986872 117.887487,73.700062 117.878894,73.7017806 C117.842117,73.7079674 117.807745,73.7138105 117.780248,73.7186225 C117.777499,73.7193099 117.773718,73.7199974 117.770968,73.7203411 C117.740378,73.7258405 117.716318,73.7303087 117.699132,73.7334022 C117.696039,73.7337459 117.693289,73.7344333 117.690883,73.734777 C117.678509,73.737183 117.668542,73.7389016 117.668542,73.7389016 L117.668542,73.7389016 L118.942684,91.8498014 L118.942684,91.8498014 L118.958409,91.8544845 L118.958409,91.8544845 C118.984961,91.862175 119.02655,91.8731738 119.088762,91.8858912 L119.088762,91.8858912 L119.110416,91.8903595 C119.177783,91.9034205 119.267149,91.9182002 119.379543,91.9319487 C119.391916,91.9336672 119.404977,91.9346984 119.418039,91.9364169 C119.535932,91.9498217 119.678229,91.9618517 119.846992,91.9697571 C119.865552,91.9707882 119.884456,91.9714756 119.903704,91.9725068 C120.077967,91.979381 120.279038,91.9821307 120.508638,91.9780062 C120.53476,91.9776625 120.560883,91.976975 120.587692,91.9762876 C120.823135,91.9707882 121.088481,91.9577271 121.384418,91.9350421 C121.418789,91.9322924 121.453504,91.9295427 121.488563,91.9264493 C121.79103,91.901702 122.125118,91.8662996 122.492547,91.8188673 C122.536542,91.8130242 122.580881,91.807181 122.625564,91.8009942 C122.999523,91.7508122 123.407853,91.6868817 123.851586,91.6081715 L123.851586,91.6081715 L124.017256,91.5782685 C124.24445,91.5366793 124.477143,91.4926841 124.722554,91.4431895 C128.11098,90.7560057 128.528434,85.5480525 128.542599,83.2082394 L128.542272,82.9076457 C128.537974,82.391694 128.515765,82.0759923 128.515765,82.0759923 L128.515765,82.0759923 L138.534985,81.371038 L139.850029,100.059719 L104.592687,102.540292 L103.942726,93.3047365 C103.942726,93.3047365 103.947882,93.3054239 103.9551,93.3061113 C103.958537,93.306455 103.965411,93.3067987 103.970567,93.3074862 C103.977098,93.3078299 103.983284,93.3085173 103.992565,93.3092047 L104.016968,93.3109233 C104.028654,93.3116107 104.039653,93.3126419 104.053745,93.3133293 C104.064057,93.3140167 104.076774,93.3147041 104.08846,93.3153916 C104.10324,93.3157353 104.118363,93.3167664 104.135205,93.3174538 C104.149985,93.3177975 104.166827,93.318485 104.183325,93.3188287 L104.20876,93.319645 L104.20876,93.319645 L104.295719,93.3205472 C104.314623,93.320891 104.334215,93.320891 104.354494,93.3205472 C104.376491,93.3205472 104.399864,93.3202035 104.423236,93.3195161 C104.445234,93.3191724 104.467232,93.318485 104.49026,93.3177975 C104.514664,93.3171101 104.540099,93.3157353 104.565877,93.3147041 C104.590281,93.313673 104.615372,93.3122981 104.640806,93.3105796 L104.640806,93.3105796 L104.712642,93.3057676 C104.779666,93.3006119 104.849096,93.2944251 104.921963,93.286176 C104.926088,93.2854886 104.930556,93.2848011 104.934681,93.2844574 C105.004111,93.2762083 105.07629,93.2655532 105.149845,93.253867 L105.149845,93.253867 L105.215494,93.2425245 C105.286986,93.2298071 105.359509,93.2157149 105.433407,93.1992167 L105.433407,93.1992167 L105.461936,93.1933736 C105.542708,93.1744694 105.625543,93.1521281 105.708721,93.1277245 C105.731062,93.121194 105.753404,93.1143197 105.776089,93.1071018 C105.848612,93.0847605 105.921135,93.0596694 105.994003,93.0325162 C106.008782,93.0270168 106.023218,93.0222048 106.037998,93.0167054 C106.122207,92.9840527 106.206417,92.9469317 106.290283,92.9070611 C106.311249,92.8970934 106.332216,92.8860946 106.353182,92.8754395 C106.423643,92.8403809 106.493417,92.8022288 106.562847,92.7609833 C106.579689,92.7510156 106.596874,92.7417354 106.613716,92.731424 C106.695176,92.6808983 106.775261,92.626248 106.853628,92.5667857 C106.872188,92.5530372 106.890061,92.5382576 106.908278,92.5238216 C106.972896,92.4729522 107.035795,92.4183019 107.09732,92.3609019 C107.114849,92.3444037 107.132378,92.3289366 107.149564,92.3124384 C107.222431,92.2406025 107.292892,92.1642983 107.36026,92.0821511 L107.36026,92.0821511 L107.40013,92.0299068 C107.455812,91.9594457 107.508744,91.8845164 107.559269,91.8058062 C107.574393,91.7824337 107.589516,91.7597487 107.604296,91.7353451 C107.662727,91.6387619 107.718065,91.537023 107.768247,91.4284099 C107.776496,91.4105368 107.783714,91.3909452 107.791619,91.3727284 C107.833896,91.2771763 107.872391,91.1764686 107.90745,91.0716363 C107.917761,91.0400147 107.928417,91.0087369 107.938384,90.9760842 C107.976536,90.8502854 108.011251,90.7196746 108.038405,90.5801274 C108.041154,90.5656914 108.042873,90.5498807 108.045623,90.5354447 C108.069339,90.4075837 108.087212,90.2725047 108.10096,90.1329574 C108.104741,90.0923993 108.108522,90.0514975 108.111615,90.010252 C108.123645,89.8511131 108.131551,89.6871623 108.129488,89.5125563 C108.114649,88.0891718 108.026938,86.3723087 107.904328,84.6028435 L107.856787,83.9372988 C107.832273,83.6037641 107.806699,83.2694386 107.780315,82.9359101 L107.726541,82.2703864 C107.361841,77.8469198 106.882843,73.7533375 106.882843,73.7533375 C106.882843,73.7533375 106.344246,70.2608746 103.63476,69.9312543 L103.63476,69.9312543 L103.107505,69.8480759 L103.617918,69.6923741 C106.112342,69.0248751 106.286543,65.8270909 106.298087,65.4833348 L106.298125,65.4229415 C106.28857,65.0405587 106.18689,61.1114965 105.941493,56.9021035 L105.901544,56.2356091 C105.75749,53.8980584 105.568716,51.5273968 105.326513,49.674901 C105.303828,49.5016699 105.273237,49.3404687 105.23921,49.1844232 L105.23921,49.1844232 L105.211369,49.0644675 C105.178029,48.9280137 105.141252,48.7970592 105.100006,48.6736664 L105.100006,48.6736664 L105.086602,48.6303586 C105.0402,48.4963107 104.987956,48.3718868 104.932275,48.2529623 C104.917839,48.2216844 104.902715,48.1914377 104.887592,48.161191 C104.838441,48.063233 104.786884,47.9693995 104.732234,47.8814091 C104.721235,47.8638797 104.711267,47.8449755 104.700269,47.8277899 C104.635307,47.7277696 104.566908,47.6349672 104.495416,47.5476642 C104.477199,47.5253229 104.458639,47.5043564 104.439735,47.4830463 C104.379241,47.4129289 104.317029,47.3469361 104.252755,47.2854116 C104.2366,47.2696008 104.22079,47.2527589 104.204291,47.2376355 C104.126269,47.1661433 104.046184,47.1004942 103.96438,47.0400008 L103.96438,47.0400008 L103.904574,46.9984116 C103.836175,46.9502919 103.766745,46.9059529 103.696284,46.8647074 C103.675662,46.8526775 103.655383,46.8399601 103.63476,46.8286176 C103.549519,46.781529 103.462904,46.7385649 103.375601,46.7000691 C103.356696,46.69182 103.337105,46.6849458 103.318201,46.6766967 C103.24499,46.64645 103.171435,46.618953 103.097881,46.593862 C103.074852,46.5863003 103.051823,46.5780512 103.028795,46.5708332 C102.940804,46.5433362 102.852814,46.5185889 102.764823,46.4983099 L102.764823,46.4983099 L102.718079,46.4883422 C102.642462,46.4715003 102.567876,46.4574081 102.493634,46.4453782 C102.469574,46.4415973 102.445858,46.4374728 102.422142,46.4340357 C102.336901,46.421662 102.252348,46.4113506 102.169513,46.4041327 L102.169513,46.4041327 L102.139267,46.4017267 C102.064337,46.3958836 101.991127,46.3921027 101.918947,46.3896967 C101.896606,46.3886656 101.874264,46.3879782 101.851923,46.3876345 C101.777681,46.3862596 101.70447,46.3859159 101.634697,46.3872908 C101.630572,46.3876345 101.626104,46.3872908 101.621979,46.3876345 C101.548769,46.389353 101.479339,46.3931339 101.411971,46.3976021 C101.387567,46.398977 101.363851,46.4006955 101.340135,46.4027578 C101.3147,46.4048201 101.289609,46.4068824 101.265206,46.4089446 C101.239771,46.4113506 101.21468,46.4137566 101.190276,46.4165063 C101.167248,46.4189123 101.144906,46.421662 101.123252,46.424068 C101.100224,46.4271614 101.077195,46.4299111 101.055541,46.4326608 C101.035262,46.4354105 101.01567,46.4381602 100.996423,46.4412536 C100.976144,46.4440033 100.956208,46.4470967 100.937304,46.4498464 C100.919775,46.4529398 100.903276,46.4556895 100.887122,46.4584392 C100.87028,46.4611889 100.853094,46.4639386 100.837971,46.4666883 C100.821817,46.4697818 100.807381,46.4725315 100.792945,46.4752812 C100.781259,46.4776871 100.768885,46.4800931 100.758917,46.4821554 C100.744481,46.4849051 100.733139,46.4873111 100.721453,46.4900608 C100.714235,46.4914356 100.704954,46.4931542 100.698768,46.4948728 C100.6888,46.496935 100.681926,46.4986536 100.675051,46.5000285 C100.671271,46.5010596 100.665084,46.5024344 100.662334,46.5031219 C100.654772,46.5051841 100.64996,46.5062153 100.64996,46.5062153 L100.64996,46.5062153 L100,37.2716911 L135.257686,34.7911179 Z M149.272461,80.5160874 C151.695978,80.345606 154.058314,81.7029268 154.22364,84.0532329 L154.22364,84.0532329 L154.459426,87.4068359 C154.521638,88.2894897 153.942826,89.3632476 152.695837,89.9403409 C154.011225,90.3397348 154.830292,91.3358137 154.892504,92.2208734 L154.892504,92.2208734 L155.13654,95.6889327 C155.220062,96.8768032 155.617394,97.8797563 156.009226,98.7613789 L156.009226,98.7613789 L151.306551,99.092374 C150.873474,98.3063035 150.542135,97.2328893 150.473049,96.250559 L150.473049,96.250559 L150.240355,92.9443883 C150.21114,92.5260901 149.819995,91.9950543 149.124664,92.0438615 L149.124664,92.0438615 L147.982164,92.1242902 L148.48639,99.2906961 L143.481249,99.6430015 L142.170673,81.0158454 Z M161.974013,79.1566357 C165.515627,78.9074441 168.293855,80.793051 168.472586,83.3320553 L168.472586,83.3320553 L169.199881,93.6685218 C169.378268,96.2051202 166.891852,98.4660611 163.350238,98.7152527 C159.816873,98.9637568 157.033146,97.0736817 156.854759,94.5370833 L156.854759,94.5370833 L156.127463,84.2006169 C155.948733,81.6616125 158.440992,79.4054836 161.974013,79.1566357 Z M178.629806,78.4503752 L183.29536,96.8414008 L178.126611,97.2050486 L177.696626,94.7805005 L175.299919,94.9492634 L175.101941,97.4178067 L170.650864,97.7309288 L172.649896,78.8714231 L178.629806,78.4503752 Z M189.148165,77.2448036 C192.426839,77.0141725 194.856199,78.9238392 195.034586,81.4628436 L195.034586,81.4628436 L195.167259,83.3494816 L190.790423,83.657448 L190.682154,82.1203656 C190.636097,81.468343 190.070689,81.0868221 189.42176,81.1325358 C188.768706,81.1782496 188.117715,81.5982663 188.168584,82.3228123 C188.299539,84.1840155 188.973903,84.4380191 191.729446,85.6956632 C194.269138,86.8543181 195.831655,89.0836374 195.993544,91.3861676 C196.173649,93.9461384 194.221705,96.5428864 190.383812,96.8130445 C186.562072,97.0818277 184.135805,95.5220603 183.932671,92.6317817 L183.932671,92.6317817 L183.7835,90.5131378 L188.163429,90.2048277 L188.27651,91.8120274 C188.32738,92.5338237 188.920627,93.0081469 189.876492,92.941123 C190.830638,92.8737553 191.24378,92.4228045 191.188099,91.6298598 C191.080173,90.0958708 189.876148,89.5981751 187.126448,88.1274292 C184.673716,86.8268211 183.524685,84.8006358 183.375513,82.6775236 C183.197127,80.1447061 185.092357,77.530085 189.148165,77.2448036 Z M208.037471,76.3812946 L208.30316,80.155258 L204.88219,80.3958568 L205.92742,95.2487057 L200.920559,95.601011 L199.875673,80.7481621 L196.358463,80.9956351 L196.093117,77.2216717 L208.037471,76.3812946 Z M219.536957,75.5722641 L219.794398,79.2286778 L214.955269,79.5692969 L215.21271,83.2250233 L218.404081,83.0002353 L218.653272,86.5401305 L215.461558,86.7645747 L215.733778,90.6309968 L220.572907,90.2903777 L220.847877,94.1990764 L210.999138,94.8920009 L209.688562,76.2651885 L219.536957,75.5722641 Z M162.387414,83.2729755 L162.264106,83.2770613 C161.68392,83.3176194 161.240531,83.6544577 161.274902,84.1432169 L161.274902,84.1432169 L161.959233,93.8744056 C161.993948,94.3659145 162.479958,94.6333228 163.060145,94.592421 C163.643425,94.5511755 164.087158,94.2188055 164.052443,93.7269529 L164.052443,93.7269529 L163.367767,83.9957642 C163.333396,83.5073487 162.847043,83.2358158 162.264106,83.2770613 Z M228.528992,74.9394894 C230.948041,74.7693517 233.314158,76.1263287 233.479483,78.4766349 L233.479483,78.4766349 L233.715614,81.8302379 C233.777826,82.7125479 233.200045,83.7863058 231.952025,84.3633991 C233.268788,84.762793 234.086823,85.7592156 234.149379,86.6439316 L234.149379,86.6439316 L234.393415,90.1123346 C234.476937,91.3002051 234.874956,92.3028145 235.267132,93.1844371 L235.267132,93.1844371 L230.562739,93.5154322 C230.130349,92.7293617 229.79901,91.6559475 229.729924,90.6736172 L229.729924,90.6736172 L229.49723,87.3677902 C229.467671,86.9491484 229.077214,86.4181125 228.37879,86.4672634 L228.37879,86.4672634 L227.236977,86.5476921 L227.741203,93.7137544 L222.736749,94.0660597 L221.426173,75.4392474 Z M241.093506,73.5895241 C244.374242,73.358893 246.802915,75.2685597 246.981302,77.8079078 L246.981302,77.8079078 L247.114318,79.6942021 L242.734733,80.0021685 L242.626464,78.4654298 C242.58075,77.8130635 242.016718,77.4315426 241.367101,77.4772564 C240.713704,77.5233138 240.064087,77.9433305 240.114957,78.6675328 C240.246255,80.5287361 240.919931,80.7827396 243.676849,82.0403837 C246.214823,83.1990386 247.774246,85.4287017 247.936135,87.7312318 C248.11624,90.2912026 246.169796,92.887607 242.327778,93.1581087 C238.506726,93.4268919 236.082521,91.8667808 235.879044,88.9765023 L235.879044,88.9765023 L235.730216,86.8578583 L240.107051,86.5498919 L240.220133,88.1570916 C240.271002,88.8788879 240.866656,89.3532112 241.821833,89.2858435 C242.777354,89.2188196 243.191871,88.767525 243.13619,87.9745803 C243.02792,86.4405913 241.820114,85.9432393 239.074539,84.4721497 C236.616307,83.1718853 235.467963,81.1453563 235.318792,79.0225878 C235.140405,76.4897703 237.039073,73.8748055 241.093506,73.5895241 Z M175.933038,84.9613214 L175.576951,90.9020485 L176.995109,90.8020282 L175.933038,84.9613214 Z M148.780031,84.3473038 L148.655497,84.3522628 L147.44116,84.4375035 L147.732629,88.5809579 L148.947309,88.4953735 C149.505498,88.4561902 149.790092,88.2259029 149.752283,87.6917736 L149.752283,87.6917736 L149.565648,85.0390004 C149.527839,84.5007466 149.21403,84.3130796 148.655497,84.3522628 Z M228.032995,78.7706381 L227.908247,78.7756648 L226.695973,78.8609055 L226.987785,83.0040161 L228.199715,82.9187754 C228.759623,82.8792485 229.04353,82.6493048 229.006065,82.1151755 L229.006065,82.1151755 L228.819085,79.4624024 C228.781277,78.9241486 228.467811,78.7361378 227.908247,78.7756648 Z M153.268359,60.8337684 L153.485929,63.9299307 L148.386267,64.2887666 L148.206161,61.7263898 C148.171446,61.238318 147.616007,60.9760653 147.013823,61.018342 C146.405108,61.061306 145.916349,61.3971132 145.95072,61.8851849 L146.635739,71.6194671 C146.670454,72.1106323 147.20149,72.3746035 147.809861,72.3319831 C148.412389,72.2893628 148.925552,71.9518371 148.890837,71.4610156 L148.710731,68.9010448 L153.810738,68.5418652 L154.028651,71.6397461 C154.163043,73.5497566 151.892478,76.1880938 148.099954,76.4548147 C144.322897,76.7208482 141.566667,74.4361911 141.432275,72.5261807 L140.671983,61.7202029 C140.537248,59.8088176 142.946329,57.1605127 146.723729,56.8948229 C150.516253,56.628102 153.133624,58.9223831 153.268359,60.8337684 Z M160.923421,55.8955819 C164.459192,55.6467341 167.238108,57.5354343 167.416494,60.0699704 L167.416494,60.0699704 L168.144134,70.4109051 C168.322864,72.9478472 165.835417,75.2067259 162.299646,75.4559174 C158.758376,75.705109 155.984616,73.816065 155.806229,71.2791229 L155.806229,71.2791229 L155.07859,60.9381882 C154.900203,58.4036521 157.381808,56.1451172 160.923421,55.8955819 Z M178.976509,55.094388 L179.233949,58.7511455 L174.390353,59.0921083 L174.663948,62.9798406 L178.275679,62.725837 L178.534151,66.3997801 L174.92242,66.6541273 L175.443832,74.0618195 L170.441783,74.4137811 L169.131207,55.7873125 L178.976509,55.094388 Z M190.452932,54.2870417 L190.710373,57.9434554 L185.868151,58.2844183 L186.141746,62.1724942 L189.75279,61.918147 L190.011262,65.5924338 L186.400218,65.8464373 L186.92163,73.2541294 L181.917519,73.6064348 L180.606943,54.9796224 L190.452932,54.2870417 Z M201.932243,53.4790423 L202.189683,57.1357998 L197.34643,57.4767626 L197.603527,61.1311141 L200.798679,60.9063261 L201.04787,64.4479398 L197.852719,64.6727278 L198.124595,68.5370876 L202.968192,68.1961248 L203.243162,72.1058547 L193.39408,72.7987791 L192.083504,54.1723105 L201.932243,53.4790423 Z M213.670334,52.6531699 L213.927775,56.3099274 L209.082804,56.6508902 L209.3399,60.3052416 L212.53024,60.0807974 L212.779432,63.6224111 L209.589092,63.8468554 L209.860969,67.7112152 L214.706284,67.3702524 L214.981254,71.2796385 L205.133203,71.9725629 L203.822627,53.3460943 L213.670334,52.6531699 Z M161.336474,60.0150234 L161.213515,60.019101 C160.630235,60.0603465 160.184439,60.3930602 160.219154,60.8811319 L160.219154,60.8811319 L160.90383,70.6157578 C160.938545,71.1065793 161.426273,71.3736439 162.009553,71.3327421 C162.590771,71.2918403 163.034504,70.9591266 163.000132,70.4679614 L163.000132,70.4679614 L162.315113,60.7336793 C162.280742,60.2456075 161.794733,59.9781992 161.213515,60.019101 Z M148.751668,33.8893194 L149.008765,37.5436709 L144.165511,37.88429 L144.422952,41.5393288 L147.61501,41.3148846 L147.863858,44.8527175 L144.6718,45.0771618 L144.943677,48.9418653 L149.78693,48.6009025 L150.0619,52.5116635 L140.213505,53.2049316 L138.903273,34.5822438 L148.751668,33.8893194 Z M163.556809,32.8475955 L160.198738,41.9535712 L164.731275,51.4795635 L159.564245,51.8432114 L157.560401,47.0501403 L156.021943,52.0924029 L151.106167,52.4381777 L154.479705,42.8204141 L150.075717,33.7962421 L155.224187,33.4336253 L157.175443,38.2328832 L158.645845,33.1930266 L163.556809,32.8475955 Z M176.457233,31.9398164 L176.72258,35.7093115 L173.300234,35.950254 L174.34512,50.8031029 L169.338947,51.1554082 L168.293718,36.3025593 L164.782007,36.5493449 L164.516661,32.7798498 L176.457233,31.9398164 Z M185.214272,31.3236086 C187.635727,31.1531272 189.997032,32.5046048 190.162358,34.8569732 L190.162358,34.8569732 L190.398488,38.21092 C190.4607,39.0952923 189.880857,40.1645819 188.636274,40.7440812 C189.950287,41.1455374 190.770385,42.1381792 190.832597,43.0235826 L190.832597,43.0235826 L191.076633,46.4923293 C191.160155,47.6795123 191.561611,48.6810906 191.9476,49.5644318 L191.9476,49.5644318 L187.245613,49.8954269 C186.816316,49.1093564 186.484977,48.0321614 186.416235,47.054643 L186.416235,47.054643 L186.183542,43.7484723 C186.154326,43.3298305 185.763181,42.7957012 185.06407,42.8448521 L185.06407,42.8448521 L183.923975,42.9249371 L184.428545,50.0934053 L179.419279,50.4460544 L178.109047,31.8237103 Z M200.370241,30.2569655 L205.034764,48.6435228 L199.867733,49.0071707 L199.436718,46.5812477 L197.039323,46.7500106 L196.839626,49.2202724 L192.390955,49.5333945 L194.385863,30.6780134 L200.370241,30.2569655 Z M211.212962,29.0230376 C215.005829,28.7563167 217.6232,31.0540349 217.757592,32.9623267 L217.757592,32.9623267 L217.975506,36.0602076 L212.875499,36.4193872 L212.69505,33.8583853 C212.660679,33.3668764 212.106958,33.1039363 211.503055,33.1462129 C210.895371,33.1888333 210.405237,33.5256716 210.439952,34.0171805 L210.439952,34.0171805 L211.124628,43.7500877 C211.158999,44.2388469 211.69141,44.5021307 212.299093,44.4595104 C212.902996,44.41689 213.41444,44.0800518 213.380069,43.5912926 L213.380069,43.5912926 L213.199964,41.0313217 L218.300314,40.6724859 L218.51754,43.7648674 C218.652275,45.675909 216.382054,48.3183708 212.58953,48.5850917 C208.814536,48.8507815 206.05315,46.5623435 205.918758,44.651302 L205.918758,44.651302 L205.15881,33.849105 C205.024418,31.9404694 207.438311,29.2887274 211.212962,29.0230376 Z M230.874349,28.110584 L231.139695,31.8804229 L227.714943,32.1210216 L228.760173,46.9742142 L223.752625,47.3265196 L222.707396,32.4736707 L219.189498,32.7211437 L218.924496,28.9516485 L230.874349,28.110584 Z M197.671067,36.7617249 L197.313262,42.7069203 L198.734857,42.6068999 L197.671067,36.7617249 Z M184.720187,35.1503948 L184.59559,35.1553157 L183.383316,35.2405564 L183.675128,39.3864168 L184.887402,39.3011761 C185.445934,39.2616491 185.733622,39.0275809 185.696157,38.4951702 L185.696157,38.4951702 L185.509178,35.8393036 C185.471713,35.3062055 185.154123,35.1161325 184.59559,35.1553157 Z"/>
            </g>
        </g>
    </g>
</svg>
