<?xml version="1.0" encoding="UTF-8"?>
<svg xmlns="http://www.w3.org/2000/svg" width="269" height="269" viewBox="0 0 269 269">
    <g id="Symbols" fill="none" fill-rule="evenodd">
        <g id="Modules/Footer" fill="#FFF" transform="translate(-1030 -351)">
            <path id="#MAKECOFFEEBETTER" d="M1149.2364,584.82075 L1149.34617,584.827836 L1155.78274,585.614991 C1156.3353,585.68287 1156.74376,586.205656 1156.67589,586.755831 L1156.67589,586.755831 L1153.87023,609.715534 C1153.81426,610.181159 1154.14889,610.608676 1154.61451,610.664647 L1154.61451,610.664647 L1163.04339,611.694737 C1163.59476,611.762616 1164.00441,612.285402 1163.93653,612.835577 L1163.93653,612.835577 L1163.18034,619.019692 C1163.11365,619.569868 1162.58968,619.979522 1162.0395,619.911643 L1162.0395,619.911643 L1135.01541,616.61059 C1134.46523,616.543903 1134.05558,616.021117 1134.12346,615.46975 L1134.12346,615.46975 L1134.87846,609.285635 C1134.94634,608.734269 1135.46793,608.324615 1136.0193,608.392493 L1136.0193,608.392493 L1144.44937,609.423775 C1144.9138,609.480936 1145.34251,609.145114 1145.39967,608.67949 L1145.39967,608.67949 L1148.20414,585.720978 C1148.27201,585.170802 1148.7948,584.761148 1149.34617,584.827836 Z M1191.51819,582.337279 C1192.05645,582.206285 1192.62687,582.550443 1192.75668,583.0899 L1192.75668,583.0899 L1198.25724,605.558971 C1198.36918,606.016259 1198.83362,606.297301 1199.28971,606.185361 L1199.28971,606.185361 L1207.53996,604.16686 C1208.07942,604.034675 1208.64746,604.378832 1208.77964,604.91829 L1208.77964,604.91829 L1210.26107,610.97022 C1210.39206,611.509678 1210.04791,612.077716 1209.50964,612.209901 L1209.50964,612.209901 L1183.05835,618.684585 C1182.52008,618.81677 1181.95323,618.472613 1181.81986,617.933155 L1181.81986,617.933155 L1180.33843,611.881225 C1180.20625,611.341767 1180.55159,610.773729 1181.08986,610.641544 L1181.08986,610.641544 L1189.34011,608.620661 C1189.79621,608.511103 1190.07725,608.045478 1189.9665,607.58938 L1189.9665,607.58938 L1184.46594,585.119119 C1184.33375,584.579661 1184.6791,584.011623 1185.21737,583.879438 L1185.21737,583.879438 Z M1106.92859,569.993581 C1107.17986,569.498185 1107.81102,569.292167 1108.30641,569.542247 L1108.30641,569.542247 L1129.27262,580.178972 C1129.76802,580.430243 1129.97404,581.060205 1129.72277,581.555602 L1129.72277,581.555602 L1115.59326,609.413295 C1115.34199,609.9075 1114.71084,610.113518 1114.21544,609.862248 L1114.21544,609.862248 L1093.24804,599.225522 C1092.75264,598.975443 1092.54662,598.344289 1092.7979,597.850084 L1092.7979,597.850084 L1095.61546,592.29355 C1095.86673,591.798154 1096.49788,591.592136 1096.99328,591.844597 L1096.99328,591.844597 L1110.50235,598.696782 C1110.92034,598.908755 1111.43598,598.739653 1111.64914,598.320472 L1111.64914,598.320472 L1113.03887,595.581503 C1113.25204,595.163513 1113.08294,594.64549 1112.66495,594.434709 L1112.66495,594.434709 L1101.85674,588.952008 C1101.36253,588.700737 1101.15651,588.069584 1101.40778,587.575378 L1101.40778,587.575378 L1103.97289,582.51305 C1104.22535,582.018844 1104.8565,581.812826 1105.35071,582.064097 L1105.35071,582.064097 L1116.15773,587.546798 C1116.57691,587.757579 1117.09255,587.589669 1117.30452,587.171678 L1117.30452,587.171678 L1118.46322,584.888807 C1118.67758,584.468435 1118.50728,583.953985 1118.0881,583.740822 L1118.0881,583.740822 L1104.58022,576.887446 C1104.08483,576.636176 1103.87881,576.006213 1104.12889,575.510817 L1104.12889,575.510817 Z M1229.61546,562.806051 C1230.07632,562.497619 1230.72652,562.627422 1231.03615,563.089474 L1231.03615,563.089474 L1248.37501,589.072761 C1248.68225,589.533622 1248.55245,590.186211 1248.09159,590.493452 L1248.09159,590.493452 L1228.53297,603.545233 C1228.07211,603.853665 1227.42071,603.723862 1227.11228,603.26181 L1227.11228,603.26181 L1223.65522,598.080395 C1223.34679,597.617152 1223.47659,596.966945 1223.93745,596.659704 L1223.93745,596.659704 L1236.53909,588.249879 C1236.92969,587.990273 1237.03568,587.456769 1236.77369,587.066168 L1236.77369,587.066168 L1235.06958,584.510592 C1234.80878,584.121182 1234.27647,584.014005 1233.88587,584.274802 L1233.88587,584.274802 L1223.80527,591.000757 C1223.34441,591.307997 1222.69182,591.180576 1222.38458,590.717333 L1222.38458,590.717333 L1219.23476,585.99678 C1218.92633,585.535919 1219.05733,584.885711 1219.51819,584.577279 L1219.51819,584.577279 L1229.59878,577.848943 C1229.98938,577.590527 1230.09537,577.057024 1229.83457,576.666423 L1229.83457,576.666423 L1228.41388,574.535982 C1228.15309,574.145381 1227.61958,574.039395 1227.23017,574.300192 L1227.23017,574.300192 L1214.62972,582.710017 C1214.16767,583.016067 1213.51627,582.886264 1213.20784,582.425403 L1213.20784,582.425403 L1209.77341,577.279714 C1209.46617,576.817662 1209.59598,576.166264 1210.05684,575.859023 L1210.05684,575.859023 Z M1079.94403,542.834682 C1080.05597,542.385729 1080.574,542.258307 1080.86099,542.573884 L1080.86099,542.573884 L1086.34846,548.601997 C1086.77836,549.074767 1086.9284,549.745219 1086.80932,550.373991 L1086.80932,550.373991 L1084.85393,559.192279 C1084.73961,559.700775 1084.92419,560.283103 1085.26835,560.662986 L1085.26835,560.662986 L1087.04987,562.618372 C1087.36426,562.964911 1087.90729,562.99111 1088.25383,562.675533 L1088.25383,562.675533 L1093.46025,557.934735 C1093.87109,557.561997 1094.5344,557.591769 1094.90595,558.002614 L1094.90595,558.002614 L1099.24424,562.767229 C1099.61817,563.176883 1099.5872,563.84019 1099.17636,564.214119 L1099.17636,564.214119 L1076.0809,585.238681 C1075.67124,585.6138 1075.00794,585.581647 1074.63401,585.173184 L1074.63401,585.173184 L1064.38074,573.907686 C1058.63486,567.598531 1060.09485,560.9607 1064.9845,556.50809 C1068.23554,553.550004 1072.4988,552.149557 1076.77993,553.619073 C1077.22412,553.791747 1077.65997,553.510705 1077.77191,553.061753 L1077.77191,553.061753 Z M1077.00024,563.051843 C1074.70427,560.52961 1072.29636,560.990472 1070.59224,562.542157 C1068.69878,564.262944 1068.14027,566.504135 1070.43862,569.027559 L1070.43862,569.027559 L1074.77572,573.792173 C1075.09249,574.138712 1075.63433,574.16372 1075.98087,573.849334 L1075.98087,573.849334 L1081.28137,569.023986 C1081.6291,568.706027 1081.65529,568.165379 1081.33853,567.817649 L1081.33853,567.817649 Z M1253.37006,533.837408 C1253.69278,533.386073 1254.34775,533.277705 1254.79908,533.600427 L1254.79908,533.600427 L1280.21195,551.772889 C1280.66328,552.095611 1280.77165,552.749391 1280.45012,553.201916 L1280.45012,553.201916 L1271.41271,565.83928 C1267.24115,571.673283 1261.9728,572.36398 1257.66785,569.285617 C1255.20159,567.521959 1254.2108,565.240279 1254.25724,562.753772 C1254.25724,562.388179 1253.94405,562.163108 1253.60823,562.341736 C1250.78233,563.944628 1247.73612,564.019652 1244.8209,561.935654 C1240.34209,558.733442 1239.56565,553.139992 1243.48833,547.6561 L1243.48833,547.6561 Z M1266.15032,552.212315 C1265.76806,551.939609 1265.23336,552.027732 1264.96066,552.409997 L1264.96066,552.409997 L1261.3607,557.444936 C1260.0186,559.319343 1260.39015,560.634048 1261.67509,561.553389 C1262.96002,562.470348 1264.34975,562.36198 1265.39175,560.904373 L1265.39175,560.904373 L1269.26441,555.489551 C1269.53831,555.107286 1269.4478,554.571401 1269.06792,554.297504 L1269.06792,554.297504 Z M1255.97922,544.937376 C1255.59457,544.66467 1255.05988,544.753984 1254.78836,545.13744 L1254.78836,545.13744 L1250.31789,551.385861 C1248.97818,553.259077 1249.48906,554.673814 1250.91094,555.691996 C1252.30186,556.68517 1253.73446,556.661353 1255.07417,554.786946 L1255.07417,554.786946 L1259.54464,548.537334 C1259.81616,548.155069 1259.72804,547.619184 1259.34696,547.344096 L1259.34696,547.344096 Z M1058.99962,512.176928 C1059.51764,511.976865 1060.12378,512.247189 1060.32266,512.767593 L1060.32266,512.767593 L1061.61831,516.154387 C1061.78622,516.593813 1062.2578,516.868901 1062.76629,516.765296 L1062.76629,516.765296 L1067.78932,515.805466 C1068.37761,515.6709 1068.95994,515.997194 1069.1731,516.555706 L1069.1731,516.555706 L1070.957,521.217907 C1071.1392,521.696631 1070.85459,522.263478 1070.30441,522.381373 L1070.30441,522.381373 L1065.28138,523.343585 C1064.86696,523.455525 1064.59069,523.928295 1064.74192,524.327232 L1064.74192,524.327232 L1065.68865,526.797067 C1065.85657,527.236493 1066.32695,527.513962 1066.83545,527.411549 L1066.83545,527.411549 L1071.86086,526.446955 C1072.44914,526.31477 1073.03147,526.639874 1073.24464,527.198385 L1073.24464,527.198385 L1075.02735,531.861777 C1075.21074,532.340502 1074.92493,532.906158 1074.37595,533.025244 L1074.37595,533.025244 L1069.35173,533.986265 C1068.93731,534.099396 1068.66103,534.570975 1068.81227,534.968721 L1068.81227,534.968721 L1069.63634,537.121788 C1069.83521,537.641001 1069.5637,538.245956 1069.04568,538.444829 L1069.04568,538.444829 L1064.14292,540.319237 C1063.6249,540.518109 1063.01876,540.247785 1062.82107,539.729763 L1062.82107,539.729763 L1061.53971,536.379885 C1061.3718,535.94165 1060.88593,535.626073 1060.37625,535.728487 L1060.37625,535.728487 L1057.28359,536.363213 C1056.85488,536.437046 1056.57861,536.907434 1056.73104,537.30518 L1056.73104,537.30518 L1057.5694,539.497546 C1057.76708,540.01795 1057.49676,540.622905 1056.97754,540.821778 L1056.97754,540.821778 L1052.03549,542.711666 C1051.51747,542.909348 1050.91132,542.639024 1050.71245,542.119811 L1050.71245,542.119811 L1049.4168,538.731826 C1049.24889,538.293591 1048.77731,538.017312 1048.26881,538.120916 L1048.26881,538.120916 L1043.24578,539.083128 C1042.6575,539.216504 1042.07517,538.890209 1041.86201,538.331698 L1041.86201,538.331698 L1040.07811,533.668306 C1039.89471,533.189582 1040.18171,532.623925 1040.7307,532.50484 L1040.7307,532.50484 L1045.75373,531.543819 C1046.16695,531.430688 1046.44442,530.959109 1046.29199,530.560172 L1046.29199,530.560172 L1045.50007,528.488083 C1045.33097,528.048657 1044.70815,527.375823 1044.19966,527.477046 L1044.19966,527.477046 L1039.17544,528.439257 C1038.58715,528.571442 1038.00483,528.24753 1037.79166,527.690209 L1037.79166,527.690209 L1036.00776,523.024435 C1035.82437,522.546902 1036.11136,521.980055 1036.66035,521.86216 L1036.66035,521.86216 L1041.68338,520.901139 C1042.09661,520.786817 1042.37408,520.316429 1042.22165,519.917492 L1042.22165,519.917492 L1041.39757,517.764425 C1041.19989,517.247593 1041.47141,516.640256 1041.99062,516.442574 L1041.99062,516.442574 L1046.93267,514.551495 C1047.4495,514.353813 1048.05565,514.624137 1048.25333,515.14216 L1048.25333,515.14216 L1049.53469,518.492038 C1049.7026,518.930273 1050.18966,519.24704 1050.69816,519.142245 L1050.69816,519.142245 L1053.792,518.507519 C1054.21952,518.436067 1054.49699,517.965679 1054.34575,517.565552 L1054.34575,517.565552 L1053.5062,515.373186 C1053.30732,514.855163 1053.57765,514.249018 1054.09686,514.051336 L1054.09686,514.051336 Z M1191.09508,430.214242 L1192.64676,461.275338 L1175.99383,462.107746 C1175.99383,462.107746 1175.29004,448.01873 1167.87934,447.425683 C1160.72407,446.854595 1158.4329,447.832434 1158.28093,447.901758 L1158.2727,447.905598 L1159.77556,478.006864 C1159.77556,478.006864 1159.80908,478.009148 1159.87128,478.012804 L1160.0325,478.021679 C1160.95007,478.069125 1164.08682,478.183364 1165.52264,477.6246 C1167.21365,476.964866 1170.38847,474.364036 1170.44563,472.637295 L1170.44563,472.637295 L1170.50399,470.910554 L1184.54656,470.207949 L1185.26941,484.682803 L1185.28965,485.078167 L1186.0125,499.551831 L1171.96993,500.254436 L1171.74009,498.541985 C1171.51026,496.828343 1168.0925,494.558572 1166.34433,494.071511 C1164.59496,493.583261 1160.58892,494.263239 1160.58892,494.263239 L1160.58892,494.263239 L1162.09178,524.364506 C1162.09178,524.364506 1164.3806,525.212395 1171.69841,523.884591 C1179.01384,522.554404 1178.31005,508.465388 1178.31005,508.465388 L1178.31005,508.465388 L1194.96179,507.63417 L1196.51466,538.696457 L1137.91502,541.623581 L1137.14692,526.273448 C1137.14692,526.273448 1144.15273,527.215415 1144.22418,520.120295 C1144.25038,517.461964 1144.1361,514.184194 1143.95949,510.857956 L1143.91766,510.089762 L1143.91766,510.089762 L1143.87383,509.321407 C1143.86637,509.193421 1143.85884,509.065493 1143.85123,508.937656 L1143.8048,508.171983 C1143.79694,508.044638 1143.78901,507.91745 1143.78103,507.79045 L1143.73248,507.030966 C1143.28188,500.094499 1142.68678,493.923845 1142.68678,493.923845 C1142.68678,493.923845 1141.91153,488.108896 1137.42439,487.469406 L1137.42439,487.469406 L1136.55387,487.314595 L1137.40534,487.074042 C1141.80555,485.990363 1141.99728,480.12897 1141.99728,480.12897 L1141.99656,479.979352 C1141.99053,478.857823 1141.94053,471.609756 1141.62767,464.30399 L1141.59375,463.535011 C1141.43669,460.076006 1141.21891,456.651833 1140.91717,453.907512 C1140.13835,446.854072 1133.26116,448.490308 1133.26116,448.490308 L1133.26116,448.490308 L1132.49544,433.142557 L1191.09508,430.214242 Z M1264.20161,500.828905 C1264.34689,500.293019 1264.92088,499.960771 1265.45558,500.104864 L1265.45558,500.104864 L1295.63544,508.171722 C1296.17132,508.313434 1296.50357,508.889809 1296.36067,509.425694 L1296.36067,509.425694 L1290.2885,532.142462 C1290.1444,532.678347 1289.56922,533.009405 1289.03452,532.866503 L1289.03452,532.866503 L1283.01475,531.258847 C1282.47767,531.117135 1282.14542,530.540761 1282.28952,530.004876 L1282.28952,530.004876 L1286.20148,515.368065 C1286.32295,514.914349 1286.05024,514.443961 1285.59771,514.323684 L1285.59771,514.323684 L1282.62891,513.529383 C1282.17639,513.409107 1281.706,513.679431 1281.58453,514.133147 L1281.58453,514.133147 L1278.45377,525.842834 C1278.31206,526.378719 1277.73687,526.710968 1277.20099,526.569256 L1277.20099,526.569256 L1271.7171,525.102122 C1271.18121,524.959219 1270.84896,524.382845 1270.99187,523.84815 L1270.99187,523.84815 L1274.12144,512.138464 C1274.2429,511.685938 1273.97139,511.21555 1273.51767,511.092892 L1273.51767,511.092892 L1271.04426,510.433158 C1270.59055,510.311691 1270.12016,510.583206 1269.99869,511.036922 L1269.99869,511.036922 L1266.08673,525.672542 C1265.94383,526.209618 1265.36864,526.541867 1264.83276,526.398964 L1264.83276,526.398964 L1258.85347,524.802026 C1258.31878,524.656742 1257.98653,524.082749 1258.13062,523.545673 L1258.13062,523.545673 Z M1057.46937,525.738396 C1057.30146,525.29897 1056.81559,524.982203 1056.3059,525.084616 L1056.3059,525.084616 L1053.21325,525.720533 C1052.78454,525.791985 1052.50826,526.264754 1052.6595,526.6625 L1052.6595,526.6625 L1053.60504,529.134717 C1053.77295,529.571761 1054.25882,529.88972 1054.76851,529.786116 L1054.76851,529.786116 L1057.86235,529.15258 C1058.28987,529.078747 1058.56734,528.607168 1058.4161,528.208231 L1058.4161,528.208231 Z M1033.47969,460.314794 L1064.66464,462.077261 C1065.21958,462.107032 1065.66138,462.602428 1065.63042,463.156176 L1065.63042,463.156176 L1065.26721,469.590371 C1065.23625,470.142928 1064.74085,470.584736 1064.18591,470.554964 L1064.18591,470.554964 L1049.01917,469.697548 C1048.80601,469.68683 1048.70479,469.979781 1048.91199,470.077431 L1048.91199,470.077431 L1060.71338,476.811721 C1061.20758,477.139207 1061.55769,477.758452 1061.52435,478.35388 L1061.52435,478.35388 L1061.32429,481.890722 C1061.28975,482.487341 1060.87414,483.061334 1060.3454,483.331658 L1060.3454,483.331658 L1047.86047,488.695273 C1047.64254,488.767915 1047.71161,489.071584 1047.92358,489.083492 L1047.92358,489.083492 L1063.09152,489.940908 C1063.64526,489.971871 1064.08826,490.467267 1064.0573,491.021015 L1064.0573,491.021015 L1063.6929,497.452828 C1063.66075,498.007767 1063.16773,498.449574 1062.61279,498.418612 L1062.61279,498.418612 L1031.42547,496.657336 C1030.87172,496.626374 1030.42991,496.130978 1030.46087,495.576039 L1030.46087,495.576039 L1030.82885,489.057293 C1030.86338,488.461865 1031.27899,487.886682 1031.80773,487.616358 L1031.80773,487.616358 L1049.68367,479.865076 C1050.03497,479.713837 1050.05998,479.288702 1049.72654,479.098165 L1049.72654,479.098165 L1032.8402,469.340291 C1032.34719,469.012806 1031.99589,468.395942 1032.03042,467.798133 L1032.03042,467.798133 L1032.39839,461.279387 C1032.42936,460.725639 1032.92475,460.283831 1033.47969,460.314794 L1033.47969,460.314794 Z M1295.43966,462.299474 C1295.99341,462.253031 1296.50072,462.681739 1296.54835,463.233105 L1296.54835,463.233105 L1298.54661,486.656051 C1298.59424,487.21099 1298.16434,487.717104 1297.61417,487.764738 L1297.61417,487.764738 L1291.40742,488.293478 C1290.85368,488.339922 1290.34637,487.913595 1290.29874,487.361038 L1290.29874,487.361038 L1289.01142,472.26813 C1288.97212,471.801314 1288.55651,471.451202 1288.08851,471.491691 L1288.08851,471.491691 L1285.02801,471.751298 C1284.56119,471.791787 1284.21108,472.207396 1284.25038,472.674211 L1284.25038,472.674211 L1285.27928,484.747109 C1285.32691,485.302048 1284.8994,485.808162 1284.34803,485.856987 L1284.34803,485.856987 L1278.69265,486.336902 C1278.1401,486.384536 1277.63279,485.957019 1277.58397,485.405653 L1277.58397,485.405653 L1276.55507,473.331564 C1276.51577,472.863558 1276.10016,472.513446 1275.63335,472.553935 L1275.63335,472.553935 L1273.08134,472.771862 C1272.61334,472.81116 1272.26441,473.225578 1272.3049,473.693584 L1272.3049,473.693584 L1273.59341,488.785302 C1273.63985,489.337859 1273.21114,489.846355 1272.65859,489.893989 L1272.65859,489.893989 L1266.49472,490.420347 C1265.94097,490.46679 1265.43366,490.038082 1265.38722,489.485525 L1265.38722,489.485525 L1263.38777,466.061388 C1263.34133,465.508831 1263.76885,465.000336 1264.32141,464.953892 L1264.32141,464.953892 Z M1049.35869,420.165683 L1049.49528,420.174016 L1083.19769,423.527467 C1083.65617,423.57391 1083.97175,424.076451 1083.73238,424.532549 L1083.73238,424.532549 L1080.36464,430.957217 C1080.08837,431.487148 1079.49056,431.800343 1078.89989,431.731273 L1078.89989,431.731273 L1075.58574,431.343054 C1075.09153,431.275176 1074.57113,431.533591 1074.33177,431.987307 L1074.33177,431.987307 L1069.04199,442.07743 C1068.80501,442.532337 1068.88956,443.10752 1069.22657,443.476686 L1069.22657,443.476686 L1071.43084,445.982247 C1071.82263,446.428818 1071.90599,447.095697 1071.62733,447.625628 L1071.62733,447.625628 L1068.26078,454.050296 C1068.02261,454.506394 1067.43076,454.531402 1067.13185,454.183672 L1067.13185,454.183672 L1045.21653,428.337334 C1044.82474,427.890763 1044.76162,427.183394 1045.0379,426.653464 L1045.0379,426.653464 L1048.01028,420.98618 C1048.28894,420.45744 1048.90461,420.106137 1049.49528,420.174016 Z M1280.27542,420.511862 C1280.78034,420.280836 1281.40078,420.513053 1281.633,421.017976 L1281.633,421.017976 L1291.03004,441.638838 C1291.25988,442.14257 1291.02647,442.765388 1290.52274,442.994032 L1290.52274,442.994032 L1284.85307,445.580571 C1284.34815,445.810406 1283.72652,445.576998 1283.49669,445.072076 L1283.49669,445.072076 L1277.54955,432.023867 C1277.35425,431.596349 1276.84576,431.407003 1276.41943,431.602304 L1276.41943,431.602304 L1272.61226,433.33619 C1272.18594,433.53149 1271.9954,434.039986 1272.18951,434.467503 L1272.18951,434.467503 L1277.05654,445.144718 C1277.28756,445.652022 1277.05535,446.273649 1276.55042,446.503484 L1276.55042,446.503484 L1271.38449,448.857807 C1270.88076,449.087642 1270.25794,448.854234 1270.02811,448.349311 L1270.02811,448.349311 L1265.16108,437.672097 C1264.96578,437.242198 1264.45966,437.054042 1264.03096,437.248152 L1264.03096,437.248152 L1255.37105,441.195839 C1254.86613,441.424484 1254.2445,441.193458 1254.01348,440.688535 L1254.01348,440.688535 L1251.34119,434.823569 C1251.11136,434.318646 1251.34358,433.697019 1251.8485,433.465993 L1251.8485,433.465993 Z M1057.05721,429.003022 C1056.75354,428.939907 1056.55586,429.31979 1056.78093,429.531762 L1056.78093,429.531762 L1062.57326,436.038599 C1062.85311,436.329168 1063.35089,436.301779 1063.54857,435.923086 L1063.54857,435.923086 L1066.14463,430.972698 C1066.34232,430.594006 1066.0839,430.16887 1065.68377,430.103373 L1065.68377,430.103373 Z M1090.2547,374.111112 C1090.54884,373.863414 1091.01566,374.086104 1091.0109,374.479087 L1091.0109,374.479087 L1090.21302,391.978715 C1090.19873,392.491974 1090.52145,392.944499 1090.99899,393.046913 L1090.99899,393.046913 L1111.98902,398.268816 C1112.40462,398.365275 1112.51061,398.888061 1112.18312,399.16434 L1112.18312,399.16434 L1105.64771,404.651804 C1105.15707,405.06384 1104.44732,405.215079 1103.88405,405.074558 L1103.88405,405.074558 L1090.60005,401.797322 C1090.18444,401.699672 1089.73073,402.023585 1089.75454,402.451102 L1089.75454,402.451102 L1089.6688,404.139736 C1089.65332,404.651804 1089.87601,405.247232 1090.2035,405.639024 L1090.2035,405.639024 L1095.44564,411.882682 C1095.80171,412.305435 1095.74336,412.967551 1095.3206,413.324808 L1095.3206,413.324808 L1090.35235,417.496377 C1089.92603,417.852443 1089.26629,417.795281 1088.90904,417.368955 L1088.90904,417.368955 L1068.82168,393.44704 C1068.46323,393.023096 1068.52158,392.36098 1068.94672,392.004914 L1068.94672,392.004914 L1073.91497,387.833345 C1074.33891,387.476089 1074.99984,387.53325 1075.35709,387.957194 L1075.35709,387.957194 L1081.53168,395.313112 C1081.72341,395.540565 1082.09972,395.391708 1082.09377,395.11662 L1082.09377,395.11662 L1082.57964,381.559916 C1082.60345,380.92519 1082.90236,380.284509 1083.39299,379.874855 L1083.39299,379.874855 Z M1252.42821,386.134351 C1252.82953,385.753277 1253.49402,385.769949 1253.87629,386.172459 L1253.87629,386.172459 L1269.49436,402.584835 C1269.87782,402.986154 1269.86115,403.650652 1269.45983,404.032916 L1269.45983,404.032916 L1264.94529,408.328334 C1264.54398,408.709408 1263.87948,408.692736 1263.4984,408.291417 L1263.4984,408.291417 L1253.61311,397.905962 C1253.29158,397.565378 1252.74855,397.552278 1252.40796,397.876191 L1252.40796,397.876191 L1249.38081,400.758062 C1249.03903,401.081975 1249.02593,401.625006 1249.34865,401.96559 L1249.34865,401.96559 L1257.43695,410.46592 C1257.82159,410.867239 1257.80373,411.529355 1257.40241,411.91281 L1257.40241,411.91281 L1253.29039,415.824772 C1252.89026,416.205846 1252.22457,416.190365 1251.8435,415.789046 L1251.8435,415.789046 L1243.7552,407.288717 C1243.43129,406.949323 1242.88945,406.935032 1242.54768,407.257754 L1242.54768,407.257754 L1235.655,413.816989 C1235.25249,414.201635 1234.59038,414.183773 1234.20692,413.782454 L1234.20692,413.782454 L1229.76622,409.11549 C1229.38395,408.711789 1229.40063,408.048483 1229.80075,407.666218 L1229.80075,407.666218 Z M1197.58548,372.509649 C1201.57366,363.87118 1212.15203,360.200962 1220.8691,364.227246 C1229.70048,368.307118 1233.65055,378.683046 1229.65999,387.322706 C1225.67063,395.961175 1215.20896,399.684982 1206.37638,395.60511 C1197.6605,391.580016 1193.59492,381.148118 1197.58548,372.509649 Z M1131.87417,355.956275 C1132.39695,355.772883 1132.99476,356.057497 1133.18054,356.581474 L1133.18054,356.581474 L1135.25382,362.458348 C1135.4384,362.979943 1135.1514,363.580135 1134.62743,363.763526 L1134.62743,363.763526 L1120.33834,368.806801 C1119.89535,368.962804 1119.66194,369.453436 1119.81913,369.895244 L1119.81913,369.895244 L1120.8397,372.793787 C1120.9957,373.236786 1121.48752,373.470193 1121.93052,373.314191 L1121.93052,373.314191 L1133.36155,369.280762 C1133.88433,369.094989 1134.48333,369.383176 1134.66911,369.905961 L1134.66911,369.905961 L1136.5578,375.26005 C1136.74239,375.782836 1136.45539,376.381836 1135.93141,376.566419 L1135.93141,376.566419 L1124.50158,380.601039 C1124.0562,380.757041 1123.82279,381.245292 1123.97998,381.68829 L1123.97998,381.68829 L1124.83144,384.104537 C1124.98745,384.547536 1125.47808,384.780943 1125.91989,384.624941 L1125.91989,384.624941 L1140.21016,379.584048 C1140.73294,379.398274 1141.33194,379.685271 1141.51772,380.209247 L1141.51772,380.209247 L1143.57552,386.044441 C1143.7601,386.567227 1143.4731,387.167419 1142.95032,387.35081 L1142.95032,387.35081 L1120.77301,395.178307 C1120.24903,395.361699 1119.65003,395.074702 1119.46545,394.551917 L1119.46545,394.551917 L1109.07047,365.088949 C1108.88469,364.564972 1109.1705,363.964781 1109.69566,363.781389 L1109.69566,363.781389 Z M1217.41561,371.702249 C1212.88322,369.609915 1207.52079,371.55101 1205.4094,376.122706 C1203.29921,380.694402 1205.29746,386.036582 1209.82986,388.128916 C1214.47896,390.274838 1219.72468,388.280154 1221.83488,383.708458 C1223.94627,379.137953 1222.06352,373.850553 1217.41561,371.702249 Z M1169.16487,351.919899 L1169.49152,351.92618 C1175.97573,352.109572 1181.55013,355.72501 1184.47725,360.930242 C1184.72019,361.363713 1184.53084,362.04012 1184.05569,362.240183 L1184.05569,362.240183 L1178.09665,364.676675 C1177.53218,364.960098 1176.94032,364.770752 1176.61522,364.208668 C1175.05877,361.856728 1172.3722,360.246691 1169.2593,360.158567 C1164.26962,360.016855 1160.104,363.910954 1159.95991,368.945893 C1159.8182,373.978451 1163.75755,378.103576 1168.74724,378.242906 C1171.903,378.33222 1174.63364,376.873422 1176.31989,374.615559 C1176.67714,374.070147 1177.27972,373.917717 1177.82632,374.189232 L1177.82632,374.189232 L1183.68176,376.959163 C1184.14619,377.142555 1184.3403,377.83087 1184.02949,378.24886 C1180.85467,383.367159 1174.99804,386.658685 1168.51383,386.476484 C1158.91672,386.203778 1151.07493,378.214325 1151.34407,368.701768 C1151.61439,359.18921 1159.89441,351.653474 1169.49152,351.92618 Z"/>
        </g>
    </g>
</svg>
