<?xml version="1.0" encoding="UTF-8"?>
<svg xmlns="http://www.w3.org/2000/svg" width="117" height="88" viewBox="0 0 117 88">
    <g id="sf_make-coffee-better" fill="none" fill-rule="evenodd">
        <path id="Combined-Shape" fill="#1D1D1B" d="M115.261781,35.7822349 C117.666277,57.6369974 94.1719345,78.1523782 62.784442,81.6043172 C52.1965798,82.7689557 42.0685948,81.8355786 33.1943375,79.2581643 C30.5880944,81.8311463 27.3828756,83.8007829 23.8887544,84.9048459 C18.3376022,86.6604046 12.1216706,86.2173585 6.87452951,83.6918257 L8.02068582,83.3818605 C10.8877003,82.5972643 13.7507407,81.7128753 16.2463845,80.1174056 C18.4758338,78.6924548 20.2661753,76.8083101 21.7674501,74.6624287 C10.454853,68.6373581 2.81837509,59.3528047 1.60033058,48.2823422 C-0.804165265,26.4275796 22.6901775,5.91219881 54.07767,2.46025981 C85.4640748,-0.992332682 112.857939,13.9263847 115.261781,35.7822349 Z M40.3836039,59.2653131 C40.226665,57.7983372 38.7403074,56.6652625 36.6480927,56.886951 C35.4153922,57.0192343 33.2145976,57.3257665 33.3551127,58.6467747 C33.3833982,58.9232012 33.5084019,59.1293806 33.9308595,59.3638413 C33.6918014,60.9758727 33.5029273,62.1116843 33.3359515,63.009386 C32.8651348,65.365853 32.4070921,66.2954851 32.4965108,67.1384489 C32.5886668,68.0096939 33.2967168,68.5807928 34.413538,68.4612817 C36.8981,68.1976274 40.5140822,66.4323299 40.2658997,64.109618 C40.155495,63.0641239 38.8206017,62.5304293 38.1663854,62.321513 C38.6481514,62.1509132 40.622662,61.5159534 40.3836039,59.2653131 Z M49.5601509,56.9387695 C49.5117918,56.4880941 49.0181641,55.5721464 47.5226822,55.7308864 C46.7243011,55.8166424 45.0317331,56.0684368 44.3647427,56.2864761 C43.9121747,56.4516022 43.8765897,57.0874742 43.908525,57.3784974 C43.9285985,57.5664309 44.0335286,57.7169601 44.325508,57.8465065 C43.956884,58.7971215 43.6001217,60.5678928 43.3829621,61.4135935 C43.0654345,62.857762 42.6402395,64.6495162 42.7561188,65.7388006 C42.8911593,67.0169307 43.5152652,67.4940628 44.6202247,67.3763763 C45.60748,67.271462 46.4195476,66.9056303 47.4478625,66.6200809 C48.7599449,66.259723 49.4543083,66.02435 49.4068617,65.5745869 C49.3758389,65.2844759 49.0464496,64.5400404 47.9716005,64.6540777 C47.0436536,64.7535182 46.095633,65.0901564 45.5290105,65.1503681 C45.2972519,65.1759124 45.2060083,65.0226463 45.1777228,64.7471321 C45.104728,64.0647329 45.3091135,63.2354536 45.6229914,62.4527015 C48.3803717,61.9983768 49.1340434,61.7712145 49.0948087,61.393523 C49.0519242,61.0012346 48.672351,60.1911136 47.7745144,60.1673938 C47.4350884,60.1600954 47.2024173,60.1701307 46.9688338,60.1956751 L46.9688338,60.1956751 L46.0098641,60.2969402 L46.1576786,59.1948837 C46.2936315,58.1220207 46.845655,57.7844702 48.0719684,57.5810277 C49.2690839,57.3812343 49.5975607,57.2863553 49.5601509,56.9387695 Z M35.4719632,63.5020272 C37.1280338,63.3268659 37.7868122,63.7273649 37.8442957,64.2637964 C37.9118159,64.9033176 36.5039278,66.1686756 35.3871067,66.2872744 C35.1690346,66.3109942 35.0412936,66.2060799 35.0157454,65.974356 C34.964649,65.4953993 35.1462237,64.4325716 35.4719632,63.5020272 Z M58.3244608,54.5883903 L58.1775573,54.5974467 C56.4941137,54.7771695 55.1747319,55.0791403 54.3088305,55.2296696 C53.0560565,55.4659549 52.5505672,55.6812573 52.6180874,56.3043572 C52.6691838,56.7979107 53.0651808,57.3434651 53.7476826,57.2713936 L53.7476826,57.2713936 L55.0844007,57.129075 C54.4128482,60.0639392 54.0341874,62.0427146 53.6172044,64.7449426 C53.6144671,64.8480323 53.6053427,64.9073318 53.6153795,65.0085969 C53.6920241,65.721102 54.4037238,66.3359912 55.1592205,66.2557089 C55.5935398,66.2091817 55.7559533,65.9272814 55.9183669,64.8389094 C56.5150997,60.9123768 56.773319,59.4745944 57.374614,56.71033 C59.1775867,56.4001485 59.5179252,56.4220437 59.427594,55.5663077 C59.3628111,54.9705768 58.9339664,54.5171645 58.1775573,54.5974467 Z M67.1227115,53.6529194 L66.9758085,53.6619759 C65.29054,53.8416987 63.9711582,54.1436695 63.1070817,54.2941987 C61.8543077,54.530484 61.3488184,54.7457865 61.4145137,55.3688863 C61.467435,55.8624398 61.863432,56.4079943 62.5459338,56.3359227 L62.5459338,56.3359227 L63.8808271,56.1936041 C63.2110994,59.1284683 62.8324386,61.1072437 62.4154556,63.8094718 C62.4108934,63.9125615 62.4035939,63.9718609 62.4136307,64.073126 C62.4893628,64.7856311 63.201975,65.4005203 63.9556468,65.320238 C64.391791,65.2737108 64.5523797,64.9908983 64.7166181,63.9025262 C65.311526,59.9769059 65.5697453,58.5391235 66.1728652,55.7748591 C67.974013,55.4646777 68.3143515,55.4865728 68.2240204,54.6308369 C68.1610623,54.035106 67.7322176,53.5816936 66.9758085,53.6619759 Z M76.3290943,54.0913948 C76.2807352,53.6407193 75.7871075,52.7247717 74.2916257,52.8844239 C73.4932445,52.9692677 71.8006766,53.2219743 71.1336862,53.4400137 C70.6811181,53.6051397 70.6455331,54.2400994 70.6774684,54.5311226 C70.697542,54.7190561 70.802472,54.8704977 71.0944514,55.0000441 C70.7258275,55.9497468 70.3690652,57.7205181 70.1519055,58.5671311 C69.8343779,60.0103873 69.4091829,61.8030537 69.5250623,62.8914258 C69.6601027,64.169556 70.2842086,64.6466881 71.3891681,64.5299139 C72.3764234,64.4249995 73.1884911,64.0582556 74.2168059,63.7727061 C75.5288883,63.4132605 76.2232517,63.1778875 76.1758051,62.7281244 C76.1447823,62.4380135 75.815393,61.6926656 74.740544,61.8076152 C73.812597,61.9070558 72.8645764,62.2436939 72.2979539,62.3029933 C72.0661953,62.3285377 71.9749517,62.1761838 71.9466662,61.9006697 C71.8736714,61.2182704 72.078057,60.3880788 72.3919348,59.6053267 C75.1493151,59.1510021 75.9029869,58.9238398 75.8637521,58.5461482 C75.8208677,58.1538599 75.4412945,57.3437388 74.5434579,57.3209314 C74.2040318,57.313633 73.9713608,57.322756 73.7377773,57.3483003 L73.7377773,57.3483003 L72.7788075,57.4504777 L72.926622,56.3475089 C73.0625749,55.2755582 73.6145985,54.9380078 74.8409119,54.7336529 C76.0380273,54.5338595 76.3665041,54.4389805 76.3290943,54.0913948 Z M86.7111511,54.2499523 C86.5067656,52.3186164 84.3515928,51.8141153 82.7694295,51.9828906 C81.7374649,52.0923664 79.7839403,52.3733543 79.9107688,53.549307 C79.9317549,53.7518373 80.0193487,53.8895944 80.1534767,54.0364744 C79.5065599,56.6611571 79.0357431,59.5613539 78.4599963,62.2946002 C78.4563466,62.3812685 78.4371854,62.4880074 78.4463098,62.5737635 C78.5229544,63.2862686 79.4600257,63.6712586 80.0832192,63.6046608 C80.4901654,63.5608704 80.6553163,62.9122262 80.7666334,62.4296203 C81.0084288,61.3914247 81.1635429,60.362352 81.3204818,59.7574981 C81.3597165,59.5777753 81.3788777,59.3542622 81.5969498,59.3314547 C81.8159343,59.307735 81.9728732,59.5421957 82.1708717,59.8870445 C82.747531,60.8978712 83.5550365,62.1340356 84.553241,62.9532797 C84.9720489,63.3045146 85.5122108,63.6876799 85.9912395,63.6365912 C86.3835868,63.5955378 87.0286787,63.1749682 86.9803196,62.709696 C86.918274,62.1285618 86.3927111,61.8758552 85.7083844,61.111349 C84.8598194,60.1753308 84.1125346,59.2402249 83.5158018,58.3188034 C85.1034397,57.5050332 86.9283108,56.2980623 86.7111511,54.2499523 Z M37.400852,58.7151971 C37.6910065,58.6850913 38.293214,58.6796175 38.3360985,59.0728181 C38.5039866,60.6547437 36.9245606,61.8352579 35.8478867,62.067894 C35.8159514,61.7631863 35.7949654,61.4274605 35.9245313,60.576286 C36.0869448,59.1941538 36.2977174,58.8328836 37.400852,58.7151971 Z M83.6143448,53.8604008 C83.9774942,53.821172 84.5048819,53.8093121 84.5605405,54.3183746 C84.6189364,54.8839997 84.2256766,55.4541862 83.8652646,55.9331429 C83.3378768,56.6356128 82.6517253,57.223133 81.8496944,57.571631 L81.8496944,57.571631 L82.3615708,54.081177 C82.7192455,53.9990702 83.2219975,53.9014542 83.6143448,53.8604008 Z M28.1444669,39.3552201 C27.951943,37.5415707 26.7895001,36.1047006 24.5001992,36.3482843 C19.2600818,36.9056987 16.6459539,45.7376602 16.9899421,48.9799689 C17.3412298,52.2669803 19.4900156,54.5842184 23.0047174,54.210176 C25.2967555,53.9665924 28.0961078,50.7571263 27.9409938,49.3056595 C27.9200078,49.1013046 27.5349599,47.6297672 26.6955192,47.7191724 C25.6297945,47.8322974 25.0038637,51.0162191 21.9654532,51.3400851 C21.0822156,51.4331395 20.7400523,50.5992987 20.6360346,49.6240516 C20.2655858,46.1326854 22.415284,40.4682242 24.0257328,40.2976244 C24.1379623,40.2848522 24.1972706,40.3934157 24.2200815,40.620578 C24.3158873,41.528315 24.1416121,41.6149834 24.1863214,42.0236931 C24.2949012,43.0436428 25.1288674,43.3447013 26.217403,43.2288394 C28.2585213,43.0117123 28.2366229,40.2173421 28.1444669,39.3552201 Z M44.8137523,39.5079388 C44.534547,36.8786946 43.3474683,34.3443295 40.1502941,34.6837045 C36.5662472,35.0650453 33.3781973,38.499849 32.3444078,44.5255804 C32.2038927,45.3667196 32.1719575,46.3556511 32.2768876,47.3308982 C32.5779913,50.1644972 33.9630685,53.0446235 37.6356217,52.6550721 C42.4441571,52.1432726 44.1996831,45.7882015 44.7699554,42.5404189 C44.8849223,41.6782969 44.9278067,40.5735034 44.8137523,39.5079388 Z M58.7575014,34.0815875 C58.6534837,33.1063405 57.3423138,32.8554584 55.0749114,33.0972175 C52.0812103,33.4156096 49.4543083,33.9483919 49.5683628,35.0139566 C49.6349706,35.6261088 49.9570603,36.302122 50.8567218,36.7792541 C50.6970456,38.0801917 50.4059786,40.0826869 49.9424614,41.5542243 C49.2389735,41.8342999 48.7635946,42.0924804 48.8594003,42.9993051 C48.9004599,43.384295 49.07656,43.549421 49.5492016,43.8878838 C48.984404,47.2059133 48.552822,47.8928741 48.4068323,49.3069367 C48.3803717,49.4939579 48.3748971,49.6545224 48.3885836,49.7904549 C48.5208867,51.0375669 50.0209308,51.3368008 50.8375606,51.2510447 C52.2436239,51.1005155 52.4644333,47.797995 52.7482007,46.5755151 C52.9525863,45.7051823 53.0529542,44.9160442 53.3093486,43.8787608 C55.0484508,43.6251418 55.9490247,43.4609281 57.0375603,43.3459785 C57.9445213,43.2483625 58.0248156,42.277677 57.9764565,41.8242646 C57.849628,40.6446627 56.4098047,40.6829793 53.6870969,40.7422787 L53.6870969,40.7422787 L54.3075531,36.4344053 C58.331394,35.8925 58.9126154,35.5321421 58.7575014,34.0815875 Z M39.7150623,37.5054437 C40.5107061,37.4205999 40.8181969,38.1677724 40.9222146,39.1430194 C41.3957686,43.5868253 38.7670418,49.7129095 36.9531199,49.9063168 C36.2277336,49.9829499 35.9339293,49.1655304 35.8253495,48.146493 C35.7003458,46.9668911 35.7751656,45.9505906 35.8928697,45.1121883 C36.151089,43.2273797 37.8564311,37.7034125 39.7150623,37.5054437 Z M71.7775919,32.6970834 C71.6735743,31.7218363 70.3624044,31.4709542 68.095002,31.711801 C65.1013009,32.0311055 62.4743989,32.5629755 62.5884533,33.6285401 C62.6550611,34.2406924 62.9771509,34.9176178 63.8768124,35.3938376 C63.7171361,36.6956876 63.4260692,38.6981827 62.9625519,40.1697201 C62.2590641,40.4497958 61.7836852,40.7070639 61.8794909,41.6138886 C61.9205505,41.9997909 62.0966506,42.1649169 62.5692922,42.5033796 C62.0044946,45.8204969 61.5729126,46.5083699 61.4269229,47.9224325 C61.4004622,48.1094537 61.3949876,48.2700182 61.4086742,48.4059507 C61.5409773,49.6530627 63.0410214,49.9522966 63.8576512,49.8665406 C65.2637144,49.7160113 65.4845238,46.4134909 65.7682913,45.1910109 C65.9726769,44.3206782 66.0730448,43.5306277 66.3294392,42.4942566 C68.0685414,42.2406377 68.9691153,42.0755116 70.0576509,41.960562 C70.9646118,41.8638584 71.0449062,40.8931728 70.9965471,40.4388482 C70.8697185,39.2592463 69.4298952,39.2984751 66.7071875,39.3577745 L66.7071875,39.3577745 L67.3276437,35.0499011 C71.3514845,34.5079958 71.932706,34.1476379 71.7775919,32.6970834 Z M84.8416619,32.1556342 C84.7668422,31.4522521 83.9949217,30.0208558 81.6590866,30.2699133 C80.4117872,30.4021966 77.7702863,30.7990464 76.7301097,31.1384214 C76.0220597,31.3975142 75.9691384,32.3891826 76.0165851,32.842595 C76.0466955,33.1372674 76.209109,33.3708158 76.6671517,33.5760829 C76.0914048,35.0594803 75.5375564,37.8237446 75.1953931,39.1438405 C74.7017654,41.3972177 74.0365999,44.1970617 74.2172622,45.8966738 C74.4289472,47.8936951 75.4034284,48.6372184 77.1270192,48.4547587 C78.6690353,48.290545 79.9373207,47.7194461 81.5413825,47.2742445 C83.5925376,46.7122686 84.6765111,46.3455246 84.6007789,45.6412302 C84.5533323,45.1878179 84.039631,44.0282865 82.3625745,44.2061847 C80.9108895,44.3603632 79.4300065,44.8840225 78.5458565,44.9779892 C78.1817947,45.0172181 78.0431045,44.7800205 77.9965703,44.3494156 C77.8843407,43.2829387 78.205518,41.9874748 78.693671,40.7668195 C82.9994545,40.056139 84.1755839,39.7021672 84.1126259,39.1128224 C84.0487554,38.4997578 83.4556723,37.2325752 82.0532588,37.1997325 C81.5231337,37.1869603 81.1581595,37.2015571 80.7950102,37.2407859 L80.7950102,37.2407859 L79.2977034,37.3995258 L79.529462,35.6789309 C79.7393222,34.0057755 80.6024863,33.4775547 82.5158636,33.1600748 C84.387269,32.8462442 84.8991453,32.7002764 84.8416619,32.1556342 Z M99.1768458,30.6312747 C99.1020261,29.9278926 98.3301056,28.4964963 95.9942706,28.7455538 C94.7469712,28.8778371 92.1054702,29.2737746 91.0652937,29.6140619 C90.3590685,29.8722424 90.3043224,30.8639108 90.351769,31.3173232 C90.3827919,31.6119956 90.5461178,31.8464563 91.0023356,32.0517234 C90.4265888,33.5342084 89.8727404,36.2984728 89.530577,37.6185687 C89.0369494,39.8728582 88.3717839,42.6727022 88.5524461,44.3723143 C88.765956,46.3693356 89.7386123,47.1128589 91.4622031,46.9294869 C93.0042192,46.7661854 94.2725047,46.1950866 95.8765664,45.7489727 C97.9277216,45.1869968 99.011695,44.8211651 98.9368753,44.1168707 C98.8885162,43.6634584 98.374815,42.503927 96.6977584,42.6818252 C95.2460734,42.8360036 93.7651905,43.359663 92.8810404,43.4536297 C92.5188035,43.4919462 92.3782884,43.2556609 92.3317542,42.8250561 C92.2195246,41.7585791 92.540702,40.4631153 93.028855,39.24246 C97.3346384,38.5317795 98.5125928,38.1768954 98.4496347,37.5875505 C98.3839393,36.9753983 97.7908562,35.7073034 96.3884428,35.675373 C95.8592301,35.6626008 95.4933435,35.6771975 95.132019,35.7155141 L95.132019,35.7155141 L93.6347122,35.8751663 L93.864646,34.1536591 C94.076331,32.4805037 94.9376702,31.9531952 96.8528725,31.6357153 C98.7224529,31.3209724 99.2343293,31.1759169 99.1768458,30.6312747 Z M45.7617728,18.6010685 C45.6568427,17.6212599 44.7517067,17.0237044 43.3794036,17.1696722 C42.2352094,17.2919202 41.455077,20.1985031 41.071854,21.4127724 C40.640272,22.6306908 40.0435391,24.7928382 39.6010079,24.8393654 C39.4550182,24.8557868 39.3610373,24.5848341 39.316328,24.1761244 C39.1612139,22.722833 39.4550182,21.2868752 39.3053788,19.8828478 C39.0955186,17.905897 38.0973141,17.6814716 36.5133259,17.8502468 C36.0707947,17.8976864 34.996858,18.1941834 35.1209492,19.3701361 C35.1410228,19.5480343 35.2496027,19.8016533 35.4156659,20.1145716 C34.5041428,22.5905497 33.2002724,28.3289071 33.0734438,29.0030956 C33.0679692,29.1189575 33.0579324,29.1700463 33.0697941,29.2840836 C33.1482636,30.0193961 33.9055851,30.92987 34.8855409,30.8249557 C35.2277042,30.7884637 35.4612877,30.3350514 35.5434069,29.8633931 C35.5508952,29.8158907 35.5576717,29.7697984 35.5639137,29.7242417 L35.5812133,29.5883034 C35.6480896,29.0212982 35.6591289,28.4012932 35.96039,26.0198796 C36.1748123,24.4607616 36.894724,22.2201565 37.1721044,22.190963 C37.3847019,22.1672432 37.4449226,22.4254237 37.4878071,22.817712 C37.6639072,24.483569 37.2669977,25.7151719 37.4321485,27.2679039 C37.5434657,28.313398 37.9312508,29.1800815 39.1575642,29.0496229 C39.6794773,28.9939726 40.4194626,28.0232871 41.3410225,25.1833019 C42.1001689,22.8396072 42.5080276,21.8707462 42.8839511,21.8306051 C42.9980055,21.8178329 43.0710003,21.8780446 43.0837744,22.0085033 C43.0956361,22.1225406 43.0463646,22.2758067 43.0354154,22.4920215 C42.9660703,23.2255094 42.0144,27.7879141 42.1640394,29.2092751 C42.2689695,30.1890836 43.2242895,30.6160393 44.258079,30.5549153 C45.0902203,30.4664224 44.2471298,28.756775 45.3593887,21.3361393 C45.525452,19.9485333 45.8402423,19.3372933 45.7617728,18.6010685 Z M55.2569423,17.0463294 C55.0270086,16.1285572 54.3700549,16.0008354 53.1939255,16.1258203 C52.3116003,16.219787 51.1044481,17.3063345 48.923727,24.4587545 C48.0322775,24.768936 47.5888338,24.7990418 47.6490546,25.371053 C47.6800774,25.649304 47.8935873,25.9576609 48.372616,26.1045409 C47.8452282,27.2011237 47.7329986,27.5432356 47.7685836,27.8853475 C47.8397536,28.5549746 48.4620346,29.1178628 49.3124246,29.0275452 C49.9164569,28.9636843 50.0962067,27.5560078 50.8142935,26.0753474 L50.8142935,26.0753474 L53.5105406,25.7888857 C53.4895546,25.9056599 53.4995914,26.0051004 53.5105406,26.101804 C53.760548,28.4537095 53.8709527,29.1707761 55.5525714,28.9919656 C56.2870821,28.9135079 56.3619018,28.8386994 56.203138,26.5588656 C56.0461991,24.313699 55.955868,22.2254478 55.7450953,20.2484971 C55.6264787,19.1208961 55.4978253,18.0772267 55.2569423,17.0463294 Z M67.6618523,14.5955153 L67.5325767,14.6011871 C66.7323707,14.6851185 65.6931066,17.5050331 64.2368594,19.8076744 C63.8828344,20.3568781 63.7131214,20.4745646 63.3691332,20.5110566 C63.2395674,20.5256533 63.1373746,20.5028459 63.1182134,20.3231231 C63.1109139,20.2410162 63.1145637,20.1251543 63.1501487,20.0065555 C63.3855571,18.3288386 63.6848359,17.2568879 63.8472494,16.2980622 C63.860936,16.2798163 63.8554614,16.2305521 63.8454246,16.1320239 C63.7742546,15.4633091 62.7459397,15.1093373 62.0278529,15.1859704 C60.850811,15.3109553 61.3252775,16.9786369 60.234917,21.1752098 C59.2166389,25.1145146 59.024115,27.0367275 59.038714,27.1662739 C59.1135337,27.8687437 59.8069848,28.175276 60.9347551,28.0557649 C62.1930038,27.9207447 62.013254,23.281707 62.9594496,23.1813542 C63.2715026,23.1485114 63.1784342,23.6876798 63.8928712,24.96581 C64.7523855,26.509419 65.9641,28.1150643 67.2040999,27.9836933 C67.8428048,27.9152709 68.299935,27.4034715 68.2752993,27.1753969 C68.243364,26.8807245 67.2223486,25.5031538 66.7606562,24.8919138 C65.9960352,23.9157544 65.0124297,22.5993078 64.7113259,21.790099 C66.7214215,20.3368076 68.7497657,17.4949978 68.5672786,15.7962981 C68.505233,15.2078656 68.2506635,14.524554 67.5325767,14.6011871 Z M77.5976534,15.133422 C77.5438197,14.6270963 76.9881465,13.5952868 75.3056153,13.7740973 C74.4059538,13.8698886 72.5044381,14.1536134 71.7544161,14.399934 C71.2443646,14.5860429 71.2051299,15.3003726 71.23889,15.6269755 C71.2626133,15.8404533 71.3794051,16.0074039 71.7097067,16.154284 C71.2945485,17.2234978 70.8949018,19.2159577 70.6494566,20.1665727 C70.2926943,21.7895516 69.8136656,23.8075558 69.9432315,25.0318604 C70.0965206,26.4696428 70.799096,27.0060743 72.039096,26.873791 C73.1513549,26.7561045 74.0656154,26.3446579 75.2198464,26.0235288 C76.697992,25.6193806 77.4781244,25.3539018 77.4242907,24.8475761 C77.3905306,24.5209733 77.0200817,23.6853079 75.812017,23.8139419 C74.7654534,23.9252424 73.6988163,24.3029339 73.0619362,24.370444 C72.8000672,24.3987253 72.7006118,24.2272131 72.6668516,23.9161194 C72.5847324,23.1488764 72.8164911,22.2165073 73.1686912,21.3361393 C76.2700597,20.8252522 77.1186248,20.567984 77.0739154,20.1446775 C77.0255563,19.703125 76.5994489,18.7908266 75.5893828,18.7652822 C75.2079847,18.7570715 74.9442908,18.7680191 74.6824218,18.7963004 L74.6824218,18.7963004 L73.603923,18.9103377 L73.7699862,17.670524 C73.9232754,16.4653778 74.5428192,16.0849493 75.9224217,15.8550501 C77.2700891,15.6297124 77.638713,15.524798 77.5976534,15.133422 Z M53.2358975,19.1774587 C53.4165598,19.1583004 53.5269645,19.4283407 53.5871852,19.9994396 C53.6711293,20.783104 53.7623729,22.0940769 53.6318946,23.974324 L53.6318946,23.974324 L51.2294517,24.2297676 C51.9566629,21.593225 52.8125274,19.2230736 53.2358975,19.1774587 Z" transform="rotate(2 58.431 43.964)"/>
    </g>
</svg>
