<?xml version="1.0" encoding="UTF-8"?>
<svg xmlns="http://www.w3.org/2000/svg" width="100" height="100" viewBox="0 0 100 100">
    <g id="sf_social_twitter" fill-rule="evenodd">
        <circle id="Oval" cx="50" cy="50" r="50" />
        <path id="Twitter" fill="#FFF" fill-rule="nonzero" d="M81,30.9166667 C78.7162347,31.9166667 76.2633015,32.6111111 73.6975898,32.9166667 C76.3196908,31.3611111 78.3497044,28.8888889 79.308322,25.9444444 C76.8553888,27.3888889 74.1205093,28.4444444 71.216462,29 C68.904502,26.5555556 65.5775352,25 61.9404275,25 C54.9199636,25 49.1964529,30.6666667 49.1964529,37.6111111 C49.1964529,38.6111111 49.3092315,39.5555556 49.5347885,40.5 C38.9618008,39.9722222 29.5729877,34.9444444 23.2855844,27.3055556 C22.1859936,29.1666667 21.5657117,31.3333333 21.5657117,33.6388889 C21.5657117,38.0277778 24.4979536,41.8888889 27.9095043,44.1388889 C25.8231014,44.0833333 22.8344702,43.5 22.8344702,42.5555556 L22.8344702,42.7222222 C22.8344702,48.8333333 26.5279673,53.9444444 32.3642565,55.1111111 C31.2928604,55.3888889 29.8267394,55.5555556 28.6707594,55.5555556 C27.8531151,55.5555556 26.8944975,55.4722222 26.1050477,55.3333333 C27.7121419,60.3611111 32.3360618,64 37.9185994,64.1111111 C33.5766257,67.5 28.0222829,69.5 22.0732151,69.5 C21.0300136,69.5 20.0150068,69.4444444 19,69.3333333 C24.6389268,72.9166667 31.321055,75 38.5106867,75 C61.9404275,75 74.7125966,55.7777778 74.7125966,39.0833333 C74.7125966,38.5277778 74.684402,38 74.684402,37.4444444 C77.1373352,35.6666667 79.308322,33.4444444 81,30.9166667 Z"/>
    </g>
</svg>
